<?xml version="1.0" standalone="no"?>
<!DOCTYPE svg PUBLIC "-//W3C//DTD SVG 1.1//EN" "http://www.w3.org/Graphics/SVG/1.1/DTD/svg11.dtd" >
<svg xmlns="http://www.w3.org/2000/svg" xmlns:xlink="http://www.w3.org/1999/xlink" version="1.1">
<metadata>
Created by FontForge 20161116 at Tue Nov 30 16:18:21 2010
 By Jimmy Wärting
Copyright (c) Mark Simonson, 2005. All rights reserved.
</metadata>
<defs>
<font id="ProximaNova-SemiboldIt" horiz-adv-x="567" >
  <font-face 
    font-family="Proxima Nova Lt"
    font-weight="600"
    font-style="italic"
    font-stretch="normal"
    units-per-em="1000"
    panose-1="2 0 5 6 3 0 0 2 0 4"
    ascent="790"
    descent="-210"
    x-height="483"
    cap-height="667"
    bbox="-226 -275 1143 894"
    underline-thickness="20"
    underline-position="-133"
    stemh="103"
    stemv="122"
    unicode-range="U+000D-FB04"
  />
<missing-glyph horiz-adv-x="493" 
d="M442 -90h-351v842h351v-842zM410 -60v782h-288v-782h288z" />
    <glyph glyph-name="f_b" unicode="fb" horiz-adv-x="889" 
d="M144 0h-105l87 391h-80l20 92h80l6 27c23 106 80 167 171 167c36 0 70 -7 99 -26l-38 -74c-13 10 -31 14 -49 14c-42 0 -66 -26 -78 -81l-6 -27h98l-20 -92h-98zM602 -12c-70 0 -128 31 -160 81l-15 -69h-105l147 667h105l-55 -248c41 49 91 76 152 76
c109 0 185 -73 185 -200c0 -150 -94 -307 -254 -307zM586 81c95 0 160 93 160 193c0 78 -50 128 -119 128c-52 0 -98 -31 -127 -69l-41 -187c22 -37 68 -65 127 -65z" />
    <glyph glyph-name="f_f" unicode="ff" horiz-adv-x="617" 
d="M145 0h-105l86 392h-80l21 91h79l6 27c21 92 73 167 176 167c50 0 87 -14 118 -45l-54 -63c-14 14 -31 22 -57 22c-44 0 -66 -27 -78 -81l-6 -27h99l-21 -91h-98zM453 0h-105l86 392h-80l21 91h79l6 27c21 92 73 167 176 167c50 0 87 -14 118 -45l-54 -63
c-14 14 -31 22 -57 22c-44 0 -66 -27 -78 -81l-6 -27h99l-21 -91h-98z" />
    <glyph glyph-name="f_h" unicode="fh" horiz-adv-x="876" 
d="M144 0h-105l87 391h-80l20 92h80l6 27c23 106 80 167 171 167c36 0 70 -7 99 -26l-38 -74c-13 10 -31 14 -49 14c-42 0 -66 -26 -78 -81l-6 -27h98l-20 -92h-98zM754 0h-105l66 303c2 8 5 23 5 30c0 49 -39 69 -90 69c-49 0 -97 -33 -129 -66l-74 -336h-105l147 667h105
l-55 -250c40 38 95 78 165 78c90 0 148 -46 148 -122c0 -9 -3 -30 -5 -40z" />
    <glyph glyph-name="fi" unicode="fi" horiz-adv-x="549" 
d="M144 0h-105l87 391h-80l20 92h80l6 27c23 106 80 167 171 167c36 0 70 -7 99 -26l-38 -74c-13 10 -31 14 -49 14c-42 0 -66 -26 -78 -81l-6 -27h98l-20 -92h-98zM501 542c-34 0 -59 25 -59 56c0 47 40 74 73 74c34 0 59 -26 59 -56c0 -47 -40 -74 -73 -74zM427 0h-105
l107 483h105z" />
    <glyph glyph-name="f_j" unicode="fj" horiz-adv-x="549" 
d="M144 0h-105l87 391h-80l20 92h80l6 27c23 106 80 167 171 167c36 0 70 -7 99 -26l-38 -74c-13 10 -31 14 -49 14c-42 0 -66 -26 -78 -81l-6 -27h98l-20 -92h-98zM248 -196c-56 0 -98 13 -126 41l46 75c15 -19 39 -30 65 -30c40 0 69 25 82 82l114 511h105l-114 -511
c-23 -103 -72 -168 -172 -168zM501 542c-34 0 -59 25 -59 56c0 47 40 74 73 74c34 0 59 -26 59 -56c0 -47 -40 -74 -73 -74z" />
    <glyph glyph-name="f_k" unicode="fk" horiz-adv-x="835" 
d="M144 0h-105l87 391h-80l20 92h80l6 27c23 106 80 167 171 167c36 0 70 -7 99 -26l-38 -74c-13 10 -31 14 -49 14c-42 0 -66 -26 -78 -81l-6 -27h98l-20 -92h-98zM774 0h-127l-106 202l-86 -72l-28 -130h-105l147 667h105l-91 -411l259 227h135l-250 -219z" />
    <glyph glyph-name="fl" unicode="fl" horiz-adv-x="549" 
d="M144 0h-105l87 391h-80l20 92h80l6 27c23 106 80 167 171 167c36 0 70 -7 99 -26l-38 -74c-13 10 -31 14 -49 14c-42 0 -66 -26 -78 -81l-6 -27h98l-20 -92h-98zM427 0h-105l147 667h105z" />
    <glyph glyph-name="f_f_i" unicode="ffi" horiz-adv-x="858" 
d="M452 0h-105l87 391h-80l20 92h80l6 27c23 106 80 167 171 167c36 0 70 -7 99 -26l-38 -74c-13 10 -31 14 -49 14c-42 0 -66 -26 -78 -81l-6 -27h98l-20 -92h-98zM810 542c-34 0 -59 25 -59 56c0 47 40 74 73 74c34 0 59 -26 59 -56c0 -47 -40 -74 -73 -74zM736 0h-105
l107 483h105zM145 0h-105l86 392h-80l21 91h79l6 27c21 92 73 167 176 167c50 0 87 -14 118 -45l-54 -63c-14 14 -31 22 -57 22c-44 0 -66 -27 -78 -81l-6 -27h99l-21 -91h-98z" />
    <glyph glyph-name="f_f_j" unicode="ffj" horiz-adv-x="858" 
d="M452 0h-105l87 391h-80l20 92h80l6 27c23 106 80 167 171 167c36 0 70 -7 99 -26l-38 -74c-13 10 -31 14 -49 14c-42 0 -66 -26 -78 -81l-6 -27h98l-20 -92h-98zM557 -196c-56 0 -98 13 -126 41l46 75c15 -19 39 -30 65 -30c40 0 69 25 82 82l114 511h105l-114 -511
c-23 -103 -72 -168 -172 -168zM810 542c-34 0 -59 25 -59 56c0 47 40 74 73 74c34 0 59 -26 59 -56c0 -47 -40 -74 -73 -74zM145 0h-105l86 392h-80l21 91h79l6 27c21 92 73 167 176 167c50 0 87 -14 118 -45l-54 -63c-14 14 -31 22 -57 22c-44 0 -66 -27 -78 -81l-6 -27h99
l-21 -91h-98z" />
    <glyph glyph-name="f_f_l" unicode="ffl" horiz-adv-x="858" 
d="M452 0h-105l87 391h-80l20 92h80l6 27c23 106 80 167 171 167c36 0 70 -7 99 -26l-38 -74c-13 10 -31 14 -49 14c-42 0 -66 -26 -78 -81l-6 -27h98l-20 -92h-98zM736 0h-105l147 667h105zM145 0h-105l86 392h-80l21 91h79l6 27c21 92 73 167 176 167c50 0 87 -14 118 -45
l-54 -63c-14 14 -31 22 -57 22c-44 0 -66 -27 -78 -81l-6 -27h99l-21 -91h-98z" />
    <glyph glyph-name=".notdef" horiz-adv-x="493" 
d="M442 -90h-351v842h351v-842zM410 -60v782h-288v-782h288z" />
    <glyph glyph-name=".null" horiz-adv-x="0" 
 />
    <glyph glyph-name=".null" horiz-adv-x="0" 
 />
    <glyph glyph-name="CR" unicode="&#xd;" horiz-adv-x="0" 
 />
    <glyph glyph-name="space" unicode=" " horiz-adv-x="257" 
 />
    <glyph glyph-name="nbspace" unicode="&#xa0;" horiz-adv-x="257" 
 />
    <glyph glyph-name="thinspace" unicode="&#x2009;" horiz-adv-x="51" 
 />
    <glyph glyph-name="zero" unicode="0" horiz-adv-x="616" 
d="M281 -12c-143 0 -231 98 -231 265c0 209 128 424 324 424c143 0 230 -98 230 -264c0 -210 -127 -425 -323 -425zM292 92c123 0 194 186 194 327c0 89 -35 154 -123 154c-123 0 -195 -186 -195 -326c0 -89 36 -155 124 -155z" />
    <glyph glyph-name="zero.pzero" horiz-adv-x="616" 
d="M281 -12c-65 0 -119 20 -158 58l-40 -46h-87l87 101c-22 41 -33 92 -33 152c0 209 128 424 324 424c64 0 117 -20 156 -57l41 47h87l-87 -101c21 -41 33 -93 33 -153c0 -210 -127 -425 -323 -425zM292 92c123 0 194 186 194 327c0 15 -2 30 -4 44l-284 -329
c20 -27 51 -42 94 -42zM168 247c0 -15 1 -30 3 -44l284 329c-20 26 -50 41 -92 41c-123 0 -195 -186 -195 -326z" />
    <glyph glyph-name="one" unicode="1" horiz-adv-x="380" 
d="M255 0h-117l113 515l-133 -113l-53 71l235 194h102z" />
    <glyph glyph-name="two" unicode="2" horiz-adv-x="595" 
d="M479 0h-483l24 110c276 162 442 267 442 374c0 56 -54 90 -130 90c-74 0 -128 -27 -168 -62l-51 83c55 50 141 82 227 82c129 0 245 -63 245 -186c0 -140 -163 -265 -379 -388h295z" />
    <glyph glyph-name="three" unicode="3" horiz-adv-x="574" 
d="M267 -12c-118 0 -232 52 -276 139l80 69c39 -68 121 -104 195 -104c88 0 136 48 136 112c0 48 -40 84 -133 84c-28 0 -63 0 -74 -1l24 105c11 -1 66 -1 92 -1c79 0 143 28 143 95c0 51 -53 87 -140 87c-57 0 -116 -18 -165 -59l-44 80c53 50 134 83 219 83
c149 0 250 -63 250 -172c0 -94 -94 -158 -180 -167c67 -16 123 -62 123 -145c0 -116 -108 -205 -250 -205z" />
    <glyph glyph-name="four" unicode="4" horiz-adv-x="580" 
d="M409 0h-117l33 151h-318l23 103l358 413h168l-92 -413h89l-22 -103h-89zM347 254l69 308l-272 -308h203z" />
    <glyph glyph-name="five" unicode="5" horiz-adv-x="600" 
d="M288 -12c-125 0 -212 46 -263 130l85 73c35 -65 98 -99 181 -99c85 0 144 58 144 130c0 68 -57 106 -137 106c-53 0 -89 -14 -129 -44l-76 33l77 350h437l-23 -103h-320l-40 -184c33 26 77 44 136 44c107 0 197 -67 197 -189c0 -134 -109 -247 -269 -247z" />
    <glyph glyph-name="six" unicode="6" horiz-adv-x="601" 
d="M293 -12c-156 0 -247 93 -247 253c0 203 117 436 345 436c96 0 168 -36 214 -95l-74 -81c-30 46 -84 72 -147 72c-111 0 -177 -104 -204 -201c-4 -9 -6 -18 -7 -24c35 38 106 77 181 77c118 0 207 -68 207 -180c0 -140 -119 -257 -268 -257zM294 92c83 0 145 63 145 138
c0 62 -58 100 -137 100c-54 0 -103 -25 -141 -64c-1 -8 -2 -29 -2 -40c0 -81 53 -134 135 -134z" />
    <glyph glyph-name="seven" unicode="7" horiz-adv-x="532" 
d="M197 0h-134l374 564h-340l23 103h481l-18 -81z" />
    <glyph glyph-name="eight" unicode="8" horiz-adv-x="595" 
d="M279 -12c-137 0 -258 55 -258 175c0 92 73 165 192 193c-55 23 -107 71 -107 137c0 128 133 184 251 184c123 0 247 -56 247 -168c0 -92 -74 -157 -180 -176c60 -30 117 -82 117 -154c0 -118 -124 -191 -262 -191zM330 390c86 6 148 40 148 98c0 48 -57 84 -128 84
c-67 0 -127 -34 -127 -92c0 -45 60 -79 107 -90zM284 92c69 0 139 38 139 99c0 52 -64 88 -115 101c-91 -5 -163 -46 -163 -108c0 -61 60 -92 139 -92z" />
    <glyph glyph-name="nine" unicode="9" horiz-adv-x="601" 
d="M346 678c156 0 247 -93 247 -253c0 -204 -117 -436 -346 -436c-96 0 -168 36 -213 94l74 82c29 -47 83 -72 147 -72c111 0 176 103 204 200c3 9 6 18 7 24c-36 -38 -107 -77 -181 -77c-118 0 -208 69 -208 181c0 139 120 257 269 257zM345 574c-84 0 -146 -64 -146 -138
c0 -62 59 -101 137 -101c55 0 104 26 142 64c1 8 1 30 1 40c0 81 -53 135 -134 135z" />
    <glyph glyph-name="zero.tnum" unicode="&#xf639;" horiz-adv-x="612" 
d="M279 -12c-143 0 -231 98 -231 265c0 209 128 424 324 424c143 0 230 -98 230 -264c0 -210 -127 -425 -323 -425zM290 92c123 0 194 186 194 327c0 89 -35 154 -123 154c-123 0 -195 -186 -195 -326c0 -89 36 -155 124 -155z" />
    <glyph glyph-name="zero.tzero" unicode="&#xf638;" horiz-adv-x="612" 
d="M279 -12c-65 0 -119 20 -158 58l-40 -46h-87l87 101c-22 41 -33 92 -33 152c0 209 128 424 324 424c64 0 117 -20 156 -57l41 47h87l-87 -101c21 -41 33 -93 33 -153c0 -210 -127 -425 -323 -425zM290 92c123 0 194 186 194 327c0 15 -2 30 -4 44l-284 -329
c20 -27 51 -42 94 -42zM166 247c0 -15 1 -30 3 -44l284 329c-20 26 -50 41 -92 41c-123 0 -195 -186 -195 -326z" />
    <glyph glyph-name="one.tnum" unicode="&#xf6dc;" horiz-adv-x="612" 
d="M373 0h-117l113 515l-133 -113l-53 71l235 194h102z" />
    <glyph glyph-name="two.tnum" unicode="&#xf63a;" horiz-adv-x="612" 
d="M497 0h-483l24 110c276 162 442 267 442 374c0 56 -54 90 -130 90c-74 0 -128 -27 -168 -62l-51 83c55 50 141 82 227 82c129 0 245 -63 245 -186c0 -140 -163 -265 -379 -388h295z" />
    <glyph glyph-name="three.tnum" unicode="&#xf63b;" horiz-adv-x="612" 
d="M295 -12c-118 0 -232 52 -276 139l80 69c39 -68 121 -104 195 -104c88 0 136 48 136 112c0 48 -40 84 -133 84c-28 0 -63 0 -74 -1l24 105c11 -1 66 -1 92 -1c79 0 143 28 143 95c0 51 -53 87 -140 87c-57 0 -116 -18 -165 -59l-44 80c53 50 134 83 219 83
c149 0 250 -63 250 -172c0 -94 -94 -158 -180 -167c67 -16 123 -62 123 -145c0 -116 -108 -205 -250 -205z" />
    <glyph glyph-name="four.tnum" unicode="&#xf63c;" horiz-adv-x="612" 
d="M423 0h-117l33 151h-318l23 103l358 413h168l-92 -413h89l-22 -103h-89zM361 254l69 308l-272 -308h203z" />
    <glyph glyph-name="five.tnum" unicode="&#xf63d;" horiz-adv-x="612" 
d="M292 -12c-125 0 -212 46 -263 130l85 73c35 -65 98 -99 181 -99c85 0 144 58 144 130c0 68 -57 106 -137 106c-53 0 -89 -14 -129 -44l-76 33l77 350h437l-23 -103h-320l-40 -184c33 26 77 44 136 44c107 0 197 -67 197 -189c0 -134 -109 -247 -269 -247z" />
    <glyph glyph-name="six.tnum" unicode="&#xf63e;" horiz-adv-x="612" 
d="M302 -12c-156 0 -247 93 -247 253c0 203 117 436 345 436c96 0 168 -36 214 -95l-74 -81c-30 46 -84 72 -147 72c-111 0 -177 -104 -204 -201c-4 -9 -6 -18 -7 -24c35 38 106 77 181 77c118 0 207 -68 207 -180c0 -140 -119 -257 -268 -257zM303 92c83 0 145 63 145 138
c0 62 -58 100 -137 100c-54 0 -103 -25 -141 -64c-1 -8 -2 -29 -2 -40c0 -81 53 -134 135 -134z" />
    <glyph glyph-name="seven.tnum" unicode="&#xf63f;" horiz-adv-x="612" 
d="M236 0h-134l374 564h-340l23 103h481l-18 -81z" />
    <glyph glyph-name="eight.tnum" unicode="&#xf640;" horiz-adv-x="612" 
d="M287 -12c-137 0 -258 55 -258 175c0 92 73 165 192 193c-55 23 -107 71 -107 137c0 128 133 184 251 184c123 0 247 -56 247 -168c0 -92 -74 -157 -180 -176c60 -30 117 -82 117 -154c0 -118 -124 -191 -262 -191zM338 390c86 6 148 40 148 98c0 48 -57 84 -128 84
c-67 0 -127 -34 -127 -92c0 -45 60 -79 107 -90zM292 92c69 0 139 38 139 99c0 52 -64 88 -115 101c-91 -5 -163 -46 -163 -108c0 -61 60 -92 139 -92z" />
    <glyph glyph-name="nine.tnum" unicode="&#xf641;" horiz-adv-x="612" 
d="M350 678c156 0 247 -93 247 -253c0 -204 -117 -436 -346 -436c-96 0 -168 36 -213 94l74 82c29 -47 83 -72 147 -72c111 0 176 103 204 200c3 9 6 18 7 24c-36 -38 -107 -77 -181 -77c-118 0 -208 69 -208 181c0 139 120 257 269 257zM349 574c-84 0 -146 -64 -146 -138
c0 -62 59 -101 137 -101c55 0 104 26 142 64c1 8 1 30 1 40c0 81 -53 135 -134 135z" />
    <glyph glyph-name="zero.tonum" unicode="&#xf643;" horiz-adv-x="612" 
d="M586 322c0 -145 -102 -334 -295 -334c-163 0 -253 91 -253 239c0 145 102 335 295 335c163 0 253 -91 253 -240zM466 314c0 94 -47 144 -134 144c-117 0 -174 -132 -174 -223c0 -93 47 -143 134 -143c117 0 174 132 174 222z" />
    <glyph glyph-name="zero.tonumzero" horiz-adv-x="612" 
d="M586 322c0 -145 -102 -334 -295 -334c-71 0 -128 17 -170 48l-35 -36h-91l82 83c-26 38 -39 87 -39 144c0 145 102 335 295 335c70 0 127 -17 168 -48l36 36h91l-82 -83c26 -38 40 -87 40 -145zM466 314c0 24 -3 45 -9 63l-254 -258c22 -18 52 -27 89 -27
c117 0 174 132 174 222zM158 235c0 -23 3 -44 8 -61l254 257c-22 18 -51 27 -88 27c-117 0 -174 -132 -174 -223z" />
    <glyph glyph-name="one.tonum" unicode="&#xf644;" horiz-adv-x="612" 
d="M373 0h-117l87 398l-133 -113l-53 71l235 194h102z" />
    <glyph glyph-name="two.tonum" unicode="&#xf645;" horiz-adv-x="612" 
d="M473 0h-453l21 98c260 85 405 177 405 270c0 56 -51 90 -120 90c-68 0 -128 -23 -181 -69l-51 82c65 59 151 91 244 91c131 0 233 -60 233 -168c0 -135 -164 -234 -313 -291h238z" />
    <glyph glyph-name="three.tonum" unicode="&#xf646;" horiz-adv-x="612" 
d="M269 -127c-118 0 -232 52 -276 139l80 69c39 -68 121 -104 195 -104c88 0 136 48 136 112c0 48 -40 84 -133 84c-28 0 -63 0 -74 -1l24 105c11 -1 66 -1 92 -1c79 0 143 28 143 95c0 51 -53 87 -140 87c-57 0 -116 -18 -165 -59l-44 80c53 50 134 83 219 83
c149 0 250 -63 250 -172c0 -94 -94 -158 -180 -167c67 -16 123 -62 123 -145c0 -116 -108 -205 -250 -205z" />
    <glyph glyph-name="four.tonum" unicode="&#xf647;" horiz-adv-x="612" 
d="M520 39h-89l-34 -156h-117l34 156h-318l21 94l366 417h161l-90 -408h89zM337 142l67 303l-270 -303h203z" />
    <glyph glyph-name="five.tonum" unicode="&#xf648;" horiz-adv-x="612" 
d="M266 -129c-125 0 -212 46 -263 130l85 73c35 -65 98 -99 181 -99c85 0 144 58 144 130c0 68 -57 106 -137 106c-53 0 -89 -14 -129 -44l-76 33l77 350h437l-23 -103h-320l-40 -184c33 26 77 44 136 44c107 0 197 -67 197 -189c0 -134 -109 -247 -269 -247z" />
    <glyph glyph-name="six.tonum" unicode="&#xf649;" horiz-adv-x="612" 
d="M302 -12c-156 0 -247 93 -247 253c0 203 117 436 345 436c96 0 168 -36 214 -95l-74 -81c-30 46 -84 72 -147 72c-111 0 -177 -104 -204 -201c-4 -9 -6 -18 -7 -24c35 38 106 77 181 77c118 0 207 -68 207 -180c0 -140 -119 -257 -268 -257zM303 92c83 0 145 63 145 138
c0 62 -58 100 -137 100c-54 0 -103 -25 -141 -64c-1 -8 -2 -29 -2 -40c0 -81 53 -134 135 -134z" />
    <glyph glyph-name="seven.tonum" unicode="&#xf64a;" horiz-adv-x="612" 
d="M210 -117h-134l374 564h-340l23 103h481l-18 -81z" />
    <glyph glyph-name="eight.tonum" unicode="&#xf64b;" horiz-adv-x="612" 
d="M287 -12c-137 0 -258 55 -258 175c0 92 73 165 192 193c-55 23 -107 71 -107 137c0 128 133 184 251 184c123 0 247 -56 247 -168c0 -92 -74 -157 -180 -176c60 -30 117 -82 117 -154c0 -118 -124 -191 -262 -191zM338 390c86 6 148 40 148 98c0 48 -57 84 -128 84
c-67 0 -127 -34 -127 -92c0 -45 60 -79 107 -90zM292 92c69 0 139 38 139 99c0 52 -64 88 -115 101c-91 -5 -163 -46 -163 -108c0 -61 60 -92 139 -92z" />
    <glyph glyph-name="nine.tonum" unicode="&#xf64c;" horiz-adv-x="612" 
d="M324 562c156 0 247 -93 247 -253c0 -204 -117 -436 -346 -436c-96 0 -168 36 -213 94l74 82c29 -47 83 -72 147 -72c111 0 176 103 204 200c3 9 6 18 7 24c-36 -38 -107 -77 -181 -77c-118 0 -208 69 -208 181c0 139 120 257 269 257zM323 458c-84 0 -146 -64 -146 -138
c0 -62 59 -101 137 -101c55 0 104 26 142 64c1 8 1 30 1 40c0 81 -53 135 -134 135z" />
    <glyph glyph-name="zero.onum" unicode="&#xf730;" horiz-adv-x="616" 
d="M588 322c0 -145 -102 -334 -295 -334c-163 0 -253 91 -253 239c0 145 102 335 295 335c163 0 253 -91 253 -240zM468 314c0 94 -47 144 -134 144c-117 0 -174 -132 -174 -223c0 -93 47 -143 134 -143c117 0 174 132 174 222z" />
    <glyph glyph-name="zero.onumzero" horiz-adv-x="616" 
d="M588 322c0 -145 -102 -334 -295 -334c-71 0 -128 17 -170 48l-35 -36h-91l82 83c-26 38 -39 87 -39 144c0 145 102 335 295 335c70 0 127 -17 168 -48l36 36h91l-82 -83c26 -38 40 -87 40 -145zM468 314c0 24 -3 45 -9 63l-254 -258c22 -18 52 -27 89 -27
c117 0 174 132 174 222zM160 235c0 -23 3 -44 8 -61l254 257c-22 18 -51 27 -88 27c-117 0 -174 -132 -174 -223z" />
    <glyph glyph-name="one.onum" unicode="&#xf731;" horiz-adv-x="380" 
d="M255 0h-117l87 398l-133 -113l-53 71l235 194h102z" />
    <glyph glyph-name="two.onum" unicode="&#xf732;" horiz-adv-x="580" 
d="M453 0h-453l21 98c260 85 405 177 405 270c0 56 -51 90 -120 90c-68 0 -128 -23 -181 -69l-51 82c65 59 151 91 244 91c131 0 233 -60 233 -168c0 -135 -164 -234 -313 -291h238z" />
    <glyph glyph-name="three.onum" unicode="&#xf733;" horiz-adv-x="568" 
d="M235 -127c-118 0 -232 52 -276 139l80 69c39 -68 121 -104 195 -104c88 0 136 48 136 112c0 48 -40 84 -133 84c-28 0 -63 0 -74 -1l24 105c11 -1 66 -1 92 -1c79 0 143 28 143 95c0 51 -53 87 -140 87c-57 0 -116 -18 -165 -59l-44 80c53 50 134 83 219 83
c149 0 250 -63 250 -172c0 -94 -94 -158 -180 -167c67 -16 123 -62 123 -145c0 -116 -108 -205 -250 -205z" />
    <glyph glyph-name="four.onum" unicode="&#xf734;" horiz-adv-x="580" 
d="M506 39h-89l-34 -156h-117l34 156h-318l21 94l366 417h161l-90 -408h89zM323 142l67 303l-270 -303h203z" />
    <glyph glyph-name="five.onum" unicode="&#xf735;" horiz-adv-x="600" 
d="M262 -129c-125 0 -212 46 -263 130l85 73c35 -65 98 -99 181 -99c85 0 144 58 144 130c0 68 -57 106 -137 106c-53 0 -89 -14 -129 -44l-76 33l77 350h437l-23 -103h-320l-40 -184c33 26 77 44 136 44c107 0 197 -67 197 -189c0 -134 -109 -247 -269 -247z" />
    <glyph glyph-name="six.onum" unicode="&#xf736;" horiz-adv-x="601" 
d="M293 -12c-156 0 -247 93 -247 253c0 203 117 436 345 436c96 0 168 -36 214 -95l-74 -81c-30 46 -84 72 -147 72c-111 0 -177 -104 -204 -201c-4 -9 -6 -18 -7 -24c35 38 106 77 181 77c118 0 207 -68 207 -180c0 -140 -119 -257 -268 -257zM294 92c83 0 145 63 145 138
c0 62 -58 100 -137 100c-54 0 -103 -25 -141 -64c-1 -8 -2 -29 -2 -40c0 -81 53 -134 135 -134z" />
    <glyph glyph-name="seven.onum" unicode="&#xf737;" horiz-adv-x="532" 
d="M171 -117h-134l374 564h-340l23 103h481l-18 -81z" />
    <glyph glyph-name="eight.onum" unicode="&#xf738;" horiz-adv-x="595" 
d="M279 -12c-137 0 -258 55 -258 175c0 92 73 165 192 193c-55 23 -107 71 -107 137c0 128 133 184 251 184c123 0 247 -56 247 -168c0 -92 -74 -157 -180 -176c60 -30 117 -82 117 -154c0 -118 -124 -191 -262 -191zM330 390c86 6 148 40 148 98c0 48 -57 84 -128 84
c-67 0 -127 -34 -127 -92c0 -45 60 -79 107 -90zM284 92c69 0 139 38 139 99c0 52 -64 88 -115 101c-91 -5 -163 -46 -163 -108c0 -61 60 -92 139 -92z" />
    <glyph glyph-name="nine.onum" unicode="&#xf739;" horiz-adv-x="601" 
d="M320 562c156 0 247 -93 247 -253c0 -204 -117 -436 -346 -436c-96 0 -168 36 -213 94l74 82c29 -47 83 -72 147 -72c111 0 176 103 204 200c3 9 6 18 7 24c-36 -38 -107 -77 -181 -77c-118 0 -208 69 -208 181c0 139 120 257 269 257zM319 458c-84 0 -146 -64 -146 -138
c0 -62 59 -101 137 -101c55 0 104 26 142 64c1 8 1 30 1 40c0 81 -53 135 -134 135z" />
    <glyph glyph-name="A" unicode="A" horiz-adv-x="673" 
d="M617 0h-127l-21 128h-306l-77 -128h-139l409 667h146zM459 231l-50 318l-190 -318h240z" />
    <glyph glyph-name="B" unicode="B" horiz-adv-x="648" 
d="M357 0h-340l147 667h304c108 0 176 -70 176 -157c0 -92 -71 -168 -153 -176c60 -16 97 -76 97 -136c0 -95 -68 -198 -231 -198zM411 391c81 0 108 52 108 99c0 42 -37 74 -82 74h-179l-38 -173h191zM351 103c77 0 119 50 119 105c0 47 -33 80 -88 80h-185l-41 -185h195z
" />
    <glyph glyph-name="C" unicode="C" horiz-adv-x="682" 
d="M370 -12c-181 0 -319 116 -319 296c0 238 181 394 382 394c150 0 244 -77 286 -175l-112 -40c-32 74 -100 111 -180 111c-133 0 -254 -117 -254 -283c0 -116 79 -199 204 -199c59 0 122 28 166 76l89 -62c-74 -88 -177 -118 -262 -118z" />
    <glyph glyph-name="D" unicode="D" horiz-adv-x="710" 
d="M264 0h-247l147 667h243c148 0 284 -116 284 -286c0 -178 -124 -381 -427 -381zM281 103h4c176 0 284 125 284 271c0 108 -77 190 -184 190h-127l-102 -461h125z" />
    <glyph glyph-name="E" unicode="E" horiz-adv-x="577" 
d="M474 0h-457l147 667h457l-23 -103h-340l-38 -173h333l-23 -103h-333l-41 -185h340z" />
    <glyph glyph-name="F" unicode="F" horiz-adv-x="562" 
d="M134 0h-117l147 667h457l-23 -103h-340l-38 -173h333l-23 -103h-333z" />
    <glyph glyph-name="G" unicode="G" horiz-adv-x="717" 
d="M370 -12c-182 0 -319 117 -319 296c0 227 170 394 392 394c136 0 227 -72 270 -157l-107 -47c-28 61 -99 100 -179 100c-134 0 -254 -120 -254 -283c0 -115 78 -199 204 -199c64 0 114 27 151 59l23 104h-199l23 103h316l-56 -253c-67 -74 -159 -117 -265 -117z" />
    <glyph glyph-name="G.alt1" horiz-adv-x="717" 
d="M355 -12c-172 0 -304 118 -304 296c0 238 182 394 397 394c130 0 225 -74 265 -157l-107 -47c-28 61 -99 100 -173 100c-136 0 -260 -118 -260 -283c0 -118 80 -199 197 -199c113 0 186 73 218 163h-236l23 103h359c-41 -239 -176 -370 -379 -370z" />
    <glyph glyph-name="H" unicode="H" horiz-adv-x="723" 
d="M598 0h-117l64 291h-347l-64 -291h-117l147 667h117l-60 -273h347l60 273h117z" />
    <glyph glyph-name="I" unicode="I" horiz-adv-x="259" 
d="M134 0h-117l147 667h117z" />
    <glyph glyph-name="J" unicode="J" horiz-adv-x="481" 
d="M162 -12c-75 0 -148 26 -188 79l65 86c23 -37 64 -61 115 -61c73 0 116 48 132 121l100 454h117l-100 -456c-34 -152 -112 -223 -241 -223z" />
    <glyph glyph-name="K" unicode="K" horiz-adv-x="621" 
d="M560 0h-137l-165 286l-77 -73l-47 -213h-117l147 667h117l-68 -308l322 308h152l-340 -315z" />
    <glyph glyph-name="L" unicode="L" horiz-adv-x="517" 
d="M428 0h-411l147 667h117l-125 -564h294z" />
    <glyph glyph-name="M" unicode="M" horiz-adv-x="835" 
d="M710 0h-117l113 515l-318 -515h-50l-91 515l-113 -515h-117l147 667h160l80 -459l283 459h170z" />
    <glyph glyph-name="N" unicode="N" horiz-adv-x="720" 
d="M595 0h-113l-239 494l-109 -494h-117l147 667h120l234 -481l107 481h117z" />
    <glyph glyph-name="O" unicode="O" horiz-adv-x="765" 
d="M370 -12c-179 0 -319 112 -319 296c0 220 167 394 382 394c179 0 319 -112 319 -295c0 -221 -167 -395 -382 -395zM377 92c138 0 253 122 253 283c0 125 -90 199 -204 199c-139 0 -253 -122 -253 -283c0 -126 89 -199 204 -199z" />
    <glyph glyph-name="P" unicode="P" horiz-adv-x="608" 
d="M134 0h-117l147 667h268c128 0 198 -82 198 -180c0 -100 -67 -238 -267 -238h-174zM211 352h160c86 0 137 56 137 124c0 49 -39 88 -95 88h-155z" />
    <glyph glyph-name="Q" unicode="Q" horiz-adv-x="765" 
d="M370 -12c-179 0 -319 112 -319 296c0 220 167 394 382 394c179 0 319 -112 319 -295c0 -131 -59 -245 -151 -317l38 -56l-94 -47l-34 52c-44 -17 -91 -27 -141 -27zM377 92c26 0 51 4 75 12l-67 102l93 47l63 -95c54 51 89 128 89 217c0 125 -90 199 -204 199
c-139 0 -253 -122 -253 -283c0 -126 89 -199 204 -199z" />
    <glyph glyph-name="R" unicode="R" horiz-adv-x="628" 
d="M533 0h-129l-93 249h-123l-54 -249h-117l147 667h268c103 0 199 -69 199 -182c0 -122 -85 -213 -202 -229zM370 352h2c86 0 136 53 136 122c0 53 -47 90 -97 90h-153l-47 -212h159z" />
    <glyph glyph-name="S" unicode="S" horiz-adv-x="594" 
d="M294 -12c-126 0 -236 51 -288 122l75 86c46 -63 130 -104 223 -104c85 0 120 52 120 96c0 109 -327 89 -327 282c0 107 97 207 250 207c105 0 201 -40 255 -107l-75 -83c-47 59 -126 87 -196 87c-63 0 -110 -40 -110 -85c0 -101 328 -87 328 -280
c0 -115 -93 -221 -255 -221z" />
    <glyph glyph-name="T" unicode="T" horiz-adv-x="577" 
d="M293 0h-117l124 564h-202l23 103h521l-23 -103h-202z" />
    <glyph glyph-name="U" unicode="U" horiz-adv-x="719" 
d="M347 -12c-180 0 -277 91 -277 228c0 16 3 37 5 47l89 404h118l-88 -401c-2 -7 -4 -21 -4 -37c0 -77 55 -138 157 -138c111 0 164 69 187 175l89 401h118l-89 -403c-36 -163 -116 -276 -305 -276z" />
    <glyph glyph-name="V" unicode="V" horiz-adv-x="673" 
d="M355 0h-146l-115 667h127l83 -540l321 540h139z" />
    <glyph glyph-name="W" unicode="W" horiz-adv-x="903" 
d="M652 0h-125l-21 492l-238 -492h-125l-44 667h128l16 -514l252 514h93l24 -514l243 514h134z" />
    <glyph glyph-name="X" unicode="X" horiz-adv-x="661" 
d="M603 0h-132l-135 256l-239 -256h-148l328 349l-166 318h133l123 -240l220 240h148l-309 -332z" />
    <glyph glyph-name="Y" unicode="Y" horiz-adv-x="637" 
d="M323 0h-117l61 277l-173 390h127l121 -286l245 286h141l-344 -390z" />
    <glyph glyph-name="Z" unicode="Z" horiz-adv-x="589" 
d="M490 0h-500l21 95l437 469h-333l22 103h493l-20 -95l-439 -469h342z" />
    <glyph glyph-name="a" unicode="a" horiz-adv-x="581" 
d="M286 495c69 0 128 -31 160 -81l15 69h105l-107 -483h-105l14 64c-40 -49 -90 -76 -151 -76c-110 0 -185 72 -185 199c0 151 93 308 254 308zM302 402c-95 0 -160 -93 -160 -194c0 -78 49 -127 119 -127c51 0 98 30 126 68l42 187c-22 37 -68 66 -127 66z" />
    <glyph glyph-name="a.alt1" horiz-adv-x="536" 
d="M421 0h-105l11 50c-38 -39 -84 -62 -146 -62c-83 0 -161 45 -161 140c0 111 83 177 180 177c73 0 126 -22 168 -68l15 66c1 4 3 18 3 26c0 47 -48 79 -119 79c-53 0 -100 -20 -138 -51l-28 76c56 42 119 62 187 62c109 0 205 -42 205 -147c0 -11 -3 -36 -6 -49zM226 60
c49 0 86 18 114 48l16 72c-21 34 -68 53 -122 53c-64 0 -106 -41 -106 -97c0 -50 40 -76 98 -76z" />
    <glyph glyph-name="b" unicode="b" horiz-adv-x="581" 
d="M294 -12c-70 0 -128 31 -160 81l-15 -69h-105l147 667h105l-55 -248c41 49 91 76 152 76c109 0 185 -73 185 -200c0 -150 -94 -307 -254 -307zM278 81c95 0 160 93 160 193c0 78 -50 128 -119 128c-52 0 -98 -31 -127 -69l-41 -187c22 -37 68 -65 127 -65z" />
    <glyph glyph-name="c" unicode="c" horiz-adv-x="497" 
d="M264 -12c-138 0 -231 85 -231 218c0 159 121 289 277 289c95 0 157 -38 190 -93l-79 -60c-22 38 -63 60 -110 60c-104 0 -171 -90 -171 -192c0 -84 59 -129 134 -129c45 0 84 22 110 52l58 -70c-38 -40 -97 -75 -178 -75z" />
    <glyph glyph-name="d" unicode="d" horiz-adv-x="581" 
d="M286 495c69 0 128 -31 160 -81l56 253h105l-148 -667h-105l14 64c-40 -49 -90 -76 -151 -76c-110 0 -185 72 -185 199c0 151 93 308 254 308zM302 402c-95 0 -160 -93 -160 -194c0 -78 49 -127 119 -127c51 0 98 30 126 68l42 187c-22 37 -68 66 -127 66z" />
    <glyph glyph-name="e" unicode="e" horiz-adv-x="557" 
d="M277 -12c-150 0 -244 83 -244 216c0 158 118 291 276 291c125 0 213 -84 213 -214c0 -26 -5 -59 -9 -74h-374c0 -3 -1 -12 -1 -17c0 -55 49 -116 147 -116c44 0 95 14 129 40l33 -73c-45 -33 -109 -53 -170 -53zM150 281h277c1 3 1 10 1 14c0 62 -42 114 -127 114
c-77 0 -138 -61 -151 -128z" />
    <glyph glyph-name="f" unicode="f" horiz-adv-x="308" 
d="M145 0h-105l86 392h-80l21 91h79l6 27c21 92 73 167 176 167c50 0 87 -14 118 -45l-54 -63c-14 14 -31 22 -57 22c-44 0 -66 -27 -78 -81l-6 -27h99l-21 -91h-98z" />
    <glyph glyph-name="f.alt1" horiz-adv-x="308" 
d="M144 0h-105l87 391h-80l20 92h80l6 27c23 106 80 167 171 167c36 0 70 -7 99 -26l-38 -74c-13 10 -31 14 -49 14c-42 0 -66 -26 -78 -81l-6 -27h98l-20 -92h-98z" />
    <glyph glyph-name="g" unicode="g" horiz-adv-x="580" 
d="M212 -196c-94 0 -171 21 -226 83l63 70c32 -45 94 -67 161 -67c65 0 125 31 148 135l12 52c-38 -47 -92 -77 -155 -77c-99 0 -183 59 -183 198c0 149 94 297 251 297c61 0 126 -33 161 -81l16 69h105l-102 -458c-37 -173 -147 -221 -251 -221zM262 93c48 0 96 29 126 65
l39 175c-25 43 -75 69 -132 69c-92 0 -154 -88 -154 -185c0 -76 48 -124 121 -124z" />
    <glyph glyph-name="h" unicode="h" horiz-adv-x="568" 
d="M446 0h-105l66 303c2 8 5 23 5 30c0 49 -39 69 -90 69c-49 0 -97 -33 -129 -66l-74 -336h-105l147 667h105l-55 -250c40 38 95 78 165 78c90 0 148 -46 148 -122c0 -9 -3 -30 -5 -40z" />
    <glyph glyph-name="i" unicode="i" horiz-adv-x="241" 
d="M193 542c-34 0 -59 25 -59 56c0 47 40 74 73 74c34 0 59 -26 59 -56c0 -47 -40 -74 -73 -74zM119 0h-105l107 483h105z" />
    <glyph glyph-name="j" unicode="j" horiz-adv-x="241" 
d="M-60 -196c-56 0 -98 13 -126 41l46 75c15 -19 39 -30 65 -30c40 0 69 25 82 82l114 511h105l-114 -511c-23 -103 -72 -168 -172 -168zM193 542c-34 0 -59 25 -59 56c0 47 40 74 73 74c34 0 59 -26 59 -56c0 -47 -40 -74 -73 -74z" />
    <glyph glyph-name="k" unicode="k" horiz-adv-x="526" 
d="M466 0h-127l-106 202l-86 -72l-28 -130h-105l147 667h105l-91 -411l259 227h135l-250 -219z" />
    <glyph glyph-name="l" unicode="l" horiz-adv-x="241" 
d="M119 0h-105l147 667h105z" />
    <glyph glyph-name="l.alt1" horiz-adv-x="285" 
d="M166 -12c-81 0 -130 34 -130 94c0 11 1 22 3 34l122 551h105l-116 -525c-2 -9 -3 -16 -3 -22c0 -24 20 -39 49 -39c15 0 32 6 40 13l6 -84c-15 -12 -42 -22 -76 -22z" />
    <glyph glyph-name="m" unicode="m" horiz-adv-x="833" 
d="M711 0h-105l68 308c1 5 4 17 4 30c0 40 -35 64 -75 64c-42 0 -85 -32 -114 -65l-74 -337h-105l68 308c2 11 4 19 4 35c-1 32 -27 59 -76 59c-42 0 -84 -33 -113 -65l-74 -337h-105l107 483h105l-15 -66c27 30 79 78 149 78c91 0 128 -65 128 -85v-2c38 47 96 87 169 87
c70 0 133 -43 133 -122c0 -12 -3 -30 -5 -40z" />
    <glyph glyph-name="n" unicode="n" 
d="M445 0h-105l67 303c2 9 5 20 5 30c0 49 -39 69 -81 69c-58 0 -106 -33 -138 -65l-74 -337h-105l107 483h105l-15 -66c40 38 95 78 165 78c90 0 148 -46 148 -122c0 -9 -3 -30 -5 -40z" />
    <glyph glyph-name="o" unicode="o" horiz-adv-x="573" 
d="M264 -12c-147 0 -232 90 -232 217c0 151 115 290 275 290c147 0 232 -91 232 -218c0 -151 -115 -289 -275 -289zM267 81c96 0 163 93 163 192c0 79 -47 129 -126 129c-96 0 -163 -94 -163 -192c0 -79 47 -129 126 -129z" />
    <glyph glyph-name="p" unicode="p" horiz-adv-x="578" 
d="M294 -12c-70 0 -128 31 -160 81l-56 -253h-105l148 667h105l-15 -64c41 49 91 76 152 76c109 0 185 -73 185 -200c0 -150 -94 -307 -254 -307zM278 81c95 0 160 93 160 193c0 78 -50 128 -119 128c-52 0 -98 -31 -127 -69l-41 -187c22 -37 68 -65 127 -65z" />
    <glyph glyph-name="q" unicode="q" horiz-adv-x="578" 
d="M286 495c69 0 128 -31 160 -81l15 69h105l-148 -667h-105l55 248c-40 -49 -90 -76 -151 -76c-110 0 -185 72 -185 199c0 151 93 308 254 308zM302 402c-95 0 -160 -93 -160 -194c0 -78 49 -127 119 -127c51 0 98 30 126 68l42 187c-22 37 -68 66 -127 66z" />
    <glyph glyph-name="r" unicode="r" horiz-adv-x="347" 
d="M119 0h-105l107 483h105l-16 -68c45 50 96 79 175 79l-23 -105c-7 2 -24 5 -43 5c-50 0 -99 -31 -128 -67z" />
    <glyph glyph-name="s" unicode="s" horiz-adv-x="472" 
d="M214 -12c-88 0 -168 30 -218 86l62 73c27 -36 94 -76 165 -76c54 0 87 31 87 65c0 77 -249 61 -249 202c0 82 68 157 192 157c82 0 156 -33 196 -79l-56 -69c-23 32 -83 64 -143 64c-54 0 -85 -25 -85 -57c0 -71 250 -57 250 -201c0 -89 -74 -165 -201 -165z" />
    <glyph glyph-name="t" unicode="t" horiz-adv-x="319" 
d="M187 -12c-78 0 -129 31 -129 98c0 6 1 20 3 31l61 275h-80l21 91h80l29 132h105l-29 -132h98l-21 -91h-98l-55 -249c-1 -5 -2 -12 -2 -19c0 -27 16 -43 48 -43c15 0 32 6 40 13l6 -84c-18 -14 -47 -22 -77 -22z" />
    <glyph glyph-name="u" unicode="u" 
d="M121 483h105l-67 -302c-2 -9 -5 -21 -5 -31c0 -49 39 -69 90 -69c49 0 97 34 129 66l74 336h105l-107 -483h-105l15 66c-40 -38 -95 -78 -165 -78c-90 0 -148 46 -148 122c0 9 3 30 5 40z" />
    <glyph glyph-name="v" unicode="v" horiz-adv-x="503" 
d="M254 0h-113l-90 483h109l60 -362l222 362h116z" />
    <glyph glyph-name="w" unicode="w" horiz-adv-x="754" 
d="M545 0h-110l-34 354l-190 -354h-110l-43 483h105l24 -351l193 351h93l36 -351l180 351h113z" />
    <glyph glyph-name="x" unicode="x" horiz-adv-x="496" 
d="M437 0h-114l-86 178l-165 -178h-121l231 248l-114 235h114l78 -164l151 164h122l-220 -235z" />
    <glyph glyph-name="y" unicode="y" horiz-adv-x="503" 
d="M-47 -185l35 92c11 -5 30 -8 48 -8c26 0 45 10 65 40l38 58l-88 486h109l60 -362l222 362h116l-360 -570c-49 -78 -99 -109 -172 -109c-25 0 -53 4 -73 11z" />
    <glyph glyph-name="y.alt1" 
d="M198 -196c-100 0 -173 25 -226 83l64 70c31 -46 97 -67 161 -67c87 0 129 50 148 135l12 55c-43 -39 -93 -76 -164 -76c-82 0 -148 38 -148 121c0 9 1 20 5 41l71 317h105l-64 -287c-3 -13 -4 -25 -4 -31c0 -54 44 -68 89 -68c50 0 97 32 129 65l71 321h105l-100 -450
c-33 -145 -115 -229 -254 -229z" />
    <glyph glyph-name="z" unicode="z" horiz-adv-x="476" 
d="M375 0h-383l17 79l304 312h-234l20 92h379l-17 -77l-307 -315h241z" />
    <glyph glyph-name="A.smcp" unicode="&#xf761;" horiz-adv-x="586" 
d="M294 550h132l106 -550h-120l-20 103h-257l-64 -103h-125zM381 198l-43 240l-150 -240h193z" />
    <glyph glyph-name="B.smcp" unicode="&#xf762;" horiz-adv-x="572" 
d="M324 0h-310l121 550h260c96 0 166 -46 166 -126c0 -66 -46 -134 -125 -146c49 -17 80 -63 80 -110c0 -95 -70 -168 -192 -168zM144 95h174c49 0 87 32 87 77c0 34 -25 61 -70 61h-161zM356 328h10c50 0 78 36 78 73s-32 54 -72 54h-148l-29 -127h161z" />
    <glyph glyph-name="C.smcp" unicode="&#xf763;" horiz-adv-x="584" 
d="M314 -12c-165 0 -276 103 -276 250c0 176 147 324 329 324c110 0 195 -59 229 -142l-97 -37c-23 49 -77 83 -136 83c-111 0 -212 -98 -212 -220c0 -99 71 -162 168 -162c57 0 107 26 144 71l81 -52c-52 -66 -131 -115 -230 -115z" />
    <glyph glyph-name="D.smcp" unicode="&#xf764;" horiz-adv-x="621" 
d="M245 0h-231l121 550h190c154 0 271 -95 271 -236c0 -142 -97 -314 -351 -314zM253 95h12c148 0 219 111 219 211c0 89 -66 149 -172 149h-89l-79 -360h109z" />
    <glyph glyph-name="E.smcp" unicode="&#xf765;" horiz-adv-x="515" 
d="M415 0h-401l121 550h401l-21 -95h-291l-29 -127h286l-21 -95h-286l-30 -138h291z" />
    <glyph glyph-name="F.smcp" unicode="&#xf766;" horiz-adv-x="501" 
d="M123 0h-109l121 550h401l-21 -95h-291l-29 -127h286l-21 -95h-286z" />
    <glyph glyph-name="G.smcp" unicode="&#xf767;" horiz-adv-x="620" 
d="M318 -12c-156 0 -280 95 -280 247c0 171 138 327 330 327c103 0 189 -53 228 -125l-96 -45c-23 39 -75 74 -139 74c-121 0 -209 -106 -209 -222c0 -96 74 -160 171 -160c51 0 87 15 109 30l22 97h-148l20 89h256l-53 -240c-54 -41 -123 -72 -211 -72z" />
    <glyph glyph-name="G.smcp.alt1" horiz-adv-x="636" 
d="M315 -12c-161 0 -277 100 -277 248c0 188 156 326 329 326c103 0 187 -49 232 -127l-97 -46c-25 47 -81 76 -139 76c-111 0 -212 -94 -212 -218c0 -101 75 -164 172 -164c75 0 145 49 167 126h-184l19 90h295c-23 -189 -151 -311 -305 -311z" />
    <glyph glyph-name="H.smcp" unicode="&#xf768;" horiz-adv-x="644" 
d="M522 0h-109l52 234h-290l-52 -234h-109l121 550h109l-48 -221h290l48 221h109z" />
    <glyph glyph-name="I.smcp" unicode="&#xf769;" horiz-adv-x="245" 
d="M123 0h-109l121 550h109z" />
    <glyph glyph-name="J.smcp" unicode="&#xf76a;" horiz-adv-x="428" 
d="M134 -12c-75 0 -134 26 -168 73l65 75c19 -32 51 -52 94 -52c64 0 99 39 112 98l81 368h109l-83 -377c-29 -132 -98 -185 -210 -185z" />
    <glyph glyph-name="K.smcp" unicode="&#xf76b;" horiz-adv-x="552" 
d="M492 0h-131l-141 228l-58 -52l-39 -176h-109l121 550h109l-54 -248l270 248h135l-292 -260z" />
    <glyph glyph-name="L.smcp" unicode="&#xf76c;" horiz-adv-x="464" 
d="M376 0h-362l121 550h109l-100 -455h252z" />
    <glyph glyph-name="M.smcp" unicode="&#xf76d;" horiz-adv-x="740" 
d="M618 0h-109l87 393l-255 -393h-49l-81 393l-88 -393h-109l121 550h145l75 -365l236 365h148z" />
    <glyph glyph-name="N.smcp" unicode="&#xf76e;" horiz-adv-x="641" 
d="M519 0h-111l-197 403l-88 -403h-109l121 550h116l194 -392l86 392h109z" />
    <glyph glyph-name="O.smcp" unicode="&#xf76f;" horiz-adv-x="658" 
d="M311 -12c-166 0 -273 104 -273 252c0 171 137 322 320 322c166 0 273 -105 273 -252c0 -171 -137 -322 -320 -322zM314 84c122 0 205 106 205 219c0 91 -60 163 -163 163c-123 0 -206 -107 -206 -219c0 -92 61 -163 164 -163z" />
    <glyph glyph-name="P.smcp" unicode="&#xf770;" horiz-adv-x="540" 
d="M123 0h-109l121 550h230c113 0 184 -63 184 -153c0 -102 -79 -198 -208 -198h-174zM188 294h149c61 0 99 43 99 95c0 41 -31 66 -83 66h-129z" />
    <glyph glyph-name="Q.smcp" unicode="&#xf771;" horiz-adv-x="658" 
d="M311 -12c-166 0 -273 104 -273 252c0 171 137 322 320 322c166 0 273 -105 273 -252c0 -100 -47 -193 -122 -253l27 -40l-77 -49l-29 43c-36 -14 -76 -23 -119 -23zM314 84c22 0 43 3 62 10l-51 78l77 50l52 -80c41 42 65 100 65 161c0 91 -60 163 -163 163
c-123 0 -206 -107 -206 -219c0 -92 61 -163 164 -163z" />
    <glyph glyph-name="R.smcp" unicode="&#xf772;" horiz-adv-x="561" 
d="M468 0h-124l-80 199h-97l-44 -199h-109l121 550h231c115 0 184 -65 184 -152c0 -95 -63 -180 -177 -192zM327 294h7c65 0 102 43 102 94c0 40 -31 67 -80 67h-132l-36 -161h139z" />
    <glyph glyph-name="S.smcp" unicode="&#xf773;" horiz-adv-x="511" 
d="M245 -12c-105 0 -198 32 -251 96l69 81c37 -49 108 -81 189 -81c75 0 99 38 99 75c0 90 -280 66 -280 234c0 86 91 169 216 169c96 0 180 -39 225 -92l-68 -76c-33 42 -103 72 -162 72c-56 0 -96 -30 -96 -69c0 -85 280 -59 280 -234c0 -86 -69 -175 -221 -175z" />
    <glyph glyph-name="T.smcp" unicode="&#xf774;" horiz-adv-x="480" 
d="M240 0h-109l100 455h-162l21 95h434l-21 -95h-163z" />
    <glyph glyph-name="U.smcp" unicode="&#xf775;" horiz-adv-x="636" 
d="M306 -12c-163 0 -250 75 -250 184c0 12 2 29 5 43l74 335h110l-72 -326c-2 -11 -3 -22 -3 -31c0 -71 53 -109 133 -109c84 0 130 51 150 140l72 326h110l-74 -334c-32 -145 -102 -228 -255 -228z" />
    <glyph glyph-name="V.smcp" unicode="&#xf776;" horiz-adv-x="586" 
d="M305 0h-132l-106 550h122l74 -431l266 431h124z" />
    <glyph glyph-name="W.smcp" unicode="&#xf777;" horiz-adv-x="783" 
d="M559 0h-114l-22 389l-194 -389h-114l-44 550h120l18 -405l205 405h87l25 -406l198 406h122z" />
    <glyph glyph-name="X.smcp" unicode="&#xf778;" horiz-adv-x="577" 
d="M521 0h-127l-112 209l-204 -209h-131l278 282l-144 268h127l102 -195l188 195h131l-262 -267z" />
    <glyph glyph-name="Y.smcp" unicode="&#xf779;" horiz-adv-x="557" 
d="M280 0h-108l50 229l-155 321h122l106 -229l203 229h126l-294 -321z" />
    <glyph glyph-name="Z.smcp" unicode="&#xf77a;" horiz-adv-x="520" 
d="M429 0h-446l17 80l371 374h-288l21 96h439l-17 -80l-370 -374h294z" />
    <glyph glyph-name="Aacute" unicode="&#xc1;" horiz-adv-x="673" 
d="M617 0h-127l-21 128h-306l-77 -128h-139l409 667h146zM459 231l-50 318l-190 -318h240zM652 867l-197 -144h-77l172 144h102z" />
    <glyph glyph-name="Abreve" unicode="&#x102;" horiz-adv-x="673" 
d="M617 0h-127l-21 128h-306l-77 -128h-139l409 667h146zM459 231l-50 318l-190 -318h240zM626 789c-52 -54 -122 -88 -194 -88c-71 0 -128 34 -157 88l55 40c20 -40 58 -66 113 -66c53 0 103 25 142 66z" />
    <glyph glyph-name="Acircumflex" unicode="&#xc2;" horiz-adv-x="673" 
d="M583 723h-65l-56 96l-96 -96h-68l125 144h96zM617 0h-127l-21 128h-306l-77 -128h-139l409 667h146zM459 231l-50 318l-190 -318h240z" />
    <glyph glyph-name="Adieresis" unicode="&#xc4;" horiz-adv-x="673" 
d="M616 781c0 -34 -31 -65 -66 -65c-29 0 -52 23 -52 52c0 35 32 65 66 65c30 0 52 -22 52 -52zM407 781c0 -34 -31 -65 -66 -65c-29 0 -52 23 -52 52c0 35 32 65 66 65c30 0 52 -22 52 -52zM617 0h-127l-21 128h-306l-77 -128h-139l409 667h146zM459 231l-50 318l-190 -318
h240z" />
    <glyph glyph-name="Agrave" unicode="&#xc0;" horiz-adv-x="673" 
d="M617 0h-127l-21 128h-306l-77 -128h-139l409 667h146zM459 231l-50 318l-190 -318h240zM502 723h-75l-133 144h100z" />
    <glyph glyph-name="Amacron" unicode="&#x100;" horiz-adv-x="673" 
d="M617 0h-127l-21 128h-306l-77 -128h-139l409 667h146zM459 231l-50 318l-190 -318h240zM624 733h-362l14 62h362z" />
    <glyph glyph-name="Aogonek" unicode="&#x104;" horiz-adv-x="673" 
d="M609 -102l38 -31c-21 -30 -50 -53 -93 -53c-48 0 -88 25 -88 74c0 43 23 82 65 112h-41l-21 128h-306l-77 -128h-139l409 667h146l115 -667c-60 -27 -97 -61 -97 -103c0 -23 16 -36 39 -36c21 0 38 14 50 37zM459 231l-50 318l-190 -318h240z" />
    <glyph glyph-name="Aring" unicode="&#xc5;" horiz-adv-x="673" 
d="M617 0h-127l-21 128h-306l-77 -128h-139l409 667h146zM459 231l-50 318l-190 -318h240zM447 689c-55 0 -93 38 -93 93c0 60 52 112 112 112c55 0 93 -38 93 -93c0 -61 -51 -112 -112 -112zM451 740c31 0 57 25 57 56c0 28 -18 47 -46 47c-30 0 -57 -26 -57 -56
c0 -28 19 -47 46 -47z" />
    <glyph glyph-name="Atilde" unicode="&#xc3;" horiz-adv-x="673" 
d="M617 0h-127l-21 128h-306l-77 -128h-139l409 667h146zM459 231l-50 318l-190 -318h240zM511 721c-72 0 -70 78 -120 78c-23 0 -41 -22 -52 -72h-58c16 82 51 134 118 134c72 0 70 -78 120 -78c23 0 40 22 52 72h59c-18 -82 -52 -134 -119 -134z" />
    <glyph glyph-name="uni1EA0" unicode="&#x1ea0;" horiz-adv-x="673" 
d="M617 0h-127l-21 128h-306l-77 -128h-139l409 667h146zM459 231l-50 318l-190 -318h240zM310 -126c0 -35 -32 -65 -67 -65c-30 0 -52 22 -52 52c0 35 31 66 66 66c30 0 53 -23 53 -53z" />
    <glyph glyph-name="uni1EA2" unicode="&#x1ea2;" horiz-adv-x="673" 
d="M617 0h-127l-21 128h-306l-77 -128h-139l409 667h146zM459 231l-50 318l-190 -318h240zM409 755l-35 18c16 29 44 47 78 47c35 0 71 -21 71 -61c0 -22 -10 -45 -26 -62h-51c21 18 32 35 32 57c0 17 -14 28 -30 28c-15 0 -28 -8 -39 -27z" />
    <glyph glyph-name="uni1EA4" unicode="&#x1ea4;" horiz-adv-x="673" 
d="M568 682h-65l-56 72l-96 -72h-68l125 108h96zM617 0h-127l-21 128h-306l-77 -128h-139l409 667h146zM459 231l-50 318l-190 -318h240zM817 844l-197 -108h-77l172 108h102z" />
    <glyph glyph-name="uni1EAC" unicode="&#x1eac;" horiz-adv-x="673" 
d="M617 0h-127l-21 128h-306l-77 -128h-139l409 667h146zM459 231l-50 318l-190 -318h240zM582 723h-65l-56 96l-96 -96h-68l125 144h96zM310 -126c0 -35 -32 -65 -67 -65c-30 0 -52 22 -52 52c0 35 31 66 66 66c30 0 53 -23 53 -53z" />
    <glyph glyph-name="uni1EA6" unicode="&#x1ea6;" horiz-adv-x="673" 
d="M569 682h-65l-56 72l-96 -72h-68l125 108h96zM617 0h-127l-21 128h-306l-77 -128h-139l409 667h146zM459 231l-50 318l-190 -318h240zM337 736h-75l-133 108h100z" />
    <glyph glyph-name="uni1EA8" unicode="&#x1ea8;" horiz-adv-x="673" 
d="M569 682h-65l-56 72l-96 -72h-68l125 108h96zM617 0h-127l-21 128h-306l-77 -128h-139l409 667h146zM459 231l-50 318l-190 -318h240zM512 800l-35 13c16 22 44 35 78 35c35 0 71 -15 71 -45c0 -17 -10 -34 -26 -47h-51c21 14 32 26 32 43c0 13 -14 21 -30 21
c-15 0 -28 -6 -39 -20z" />
    <glyph glyph-name="uni1EAE" unicode="&#x1eae;" horiz-adv-x="673" 
d="M617 0h-127l-21 128h-306l-77 -128h-139l409 667h146zM459 231l-50 318l-190 -318h240zM646 837l-197 -90h-77l172 90h102zM617 744c-52 -40 -122 -66 -194 -66c-71 0 -128 26 -157 66l55 30c20 -30 58 -49 113 -49c53 0 103 19 142 49z" />
    <glyph glyph-name="uni1EAA" unicode="&#x1eaa;" horiz-adv-x="673" 
d="M568 678h-65l-56 48l-96 -48h-68l125 72h96zM617 0h-127l-21 128h-306l-77 -128h-139l409 667h146zM459 231l-50 318l-190 -318h240zM511 757c-72 0 -70 39 -120 39c-23 0 -41 -11 -52 -36h-58c16 41 51 67 118 67c72 0 70 -39 120 -39c23 0 40 11 52 36h59
c-18 -41 -52 -67 -119 -67z" />
    <glyph glyph-name="uni1EB0" unicode="&#x1eb0;" horiz-adv-x="673" 
d="M617 0h-127l-21 128h-306l-77 -128h-139l409 667h146zM459 231l-50 318l-190 -318h240zM522 753h-75l-133 90h100zM617 744c-52 -40 -122 -66 -194 -66c-71 0 -128 26 -157 66l55 30c20 -30 58 -49 113 -49c53 0 103 19 142 49z" />
    <glyph glyph-name="uni1EB2" unicode="&#x1eb2;" horiz-adv-x="673" 
d="M617 0h-127l-21 128h-306l-77 -128h-139l409 667h146zM459 231l-50 318l-190 -318h240zM414 783l-35 11c16 18 44 30 78 30c35 0 71 -13 71 -38c0 -14 -10 -29 -26 -39h-51c21 11 32 22 32 35c0 11 -14 18 -30 18c-15 0 -28 -5 -39 -17zM617 744
c-52 -40 -122 -66 -194 -66c-71 0 -128 26 -157 66l55 30c20 -30 58 -49 113 -49c53 0 103 19 142 49z" />
    <glyph glyph-name="uni1EB4" unicode="&#x1eb4;" horiz-adv-x="673" 
d="M617 0h-127l-21 128h-306l-77 -128h-139l409 667h146zM459 231l-50 318l-190 -318h240zM614 729c-52 -32 -122 -51 -194 -51c-71 0 -128 19 -157 51l55 23c20 -23 58 -38 113 -38c53 0 103 14 142 38zM511 759c-72 0 -70 39 -120 39c-23 0 -41 -11 -52 -36h-58
c16 41 51 67 118 67c72 0 70 -39 120 -39c23 0 40 11 52 36h59c-18 -41 -52 -67 -119 -67z" />
    <glyph glyph-name="uni1EB6" unicode="&#x1eb6;" horiz-adv-x="673" 
d="M617 0h-127l-21 128h-306l-77 -128h-139l409 667h146zM459 231l-50 318l-190 -318h240zM310 -126c0 -35 -32 -65 -67 -65c-30 0 -52 22 -52 52c0 35 31 66 66 66c30 0 53 -23 53 -53zM625 789c-52 -54 -122 -88 -194 -88c-71 0 -128 34 -157 88l55 40
c20 -40 58 -66 113 -66c53 0 103 25 142 66z" />
    <glyph glyph-name="AE" unicode="&#xc6;" horiz-adv-x="959" 
d="M858 0h-457l28 128h-243l-105 -128h-137l557 667h504l-23 -103h-340l-38 -173h333l-23 -103h-333l-41 -185h340zM452 231l68 312l-255 -312h187z" />
    <glyph glyph-name="AEacute" unicode="&#x1fc;" horiz-adv-x="959" 
d="M831 867l-197 -144h-77l172 144h102zM858 0h-457l28 128h-243l-105 -128h-137l557 667h504l-23 -103h-340l-38 -173h333l-23 -103h-333l-41 -185h340zM452 231l68 312l-255 -312h187z" />
    <glyph glyph-name="uni1E02" unicode="&#x1e02;" horiz-adv-x="648" 
d="M357 0h-340l147 667h304c108 0 176 -70 176 -157c0 -92 -71 -168 -153 -176c60 -16 97 -76 97 -136c0 -95 -68 -198 -231 -198zM411 391c81 0 108 52 108 99c0 42 -37 74 -82 74h-179l-38 -173h191zM351 103c77 0 119 50 119 105c0 47 -33 80 -88 80h-185l-41 -185h195z
M498 780c0 -35 -32 -65 -67 -65c-30 0 -52 22 -52 52c0 35 31 66 66 66c30 0 53 -23 53 -53z" />
    <glyph glyph-name="Cacute" unicode="&#x106;" horiz-adv-x="682" 
d="M702 872l-197 -144h-77l172 144h102zM370 -12c-181 0 -319 116 -319 296c0 238 181 394 382 394c150 0 244 -77 286 -175l-112 -40c-32 74 -100 111 -180 111c-133 0 -254 -117 -254 -283c0 -116 79 -199 204 -199c59 0 122 28 166 76l89 -62
c-74 -88 -177 -118 -262 -118z" />
    <glyph glyph-name="Ccedilla" unicode="&#xc7;" horiz-adv-x="682" 
d="M304 -194c-50 0 -92 18 -114 40l31 43c23 -23 54 -35 84 -35c35 0 55 16 55 40c0 15 -12 26 -33 26c-12 0 -23 -5 -32 -15l-35 23l39 67c-145 26 -248 133 -248 289c0 238 181 394 382 394c150 0 244 -77 286 -175l-112 -40c-32 74 -100 111 -180 111
c-133 0 -254 -117 -254 -283c0 -116 79 -199 204 -199c59 0 122 28 166 76l89 -62c-74 -88 -177 -118 -262 -118c-7 0 -14 0 -20 1l-26 -42c11 8 20 11 32 11c34 0 59 -23 59 -61c0 -55 -47 -91 -111 -91z" />
    <glyph glyph-name="Ccircumflex" unicode="&#x108;" horiz-adv-x="682" 
d="M631 723h-65l-56 96l-96 -96h-68l125 144h96zM370 -12c-181 0 -319 116 -319 296c0 238 181 394 382 394c150 0 244 -77 286 -175l-112 -40c-32 74 -100 111 -180 111c-133 0 -254 -117 -254 -283c0 -116 79 -199 204 -199c59 0 122 28 166 76l89 -62
c-74 -88 -177 -118 -262 -118z" />
    <glyph glyph-name="Cdotaccent" unicode="&#x10a;" horiz-adv-x="682" 
d="M370 -12c-181 0 -319 116 -319 296c0 238 181 394 382 394c150 0 244 -77 286 -175l-112 -40c-32 74 -100 111 -180 111c-133 0 -254 -117 -254 -283c0 -116 79 -199 204 -199c59 0 122 28 166 76l89 -62c-74 -88 -177 -118 -262 -118zM559 780c0 -35 -32 -65 -67 -65
c-30 0 -52 22 -52 52c0 35 31 66 66 66c30 0 53 -23 53 -53z" />
    <glyph glyph-name="Ccaron" unicode="&#x10c;" horiz-adv-x="682" 
d="M539 723h-96l-64 144h64l56 -97l96 97h69zM370 -12c-181 0 -319 116 -319 296c0 238 181 394 382 394c150 0 244 -77 286 -175l-112 -40c-32 74 -100 111 -180 111c-133 0 -254 -117 -254 -283c0 -116 79 -199 204 -199c59 0 122 28 166 76l89 -62
c-74 -88 -177 -118 -262 -118z" />
    <glyph glyph-name="Dcaron" unicode="&#x10e;" horiz-adv-x="710" 
d="M513 723h-96l-64 144h64l56 -97l96 97h69zM264 0h-247l147 667h243c148 0 284 -116 284 -286c0 -178 -124 -381 -427 -381zM281 103h4c176 0 284 125 284 271c0 108 -77 190 -184 190h-127l-102 -461h125z" />
    <glyph glyph-name="Dcroat" unicode="&#x110;" horiz-adv-x="736" 
d="M290 0h-247l63 286h-88l21 95h88l63 286h243c148 0 284 -116 284 -286c0 -178 -124 -381 -427 -381zM313 103c175 1 282 125 282 271c0 108 -77 190 -184 190h-127l-41 -183h158l-21 -95h-158l-40 -183h131z" />
    <glyph glyph-name="uni1E0A" unicode="&#x1e0a;" horiz-adv-x="710" 
d="M264 0h-247l147 667h243c148 0 284 -116 284 -286c0 -178 -124 -381 -427 -381zM281 103h4c176 0 284 125 284 271c0 108 -77 190 -184 190h-127l-102 -461h125zM535 780c0 -35 -32 -65 -67 -65c-30 0 -52 22 -52 52c0 35 31 66 66 66c30 0 53 -23 53 -53z" />
    <glyph glyph-name="Eacute" unicode="&#xc9;" horiz-adv-x="577" 
d="M616 867l-197 -144h-77l172 144h102zM474 0h-457l147 667h457l-23 -103h-340l-38 -173h333l-23 -103h-333l-41 -185h340z" />
    <glyph glyph-name="Ebreve" unicode="&#x114;" horiz-adv-x="577" 
d="M474 0h-457l147 667h457l-23 -103h-340l-38 -173h333l-23 -103h-333l-41 -185h340zM590 789c-52 -54 -122 -88 -194 -88c-71 0 -128 34 -157 88l55 40c20 -40 58 -66 113 -66c53 0 103 25 142 66z" />
    <glyph glyph-name="Ecircumflex" unicode="&#xca;" horiz-adv-x="577" 
d="M547 723h-65l-56 96l-96 -96h-68l125 144h96zM474 0h-457l147 667h457l-23 -103h-340l-38 -173h333l-23 -103h-333l-41 -185h340z" />
    <glyph glyph-name="Edieresis" unicode="&#xcb;" horiz-adv-x="577" 
d="M580 781c0 -34 -31 -65 -66 -65c-29 0 -52 23 -52 52c0 35 32 65 66 65c30 0 52 -22 52 -52zM371 781c0 -34 -31 -65 -66 -65c-29 0 -52 23 -52 52c0 35 32 65 66 65c30 0 52 -22 52 -52zM474 0h-457l147 667h457l-23 -103h-340l-38 -173h333l-23 -103h-333l-41 -185h340
z" />
    <glyph glyph-name="Edotaccent" unicode="&#x116;" horiz-adv-x="577" 
d="M474 0h-457l147 667h457l-23 -103h-340l-38 -173h333l-23 -103h-333l-41 -185h340zM478 784c0 -35 -32 -65 -67 -65c-30 0 -52 22 -52 52c0 35 31 66 66 66c30 0 53 -23 53 -53z" />
    <glyph glyph-name="Egrave" unicode="&#xc8;" horiz-adv-x="577" 
d="M474 0h-457l147 667h457l-23 -103h-340l-38 -173h333l-23 -103h-333l-41 -185h340zM467 723h-75l-133 144h100z" />
    <glyph glyph-name="Emacron" unicode="&#x112;" horiz-adv-x="577" 
d="M474 0h-457l147 667h457l-23 -103h-340l-38 -173h333l-23 -103h-333l-41 -185h340zM588 733h-362l14 62h362z" />
    <glyph glyph-name="Eogonek" unicode="&#x118;" horiz-adv-x="577" 
d="M474 0c-60 -27 -97 -61 -97 -103c0 -23 16 -36 39 -36c21 0 38 14 50 37l38 -31c-21 -30 -50 -53 -93 -53c-48 0 -88 25 -88 74c0 43 23 82 65 112h-371l147 667h457l-23 -103h-340l-38 -173h333l-23 -103h-333l-41 -185h340z" />
    <glyph glyph-name="Ecaron" unicode="&#x11a;" horiz-adv-x="577" 
d="M454 723h-96l-64 144h64l56 -97l96 97h69zM474 0h-457l147 667h457l-23 -103h-340l-38 -173h333l-23 -103h-333l-41 -185h340z" />
    <glyph glyph-name="uni1EB8" unicode="&#x1eb8;" horiz-adv-x="577" 
d="M474 0h-457l147 667h457l-23 -103h-340l-38 -173h333l-23 -103h-333l-41 -185h340zM275 -126c0 -35 -32 -65 -67 -65c-30 0 -52 22 -52 52c0 35 31 66 66 66c30 0 53 -23 53 -53z" />
    <glyph glyph-name="uni1EBA" unicode="&#x1eba;" horiz-adv-x="577" 
d="M474 0h-457l147 667h457l-23 -103h-340l-38 -173h333l-23 -103h-333l-41 -185h340zM374 755l-35 18c16 29 44 47 78 47c35 0 71 -21 71 -61c0 -22 -10 -45 -26 -62h-51c21 18 32 35 32 57c0 17 -14 28 -30 28c-15 0 -28 -8 -39 -27z" />
    <glyph glyph-name="uni1EBC" unicode="&#x1ebc;" horiz-adv-x="577" 
d="M474 0h-457l147 667h457l-23 -103h-340l-38 -173h333l-23 -103h-333l-41 -185h340zM477 721c-72 0 -70 78 -120 78c-23 0 -41 -22 -52 -72h-58c16 82 51 134 118 134c72 0 70 -78 120 -78c23 0 40 22 52 72h59c-18 -82 -52 -134 -119 -134z" />
    <glyph glyph-name="uni1EBE" unicode="&#x1ebe;" horiz-adv-x="577" 
d="M533 682h-65l-56 72l-96 -72h-68l125 108h96zM782 844l-197 -108h-77l172 108h102zM474 0h-457l147 667h457l-23 -103h-340l-38 -173h333l-23 -103h-333l-41 -185h340z" />
    <glyph glyph-name="uni1EC0" unicode="&#x1ec0;" horiz-adv-x="577" 
d="M533 682h-65l-56 72l-96 -72h-68l125 108h96zM474 0h-457l147 667h457l-23 -103h-340l-38 -173h333l-23 -103h-333l-41 -185h340zM300 736h-75l-133 108h100z" />
    <glyph glyph-name="uni1EC2" unicode="&#x1ec2;" horiz-adv-x="577" 
d="M532 682h-65l-56 72l-96 -72h-68l125 108h96zM474 0h-457l147 667h457l-23 -103h-340l-38 -173h333l-23 -103h-333l-41 -185h340zM474 800l-35 13c16 22 44 35 78 35c35 0 71 -15 71 -45c0 -17 -10 -34 -26 -47h-51c21 14 32 26 32 43c0 13 -14 21 -30 21
c-15 0 -28 -6 -39 -20z" />
    <glyph glyph-name="uni1EC4" unicode="&#x1ec4;" horiz-adv-x="577" 
d="M536 678h-65l-56 48l-96 -48h-68l125 72h96zM474 0h-457l147 667h457l-23 -103h-340l-38 -173h333l-23 -103h-333l-41 -185h340zM477 757c-72 0 -70 39 -120 39c-23 0 -41 -11 -52 -36h-58c16 41 51 67 118 67c72 0 70 -39 120 -39c23 0 40 11 52 36h59
c-18 -41 -52 -67 -119 -67z" />
    <glyph glyph-name="uni1EC6" unicode="&#x1ec6;" horiz-adv-x="577" 
d="M547 723h-65l-56 96l-96 -96h-68l125 144h96zM474 0h-457l147 667h457l-23 -103h-340l-38 -173h333l-23 -103h-333l-41 -185h340zM275 -126c0 -35 -32 -65 -67 -65c-30 0 -52 22 -52 52c0 35 31 66 66 66c30 0 53 -23 53 -53z" />
    <glyph glyph-name="uni1E1E" unicode="&#x1e1e;" horiz-adv-x="562" 
d="M476 780c0 -35 -32 -65 -67 -65c-30 0 -52 22 -52 52c0 35 31 66 66 66c30 0 53 -23 53 -53zM134 0h-117l147 667h457l-23 -103h-340l-38 -173h333l-23 -103h-333z" />
    <glyph glyph-name="Gcircumflex" unicode="&#x11c;" horiz-adv-x="717" 
d="M637 723h-65l-56 96l-96 -96h-68l125 144h96zM370 -12c-182 0 -319 117 -319 296c0 227 170 394 392 394c136 0 227 -72 270 -157l-107 -47c-28 61 -99 100 -179 100c-134 0 -254 -120 -254 -283c0 -115 78 -199 204 -199c64 0 114 27 151 59l23 104h-199l23 103h316
l-56 -253c-67 -74 -159 -117 -265 -117z" />
    <glyph glyph-name="Gbreve" unicode="&#x11e;" horiz-adv-x="717" 
d="M370 -12c-182 0 -319 117 -319 296c0 227 170 394 392 394c136 0 227 -72 270 -157l-107 -47c-28 61 -99 100 -179 100c-134 0 -254 -120 -254 -283c0 -115 78 -199 204 -199c64 0 114 27 151 59l23 104h-199l23 103h316l-56 -253c-67 -74 -159 -117 -265 -117zM681 789
c-52 -54 -122 -88 -194 -88c-71 0 -128 34 -157 88l55 40c20 -40 58 -66 113 -66c53 0 103 25 142 66z" />
    <glyph glyph-name="Gdotaccent" unicode="&#x120;" horiz-adv-x="717" 
d="M370 -12c-182 0 -319 117 -319 296c0 227 170 394 392 394c136 0 227 -72 270 -157l-107 -47c-28 61 -99 100 -179 100c-134 0 -254 -120 -254 -283c0 -115 78 -199 204 -199c64 0 114 27 151 59l23 104h-199l23 103h316l-56 -253c-67 -74 -159 -117 -265 -117zM566 780
c0 -35 -32 -65 -67 -65c-30 0 -52 22 -52 52c0 35 31 66 66 66c30 0 53 -23 53 -53z" />
    <glyph glyph-name="Gcommaaccent" unicode="&#x122;" horiz-adv-x="717" 
d="M366 -121c0 -59 -50 -124 -111 -154l-32 33c32 15 67 44 78 73h-8c-23 0 -43 17 -43 46c0 33 30 60 62 60c29 0 54 -20 54 -58zM370 -12c-182 0 -319 117 -319 296c0 227 170 394 392 394c136 0 227 -72 270 -157l-107 -47c-28 61 -99 100 -179 100
c-134 0 -254 -120 -254 -283c0 -115 78 -199 204 -199c64 0 114 27 151 59l23 104h-199l23 103h316l-56 -253c-67 -74 -159 -117 -265 -117z" />
    <glyph glyph-name="Gbreve.alt1" horiz-adv-x="737" 
d="M674 789c-52 -54 -122 -88 -194 -88c-71 0 -128 34 -157 88l55 40c20 -40 58 -66 113 -66c53 0 103 25 142 66zM355 -12c-172 0 -304 118 -304 296c0 238 182 394 397 394c130 0 225 -74 265 -157l-107 -47c-28 61 -99 100 -173 100c-136 0 -260 -118 -260 -283
c0 -118 80 -199 197 -199c113 0 186 73 218 163h-236l23 103h359c-41 -239 -176 -370 -379 -370z" />
    <glyph glyph-name="Gcommaaccent.alt1" horiz-adv-x="737" 
d="M358 -121c0 -59 -50 -124 -111 -154l-32 33c32 15 67 44 78 73h-8c-23 0 -43 17 -43 46c0 33 30 60 62 60c29 0 54 -20 54 -58zM355 -12c-172 0 -304 118 -304 296c0 238 182 394 397 394c130 0 225 -74 265 -157l-107 -47c-28 61 -99 100 -173 100
c-136 0 -260 -118 -260 -283c0 -118 80 -199 197 -199c113 0 186 73 218 163h-236l23 103h359c-41 -239 -176 -370 -379 -370z" />
    <glyph glyph-name="Gcircumflex.alt1" horiz-adv-x="737" 
d="M631 723h-65l-56 96l-96 -96h-68l125 144h96zM355 -12c-172 0 -304 118 -304 296c0 238 182 394 397 394c130 0 225 -74 265 -157l-107 -47c-28 61 -99 100 -173 100c-136 0 -260 -118 -260 -283c0 -118 80 -199 197 -199c113 0 186 73 218 163h-236l23 103h359
c-41 -239 -176 -370 -379 -370z" />
    <glyph glyph-name="Gdotaccent.alt1" horiz-adv-x="737" 
d="M559 780c0 -35 -32 -65 -67 -65c-30 0 -52 22 -52 52c0 35 31 66 66 66c30 0 53 -23 53 -53zM355 -12c-172 0 -304 118 -304 296c0 238 182 394 397 394c130 0 225 -74 265 -157l-107 -47c-28 61 -99 100 -173 100c-136 0 -260 -118 -260 -283c0 -118 80 -199 197 -199
c113 0 186 73 218 163h-236l23 103h359c-41 -239 -176 -370 -379 -370z" />
    <glyph glyph-name="Hbar" unicode="&#x126;" horiz-adv-x="741" 
d="M607 0h-117l64 291h-347l-64 -291h-117l110 501h-70l14 62h70l23 104h117l-23 -104h347l23 104h117l-23 -104h69l-14 -62h-69zM230 394h347l23 107h-347z" />
    <glyph glyph-name="Hcircumflex" unicode="&#x124;" horiz-adv-x="723" 
d="M610 723h-65l-56 96l-96 -96h-68l125 144h96zM598 0h-117l64 291h-347l-64 -291h-117l147 667h117l-60 -273h347l60 273h117z" />
    <glyph glyph-name="uni1E22" unicode="&#x1e22;" horiz-adv-x="723" 
d="M598 0h-117l64 291h-347l-64 -291h-117l147 667h117l-60 -273h347l60 273h117zM537 780c0 -35 -32 -65 -67 -65c-30 0 -52 22 -52 52c0 35 31 66 66 66c30 0 53 -23 53 -53z" />
    <glyph glyph-name="Iacute" unicode="&#xcd;" horiz-adv-x="259" 
d="M134 0h-117l147 667h117zM446 867l-197 -144h-77l172 144h102z" />
    <glyph glyph-name="Ibreve" unicode="&#x12c;" horiz-adv-x="259" 
d="M134 0h-117l147 667h117zM420 789c-52 -54 -122 -88 -194 -88c-71 0 -128 34 -157 88l55 40c20 -40 58 -66 113 -66c53 0 103 25 142 66z" />
    <glyph glyph-name="Icircumflex" unicode="&#xce;" horiz-adv-x="259" 
d="M377 723h-65l-56 96l-96 -96h-68l125 144h96zM134 0h-117l147 667h117z" />
    <glyph glyph-name="Idieresis" unicode="&#xcf;" horiz-adv-x="259" 
d="M410 781c0 -34 -31 -65 -66 -65c-29 0 -52 23 -52 52c0 35 32 65 66 65c30 0 52 -22 52 -52zM201 781c0 -34 -31 -65 -66 -65c-29 0 -52 23 -52 52c0 35 32 65 66 65c30 0 52 -22 52 -52zM134 0h-117l147 667h117z" />
    <glyph glyph-name="Idotaccent" unicode="&#x130;" horiz-adv-x="259" 
d="M134 0h-117l147 667h117zM307 780c0 -35 -32 -65 -67 -65c-30 0 -52 22 -52 52c0 35 31 66 66 66c30 0 53 -23 53 -53z" />
    <glyph glyph-name="Igrave" unicode="&#xcc;" horiz-adv-x="259" 
d="M134 0h-117l147 667h117zM296 723h-75l-133 144h100z" />
    <glyph glyph-name="Imacron" unicode="&#x12a;" horiz-adv-x="259" 
d="M134 0h-117l147 667h117zM419 733h-362l14 62h362z" />
    <glyph glyph-name="Iogonek" unicode="&#x12e;" horiz-adv-x="259" 
d="M126 -102l38 -31c-21 -30 -50 -53 -93 -53c-48 0 -88 25 -88 74c0 43 23 82 65 112h-31l147 667h117l-147 -667c-60 -27 -97 -61 -97 -103c0 -23 16 -36 39 -36c21 0 38 14 50 37z" />
    <glyph glyph-name="Itilde" unicode="&#x128;" horiz-adv-x="259" 
d="M134 0h-117l147 667h117zM306 721c-72 0 -70 78 -120 78c-23 0 -41 -22 -52 -72h-58c16 82 51 134 118 134c72 0 70 -78 120 -78c23 0 40 22 52 72h59c-18 -82 -52 -134 -119 -134z" />
    <glyph glyph-name="uni1EC8" unicode="&#x1ec8;" horiz-adv-x="259" 
d="M134 0h-117l147 667h117zM203 755l-35 18c16 29 44 47 78 47c35 0 71 -21 71 -61c0 -22 -10 -45 -26 -62h-51c21 18 32 35 32 57c0 17 -14 28 -30 28c-15 0 -28 -8 -39 -27z" />
    <glyph glyph-name="uni1ECA" unicode="&#x1eca;" horiz-adv-x="259" 
d="M134 0h-117l147 667h117zM105 -126c0 -35 -32 -65 -67 -65c-30 0 -52 22 -52 52c0 35 31 66 66 66c30 0 53 -23 53 -53z" />
    <glyph glyph-name="IJ" unicode="&#x132;" horiz-adv-x="740" 
d="M134 0h-117l147 667h117zM421 -12c-75 0 -148 26 -188 79l65 86c23 -37 64 -61 115 -61c73 0 116 48 132 121l100 454h117l-100 -456c-34 -152 -112 -223 -241 -223z" />
    <glyph glyph-name="Jcircumflex" unicode="&#x134;" horiz-adv-x="481" 
d="M602 723h-65l-56 96l-96 -96h-68l125 144h96zM162 -12c-75 0 -148 26 -188 79l65 86c23 -37 64 -61 115 -61c73 0 116 48 132 121l100 454h117l-100 -456c-34 -152 -112 -223 -241 -223z" />
    <glyph glyph-name="Kcommaaccent" unicode="&#x136;" horiz-adv-x="621" 
d="M298 -121c0 -59 -50 -124 -111 -154l-32 33c32 15 67 44 78 73h-8c-23 0 -43 17 -43 46c0 33 30 60 62 60c29 0 54 -20 54 -58zM560 0h-137l-165 286l-77 -73l-47 -213h-117l147 667h117l-68 -308l322 308h152l-340 -315z" />
    <glyph glyph-name="Lacute" unicode="&#x139;" horiz-adv-x="517" 
d="M591 867l-197 -144h-77l172 144h102zM428 0h-411l147 667h117l-125 -564h294z" />
    <glyph glyph-name="Lcaron" unicode="&#x13d;" horiz-adv-x="517" 
d="M472 622c0 -59 -50 -124 -111 -154l-32 33c32 15 67 44 78 73h-8c-23 0 -43 17 -43 46c0 33 30 60 62 60c29 0 54 -20 54 -58zM428 0h-411l147 667h117l-125 -564h294z" />
    <glyph glyph-name="Lcommaaccent" unicode="&#x13b;" horiz-adv-x="517" 
d="M247 -121c0 -59 -50 -124 -111 -154l-32 33c32 15 67 44 78 73h-8c-23 0 -43 17 -43 46c0 33 30 60 62 60c29 0 54 -20 54 -58zM428 0h-411l147 667h117l-125 -564h294z" />
    <glyph glyph-name="Ldot" unicode="&#x13f;" horiz-adv-x="517" 
d="M428 0h-411l147 667h117l-125 -564h294zM401 272c-36 0 -64 29 -64 64c0 42 35 76 77 76c35 0 63 -29 63 -65c0 -41 -35 -75 -76 -75z" />
    <glyph glyph-name="Lslash" unicode="&#x141;" horiz-adv-x="541" 
d="M8 204l22 97l87 45l71 321h117l-56 -254l96 50l-21 -97l-97 -50l-47 -213h294l-22 -103h-411l55 249z" />
    <glyph glyph-name="Nacute" unicode="&#x143;" horiz-adv-x="720" 
d="M677 867l-197 -144h-77l172 144h102zM595 0h-113l-239 494l-109 -494h-117l147 667h120l234 -481l107 481h117z" />
    <glyph glyph-name="Ncaron" unicode="&#x147;" horiz-adv-x="720" 
d="M516 723h-96l-64 144h64l56 -97l96 97h69zM595 0h-113l-239 494l-109 -494h-117l147 667h120l234 -481l107 481h117z" />
    <glyph glyph-name="Ncommaaccent" unicode="&#x145;" horiz-adv-x="720" 
d="M335 -121c0 -59 -50 -124 -111 -154l-32 33c32 15 67 44 78 73h-8c-23 0 -43 17 -43 46c0 33 30 60 62 60c29 0 54 -20 54 -58zM595 0h-113l-239 494l-109 -494h-117l147 667h120l234 -481l107 481h117z" />
    <glyph glyph-name="Ntilde" unicode="&#xd1;" horiz-adv-x="720" 
d="M536 721c-72 0 -70 78 -120 78c-23 0 -41 -22 -52 -72h-58c16 82 51 134 118 134c72 0 70 -78 120 -78c23 0 40 22 52 72h59c-18 -82 -52 -134 -119 -134zM595 0h-113l-239 494l-109 -494h-117l147 667h120l234 -481l107 481h117z" />
    <glyph glyph-name="Eng" unicode="&#x14a;" horiz-adv-x="720" 
d="M359 -196c-79 0 -149 28 -188 79l64 77c21 -36 63 -62 115 -62c65 0 109 41 128 109l-235 487l-109 -494h-117l147 667h120l234 -481l107 481h117l-142 -642c-36 -154 -116 -221 -241 -221z" />
    <glyph glyph-name="Oacute" unicode="&#xd3;" horiz-adv-x="765" 
d="M700 867l-197 -144h-77l172 144h102zM370 -12c-179 0 -319 112 -319 296c0 220 167 394 382 394c179 0 319 -112 319 -295c0 -221 -167 -395 -382 -395zM377 92c138 0 253 122 253 283c0 125 -90 199 -204 199c-139 0 -253 -122 -253 -283c0 -126 89 -199 204 -199z" />
    <glyph glyph-name="Obreve" unicode="&#x14e;" horiz-adv-x="765" 
d="M370 -12c-179 0 -319 112 -319 296c0 220 167 394 382 394c179 0 319 -112 319 -295c0 -221 -167 -395 -382 -395zM377 92c138 0 253 122 253 283c0 125 -90 199 -204 199c-139 0 -253 -122 -253 -283c0 -126 89 -199 204 -199zM674 789c-52 -54 -122 -88 -194 -88
c-71 0 -128 34 -157 88l55 40c20 -40 58 -66 113 -66c53 0 103 25 142 66z" />
    <glyph glyph-name="Ocircumflex" unicode="&#xd4;" horiz-adv-x="765" 
d="M632 723h-65l-56 96l-96 -96h-68l125 144h96zM370 -12c-179 0 -319 112 -319 296c0 220 167 394 382 394c179 0 319 -112 319 -295c0 -221 -167 -395 -382 -395zM377 92c138 0 253 122 253 283c0 125 -90 199 -204 199c-139 0 -253 -122 -253 -283
c0 -126 89 -199 204 -199z" />
    <glyph glyph-name="Odieresis" unicode="&#xd6;" horiz-adv-x="765" 
d="M663 781c0 -34 -31 -65 -66 -65c-29 0 -52 23 -52 52c0 35 32 65 66 65c30 0 52 -22 52 -52zM454 781c0 -34 -31 -65 -66 -65c-29 0 -52 23 -52 52c0 35 32 65 66 65c30 0 52 -22 52 -52zM370 -12c-179 0 -319 112 -319 296c0 220 167 394 382 394
c179 0 319 -112 319 -295c0 -221 -167 -395 -382 -395zM377 92c138 0 253 122 253 283c0 125 -90 199 -204 199c-139 0 -253 -122 -253 -283c0 -126 89 -199 204 -199z" />
    <glyph glyph-name="Ograve" unicode="&#xd2;" horiz-adv-x="765" 
d="M551 723h-75l-133 144h100zM370 -12c-179 0 -319 112 -319 296c0 220 167 394 382 394c179 0 319 -112 319 -295c0 -221 -167 -395 -382 -395zM377 92c138 0 253 122 253 283c0 125 -90 199 -204 199c-139 0 -253 -122 -253 -283c0 -126 89 -199 204 -199z" />
    <glyph glyph-name="Ohungarumlaut" unicode="&#x150;" horiz-adv-x="765" 
d="M581 867l-147 -144h-65l122 144h90zM727 867l-147 -144h-65l122 144h90zM370 -12c-179 0 -319 112 -319 296c0 220 167 394 382 394c179 0 319 -112 319 -295c0 -221 -167 -395 -382 -395zM377 92c138 0 253 122 253 283c0 125 -90 199 -204 199
c-139 0 -253 -122 -253 -283c0 -126 89 -199 204 -199z" />
    <glyph glyph-name="Omacron" unicode="&#x14c;" horiz-adv-x="765" 
d="M672 733h-362l14 62h362zM370 -12c-179 0 -319 112 -319 296c0 220 167 394 382 394c179 0 319 -112 319 -295c0 -221 -167 -395 -382 -395zM377 92c138 0 253 122 253 283c0 125 -90 199 -204 199c-139 0 -253 -122 -253 -283c0 -126 89 -199 204 -199z" />
    <glyph glyph-name="Oslash" unicode="&#xd8;" horiz-adv-x="765" 
d="M370 -12c-77 0 -147 20 -202 59l-44 -47h-87l84 89c-44 49 -70 115 -70 195c0 220 167 394 382 394c73 0 140 -19 193 -54l41 43h87l-79 -84c48 -50 77 -118 77 -200c0 -221 -167 -395 -382 -395zM377 92c138 0 253 122 253 283c0 48 -14 89 -37 121l-345 -365
c35 -26 79 -39 129 -39zM173 291c0 -45 11 -84 31 -114l343 363c-34 22 -76 34 -121 34c-139 0 -253 -122 -253 -283z" />
    <glyph glyph-name="Oslashacute" unicode="&#x1fe;" horiz-adv-x="765" 
d="M700 867l-197 -144h-77l172 144h102zM370 -12c-77 0 -147 20 -202 59l-44 -47h-87l84 89c-44 49 -70 115 -70 195c0 220 167 394 382 394c73 0 140 -19 193 -54l41 43h87l-79 -84c48 -50 77 -118 77 -200c0 -221 -167 -395 -382 -395zM377 92c138 0 253 122 253 283
c0 48 -14 89 -37 121l-345 -365c35 -26 79 -39 129 -39zM173 291c0 -45 11 -84 31 -114l343 363c-34 22 -76 34 -121 34c-139 0 -253 -122 -253 -283z" />
    <glyph glyph-name="Otilde" unicode="&#xd5;" horiz-adv-x="765" 
d="M370 -12c-179 0 -319 112 -319 296c0 220 167 394 382 394c179 0 319 -112 319 -295c0 -221 -167 -395 -382 -395zM377 92c138 0 253 122 253 283c0 125 -90 199 -204 199c-139 0 -253 -122 -253 -283c0 -126 89 -199 204 -199zM559 721c-72 0 -70 78 -120 78
c-23 0 -41 -22 -52 -72h-58c16 82 51 134 118 134c72 0 70 -78 120 -78c23 0 40 22 52 72h59c-18 -82 -52 -134 -119 -134z" />
    <glyph glyph-name="uni1ECC" unicode="&#x1ecc;" horiz-adv-x="765" 
d="M370 -12c-179 0 -319 112 -319 296c0 220 167 394 382 394c179 0 319 -112 319 -295c0 -221 -167 -395 -382 -395zM377 92c138 0 253 122 253 283c0 125 -90 199 -204 199c-139 0 -253 -122 -253 -283c0 -126 89 -199 204 -199zM359 -126c0 -35 -32 -65 -67 -65
c-30 0 -52 22 -52 52c0 35 31 66 66 66c30 0 53 -23 53 -53z" />
    <glyph glyph-name="uni1ECE" unicode="&#x1ece;" horiz-adv-x="765" 
d="M370 -12c-179 0 -319 112 -319 296c0 220 167 394 382 394c179 0 319 -112 319 -295c0 -221 -167 -395 -382 -395zM377 92c138 0 253 122 253 283c0 125 -90 199 -204 199c-139 0 -253 -122 -253 -283c0 -126 89 -199 204 -199zM458 755l-35 18c16 29 44 47 78 47
c35 0 71 -21 71 -61c0 -22 -10 -45 -26 -62h-51c21 18 32 35 32 57c0 17 -14 28 -30 28c-15 0 -28 -8 -39 -27z" />
    <glyph glyph-name="uni1ED0" unicode="&#x1ed0;" horiz-adv-x="765" 
d="M616 682h-65l-56 72l-96 -72h-68l125 108h96zM865 844l-197 -108h-77l172 108h102zM370 -12c-179 0 -319 112 -319 296c0 220 167 394 382 394c179 0 319 -112 319 -295c0 -221 -167 -395 -382 -395zM377 92c138 0 253 122 253 283c0 125 -90 199 -204 199
c-139 0 -253 -122 -253 -283c0 -126 89 -199 204 -199z" />
    <glyph glyph-name="uni1ED2" unicode="&#x1ed2;" horiz-adv-x="765" 
d="M616 682h-65l-56 72l-96 -72h-68l125 108h96zM370 -12c-179 0 -319 112 -319 296c0 220 167 394 382 394c179 0 319 -112 319 -295c0 -221 -167 -395 -382 -395zM377 92c138 0 253 122 253 283c0 125 -90 199 -204 199c-139 0 -253 -122 -253 -283
c0 -126 89 -199 204 -199zM383 736h-75l-133 108h100z" />
    <glyph glyph-name="uni1ED4" unicode="&#x1ed4;" horiz-adv-x="765" 
d="M615 682h-65l-56 72l-96 -72h-68l125 108h96zM370 -12c-179 0 -319 112 -319 296c0 220 167 394 382 394c179 0 319 -112 319 -295c0 -221 -167 -395 -382 -395zM377 92c138 0 253 122 253 283c0 125 -90 199 -204 199c-139 0 -253 -122 -253 -283
c0 -126 89 -199 204 -199zM557 800l-35 13c16 22 44 35 78 35c35 0 71 -15 71 -45c0 -17 -10 -34 -26 -47h-51c21 14 32 26 32 43c0 13 -14 21 -30 21c-15 0 -28 -6 -39 -20z" />
    <glyph glyph-name="uni1ED6" unicode="&#x1ed6;" horiz-adv-x="765" 
d="M610 678h-65l-56 48l-96 -48h-68l125 72h96zM370 -12c-179 0 -319 112 -319 296c0 220 167 394 382 394c179 0 319 -112 319 -295c0 -221 -167 -395 -382 -395zM377 92c138 0 253 122 253 283c0 125 -90 199 -204 199c-139 0 -253 -122 -253 -283
c0 -126 89 -199 204 -199zM559 757c-72 0 -70 39 -120 39c-23 0 -41 -11 -52 -36h-58c16 41 51 67 118 67c72 0 70 -39 120 -39c23 0 40 11 52 36h59c-18 -41 -52 -67 -119 -67z" />
    <glyph glyph-name="uni1ED8" unicode="&#x1ed8;" horiz-adv-x="765" 
d="M630 723h-65l-56 96l-96 -96h-68l125 144h96zM370 -12c-179 0 -319 112 -319 296c0 220 167 394 382 394c179 0 319 -112 319 -295c0 -221 -167 -395 -382 -395zM377 92c138 0 253 122 253 283c0 125 -90 199 -204 199c-139 0 -253 -122 -253 -283
c0 -126 89 -199 204 -199zM359 -126c0 -35 -32 -65 -67 -65c-30 0 -52 22 -52 52c0 35 31 66 66 66c30 0 53 -23 53 -53z" />
    <glyph glyph-name="Ohorn" unicode="&#x1a0;" horiz-adv-x="765" 
d="M370 -12c-179 0 -319 112 -319 296c0 220 167 394 382 394c104 0 195 -38 253 -106c27 15 54 40 63 65h-7c-21 0 -39 16 -39 42c0 30 27 55 56 55c26 0 49 -19 49 -54c0 -54 -44 -112 -98 -141c27 -43 42 -96 42 -156c0 -221 -167 -395 -382 -395zM377 92
c138 0 253 122 253 283c0 125 -90 199 -204 199c-139 0 -253 -122 -253 -283c0 -126 89 -199 204 -199z" />
    <glyph glyph-name="uni1EDA" unicode="&#x1eda;" horiz-adv-x="765" 
d="M700 867l-197 -144h-77l172 144h102zM370 -12c-179 0 -319 112 -319 296c0 220 167 394 382 394c104 0 195 -38 253 -106c27 15 54 40 63 65h-7c-21 0 -39 16 -39 42c0 30 27 55 56 55c26 0 49 -19 49 -54c0 -54 -44 -112 -98 -141c27 -43 42 -96 42 -156
c0 -221 -167 -395 -382 -395zM377 92c138 0 253 122 253 283c0 125 -90 199 -204 199c-139 0 -253 -122 -253 -283c0 -126 89 -199 204 -199z" />
    <glyph glyph-name="uni1EDC" unicode="&#x1edc;" horiz-adv-x="765" 
d="M370 -12c-179 0 -319 112 -319 296c0 220 167 394 382 394c104 0 195 -38 253 -106c27 15 54 40 63 65h-7c-21 0 -39 16 -39 42c0 30 27 55 56 55c26 0 49 -19 49 -54c0 -54 -44 -112 -98 -141c27 -43 42 -96 42 -156c0 -221 -167 -395 -382 -395zM377 92
c138 0 253 122 253 283c0 125 -90 199 -204 199c-139 0 -253 -122 -253 -283c0 -126 89 -199 204 -199zM551 723h-75l-133 144h100z" />
    <glyph glyph-name="uni1EDE" unicode="&#x1ede;" horiz-adv-x="765" 
d="M370 -12c-179 0 -319 112 -319 296c0 220 167 394 382 394c104 0 195 -38 253 -106c27 15 54 40 63 65h-7c-21 0 -39 16 -39 42c0 30 27 55 56 55c26 0 49 -19 49 -54c0 -54 -44 -112 -98 -141c27 -43 42 -96 42 -156c0 -221 -167 -395 -382 -395zM377 92
c138 0 253 122 253 283c0 125 -90 199 -204 199c-139 0 -253 -122 -253 -283c0 -126 89 -199 204 -199zM458 755l-35 18c16 29 44 47 78 47c35 0 71 -21 71 -61c0 -22 -10 -45 -26 -62h-51c21 18 32 35 32 57c0 17 -14 28 -30 28c-15 0 -28 -8 -39 -27z" />
    <glyph glyph-name="uni1EE0" unicode="&#x1ee0;" horiz-adv-x="765" 
d="M370 -12c-179 0 -319 112 -319 296c0 220 167 394 382 394c104 0 195 -38 253 -106c27 15 54 40 63 65h-7c-21 0 -39 16 -39 42c0 30 27 55 56 55c26 0 49 -19 49 -54c0 -54 -44 -112 -98 -141c27 -43 42 -96 42 -156c0 -221 -167 -395 -382 -395zM377 92
c138 0 253 122 253 283c0 125 -90 199 -204 199c-139 0 -253 -122 -253 -283c0 -126 89 -199 204 -199zM560 721c-72 0 -70 78 -120 78c-23 0 -41 -22 -52 -72h-58c16 82 51 134 118 134c72 0 70 -78 120 -78c23 0 40 22 52 72h59c-18 -82 -52 -134 -119 -134z" />
    <glyph glyph-name="uni1EE2" unicode="&#x1ee2;" horiz-adv-x="765" 
d="M370 -12c-179 0 -319 112 -319 296c0 220 167 394 382 394c104 0 195 -38 253 -106c27 15 54 40 63 65h-7c-21 0 -39 16 -39 42c0 30 27 55 56 55c26 0 49 -19 49 -54c0 -54 -44 -112 -98 -141c27 -43 42 -96 42 -156c0 -221 -167 -395 -382 -395zM377 92
c138 0 253 122 253 283c0 125 -90 199 -204 199c-139 0 -253 -122 -253 -283c0 -126 89 -199 204 -199zM359 -126c0 -35 -32 -65 -67 -65c-30 0 -52 22 -52 52c0 35 31 66 66 66c30 0 53 -23 53 -53z" />
    <glyph glyph-name="OE" unicode="&#x152;" horiz-adv-x="1093" 
d="M991 0h-457l19 87c-50 -61 -124 -99 -222 -99c-160 0 -280 122 -280 296c0 234 175 393 377 393c98 0 184 -37 227 -132l26 122h457l-22 -103h-340l-38 -173h333l-23 -103h-333l-41 -185h340zM581 211l46 210c-21 97 -94 152 -194 152c-147 0 -260 -125 -260 -282
c0 -122 82 -199 197 -199c84 0 164 45 211 119z" />
    <glyph glyph-name="uni1E56" unicode="&#x1e56;" horiz-adv-x="608" 
d="M134 0h-117l147 667h268c128 0 198 -82 198 -180c0 -100 -67 -238 -267 -238h-174zM211 352h160c86 0 137 56 137 124c0 49 -39 88 -95 88h-155zM492 780c0 -35 -32 -65 -67 -65c-30 0 -52 22 -52 52c0 35 31 66 66 66c30 0 53 -23 53 -53z" />
    <glyph glyph-name="Racute" unicode="&#x154;" horiz-adv-x="628" 
d="M633 867l-197 -144h-77l172 144h102zM533 0h-129l-93 249h-123l-54 -249h-117l147 667h268c103 0 199 -69 199 -182c0 -122 -85 -213 -202 -229zM370 352h2c86 0 136 53 136 122c0 53 -47 90 -97 90h-153l-47 -212h159z" />
    <glyph glyph-name="Rcaron" unicode="&#x158;" horiz-adv-x="628" 
d="M471 723h-96l-64 144h64l56 -97l96 97h69zM533 0h-129l-93 249h-123l-54 -249h-117l147 667h268c103 0 199 -69 199 -182c0 -122 -85 -213 -202 -229zM370 352h2c86 0 136 53 136 122c0 53 -47 90 -97 90h-153l-47 -212h159z" />
    <glyph glyph-name="Rcommaaccent" unicode="&#x156;" horiz-adv-x="628" 
d="M291 -121c0 -59 -50 -124 -111 -154l-32 33c32 15 67 44 78 73h-8c-23 0 -43 17 -43 46c0 33 30 60 62 60c29 0 54 -20 54 -58zM533 0h-129l-93 249h-123l-54 -249h-117l147 667h268c103 0 199 -69 199 -182c0 -122 -85 -213 -202 -229zM370 352h2c86 0 136 53 136 122
c0 53 -47 90 -97 90h-153l-47 -212h159z" />
    <glyph glyph-name="Sacute" unicode="&#x15a;" horiz-adv-x="594" 
d="M616 867l-197 -144h-77l172 144h102zM294 -12c-126 0 -236 51 -288 122l75 86c46 -63 130 -104 223 -104c85 0 120 52 120 96c0 109 -327 89 -327 282c0 107 97 207 250 207c105 0 201 -40 255 -107l-75 -83c-47 59 -126 87 -196 87c-63 0 -110 -40 -110 -85
c0 -101 328 -87 328 -280c0 -115 -93 -221 -255 -221z" />
    <glyph glyph-name="Scaron" unicode="&#x160;" horiz-adv-x="594" 
d="M456 723h-96l-64 144h64l56 -97l96 97h69zM294 -12c-126 0 -236 51 -288 122l75 86c46 -63 130 -104 223 -104c85 0 120 52 120 96c0 109 -327 89 -327 282c0 107 97 207 250 207c105 0 201 -40 255 -107l-75 -83c-47 59 -126 87 -196 87c-63 0 -110 -40 -110 -85
c0 -101 328 -87 328 -280c0 -115 -93 -221 -255 -221z" />
    <glyph glyph-name="Scircumflex" unicode="&#x15c;" horiz-adv-x="594" 
d="M548 723h-65l-56 96l-96 -96h-68l125 144h96zM294 -12c-126 0 -236 51 -288 122l75 86c46 -63 130 -104 223 -104c85 0 120 52 120 96c0 109 -327 89 -327 282c0 107 97 207 250 207c105 0 201 -40 255 -107l-75 -83c-47 59 -126 87 -196 87c-63 0 -110 -40 -110 -85
c0 -101 328 -87 328 -280c0 -115 -93 -221 -255 -221z" />
    <glyph glyph-name="Scedilla" unicode="&#x15e;" horiz-adv-x="594" 
d="M209 -194c-50 0 -92 18 -114 40l31 43c23 -23 54 -35 84 -35c35 0 55 16 55 40c0 15 -12 26 -33 26c-12 0 -23 -5 -32 -15l-35 23l40 69c-87 17 -160 59 -199 113l75 86c46 -63 130 -104 223 -104c85 0 120 52 120 96c0 109 -327 89 -327 282c0 107 97 207 250 207
c105 0 201 -40 255 -107l-75 -83c-47 59 -126 87 -196 87c-63 0 -110 -40 -110 -85c0 -101 328 -87 328 -280c0 -115 -93 -221 -255 -221c-13 0 -26 1 -39 2l-26 -43c11 8 20 11 32 11c34 0 59 -23 59 -61c0 -55 -47 -91 -111 -91z" />
    <glyph glyph-name="Scommaaccent" unicode="&#x218;" horiz-adv-x="594" 
d="M275 -121c0 -59 -50 -124 -111 -154l-32 33c32 15 67 44 78 73h-8c-23 0 -43 17 -43 46c0 33 30 60 62 60c29 0 54 -20 54 -58zM294 -12c-126 0 -236 51 -288 122l75 86c46 -63 130 -104 223 -104c85 0 120 52 120 96c0 109 -327 89 -327 282c0 107 97 207 250 207
c105 0 201 -40 255 -107l-75 -83c-47 59 -126 87 -196 87c-63 0 -110 -40 -110 -85c0 -101 328 -87 328 -280c0 -115 -93 -221 -255 -221z" />
    <glyph glyph-name="uni1E60" unicode="&#x1e60;" horiz-adv-x="594" 
d="M294 -12c-126 0 -236 51 -288 122l75 86c46 -63 130 -104 223 -104c85 0 120 52 120 96c0 109 -327 89 -327 282c0 107 97 207 250 207c105 0 201 -40 255 -107l-75 -83c-47 59 -126 87 -196 87c-63 0 -110 -40 -110 -85c0 -101 328 -87 328 -280
c0 -115 -93 -221 -255 -221zM478 780c0 -35 -32 -65 -67 -65c-30 0 -52 22 -52 52c0 35 31 66 66 66c30 0 53 -23 53 -53z" />
    <glyph glyph-name="Tbar" unicode="&#x166;" horiz-adv-x="577" 
d="M293 0h-117l60 276h-140l14 62h140l50 226h-202l23 103h521l-23 -103h-202l-50 -226h141l-14 -62h-141z" />
    <glyph glyph-name="Tcaron" unicode="&#x164;" horiz-adv-x="577" 
d="M437 723h-96l-64 144h64l56 -97l96 97h69zM293 0h-117l124 564h-202l23 103h521l-23 -103h-202z" />
    <glyph glyph-name="Tcommaaccent" unicode="&#x162;" horiz-adv-x="577" 
d="M265 -121c0 -59 -50 -124 -111 -154l-32 33c32 15 67 44 78 73h-8c-23 0 -43 17 -43 46c0 33 30 60 62 60c29 0 54 -20 54 -58zM293 0h-117l124 564h-202l23 103h521l-23 -103h-202z" />
    <glyph glyph-name="uni021A" unicode="&#x21a;" horiz-adv-x="577" 
d="M265 -121c0 -59 -50 -124 -111 -154l-32 33c32 15 67 44 78 73h-8c-23 0 -43 17 -43 46c0 33 30 60 62 60c29 0 54 -20 54 -58zM293 0h-117l124 564h-202l23 103h521l-23 -103h-202z" />
    <glyph glyph-name="uni1E6A" unicode="&#x1e6a;" horiz-adv-x="577" 
d="M293 0h-117l124 564h-202l23 103h521l-23 -103h-202zM466 780c0 -35 -32 -65 -67 -65c-30 0 -52 22 -52 52c0 35 31 66 66 66c30 0 53 -23 53 -53z" />
    <glyph glyph-name="Uacute" unicode="&#xda;" horiz-adv-x="719" 
d="M676 867l-197 -144h-77l172 144h102zM347 -12c-180 0 -277 91 -277 228c0 16 3 37 5 47l89 404h118l-88 -401c-2 -7 -4 -21 -4 -37c0 -77 55 -138 157 -138c111 0 164 69 187 175l89 401h118l-89 -403c-36 -163 -116 -276 -305 -276z" />
    <glyph glyph-name="Ubreve" unicode="&#x16c;" horiz-adv-x="719" 
d="M347 -12c-180 0 -277 91 -277 228c0 16 3 37 5 47l89 404h118l-88 -401c-2 -7 -4 -21 -4 -37c0 -77 55 -138 157 -138c111 0 164 69 187 175l89 401h118l-89 -403c-36 -163 -116 -276 -305 -276zM650 789c-52 -54 -122 -88 -194 -88c-71 0 -128 34 -157 88l55 40
c20 -40 58 -66 113 -66c53 0 103 25 142 66z" />
    <glyph glyph-name="Ucircumflex" unicode="&#xdb;" horiz-adv-x="719" 
d="M607 723h-65l-56 96l-96 -96h-68l125 144h96zM347 -12c-180 0 -277 91 -277 228c0 16 3 37 5 47l89 404h118l-88 -401c-2 -7 -4 -21 -4 -37c0 -77 55 -138 157 -138c111 0 164 69 187 175l89 401h118l-89 -403c-36 -163 -116 -276 -305 -276z" />
    <glyph glyph-name="Udieresis" unicode="&#xdc;" horiz-adv-x="719" 
d="M639 781c0 -34 -31 -65 -66 -65c-29 0 -52 23 -52 52c0 35 32 65 66 65c30 0 52 -22 52 -52zM430 781c0 -34 -31 -65 -66 -65c-29 0 -52 23 -52 52c0 35 32 65 66 65c30 0 52 -22 52 -52zM347 -12c-180 0 -277 91 -277 228c0 16 3 37 5 47l89 404h118l-88 -401
c-2 -7 -4 -21 -4 -37c0 -77 55 -138 157 -138c111 0 164 69 187 175l89 401h118l-89 -403c-36 -163 -116 -276 -305 -276z" />
    <glyph glyph-name="Ugrave" unicode="&#xd9;" horiz-adv-x="719" 
d="M347 -12c-180 0 -277 91 -277 228c0 16 3 37 5 47l89 404h118l-88 -401c-2 -7 -4 -21 -4 -37c0 -77 55 -138 157 -138c111 0 164 69 187 175l89 401h118l-89 -403c-36 -163 -116 -276 -305 -276zM526 723h-75l-133 144h100z" />
    <glyph glyph-name="Uhungarumlaut" unicode="&#x170;" horiz-adv-x="719" 
d="M347 -12c-180 0 -277 91 -277 228c0 16 3 37 5 47l89 404h118l-88 -401c-2 -7 -4 -21 -4 -37c0 -77 55 -138 157 -138c111 0 164 69 187 175l89 401h118l-89 -403c-36 -163 -116 -276 -305 -276zM560 867l-147 -144h-65l122 144h90zM706 867l-147 -144h-65l122 144h90z
" />
    <glyph glyph-name="Umacron" unicode="&#x16a;" horiz-adv-x="719" 
d="M347 -12c-180 0 -277 91 -277 228c0 16 3 37 5 47l89 404h118l-88 -401c-2 -7 -4 -21 -4 -37c0 -77 55 -138 157 -138c111 0 164 69 187 175l89 401h118l-89 -403c-36 -163 -116 -276 -305 -276zM648 733h-362l14 62h362z" />
    <glyph glyph-name="Uogonek" unicode="&#x172;" horiz-adv-x="719" 
d="M435 -102l38 -31c-21 -30 -50 -53 -93 -53c-48 0 -88 25 -88 74c0 37 17 72 49 100c-176 2 -271 92 -271 228c0 16 3 37 5 47l89 404h118l-88 -401c-2 -7 -4 -21 -4 -37c0 -77 55 -138 157 -138c111 0 164 69 187 175l89 401h118l-89 -403c-29 -132 -88 -231 -209 -264
c-60 -27 -97 -61 -97 -103c0 -23 16 -36 39 -36c21 0 38 14 50 37z" />
    <glyph glyph-name="Uring" unicode="&#x16e;" horiz-adv-x="719" 
d="M470 689c-55 0 -93 38 -93 93c0 60 52 112 112 112c55 0 93 -38 93 -93c0 -61 -51 -112 -112 -112zM474 740c31 0 57 25 57 56c0 28 -18 47 -46 47c-30 0 -57 -26 -57 -56c0 -28 19 -47 46 -47zM347 -12c-180 0 -277 91 -277 228c0 16 3 37 5 47l89 404h118l-88 -401
c-2 -7 -4 -21 -4 -37c0 -77 55 -138 157 -138c111 0 164 69 187 175l89 401h118l-89 -403c-36 -163 -116 -276 -305 -276z" />
    <glyph glyph-name="Utilde" unicode="&#x168;" horiz-adv-x="719" 
d="M347 -12c-180 0 -277 91 -277 228c0 16 3 37 5 47l89 404h118l-88 -401c-2 -7 -4 -21 -4 -37c0 -77 55 -138 157 -138c111 0 164 69 187 175l89 401h118l-89 -403c-36 -163 -116 -276 -305 -276zM535 721c-72 0 -70 78 -120 78c-23 0 -41 -22 -52 -72h-58
c16 82 51 134 118 134c72 0 70 -78 120 -78c23 0 40 22 52 72h59c-18 -82 -52 -134 -119 -134z" />
    <glyph glyph-name="uni1EE4" unicode="&#x1ee4;" horiz-adv-x="719" 
d="M347 -12c-180 0 -277 91 -277 228c0 16 3 37 5 47l89 404h118l-88 -401c-2 -7 -4 -21 -4 -37c0 -77 55 -138 157 -138c111 0 164 69 187 175l89 401h118l-89 -403c-36 -163 -116 -276 -305 -276zM334 -126c0 -35 -32 -65 -67 -65c-30 0 -52 22 -52 52c0 35 31 66 66 66
c30 0 53 -23 53 -53z" />
    <glyph glyph-name="Uhorn" unicode="&#x1af;" horiz-adv-x="719" 
d="M865 743c0 -71 -64 -133 -143 -163l-70 -316c-36 -163 -116 -276 -305 -276c-180 0 -277 91 -277 228c0 16 3 37 5 47l89 404h118l-88 -401c-2 -7 -4 -21 -4 -37c0 -77 55 -138 157 -138c111 0 164 69 187 175l89 401h118l-9 -39c38 20 65 45 74 72c-1 -1 -5 -1 -7 -1
c-21 0 -39 16 -39 42c0 31 27 55 56 55c26 0 49 -18 49 -53z" />
    <glyph glyph-name="uni1EE6" unicode="&#x1ee6;" horiz-adv-x="719" 
d="M347 -12c-180 0 -277 91 -277 228c0 16 3 37 5 47l89 404h118l-88 -401c-2 -7 -4 -21 -4 -37c0 -77 55 -138 157 -138c111 0 164 69 187 175l89 401h118l-89 -403c-36 -163 -116 -276 -305 -276zM433 755l-35 18c16 29 44 47 78 47c35 0 71 -21 71 -61
c0 -22 -10 -45 -26 -62h-51c21 18 32 35 32 57c0 17 -14 28 -30 28c-15 0 -28 -8 -39 -27z" />
    <glyph glyph-name="uni1EE8" unicode="&#x1ee8;" horiz-adv-x="719" 
d="M676 867l-197 -144h-77l172 144h102zM865 743c0 -71 -64 -133 -143 -163l-70 -316c-36 -163 -116 -276 -305 -276c-180 0 -277 91 -277 228c0 16 3 37 5 47l89 404h118l-88 -401c-2 -7 -4 -21 -4 -37c0 -77 55 -138 157 -138c111 0 164 69 187 175l89 401h118l-9 -39
c38 20 65 45 74 72c-1 -1 -5 -1 -7 -1c-21 0 -39 16 -39 42c0 31 27 55 56 55c26 0 49 -18 49 -53z" />
    <glyph glyph-name="uni1EEA" unicode="&#x1eea;" horiz-adv-x="719" 
d="M526 723h-75l-133 144h100zM865 743c0 -71 -64 -133 -143 -163l-70 -316c-36 -163 -116 -276 -305 -276c-180 0 -277 91 -277 228c0 16 3 37 5 47l89 404h118l-88 -401c-2 -7 -4 -21 -4 -37c0 -77 55 -138 157 -138c111 0 164 69 187 175l89 401h118l-9 -39
c38 20 65 45 74 72c-1 -1 -5 -1 -7 -1c-21 0 -39 16 -39 42c0 31 27 55 56 55c26 0 49 -18 49 -53z" />
    <glyph glyph-name="uni1EEC" unicode="&#x1eec;" horiz-adv-x="719" 
d="M433 755l-35 18c16 29 44 47 78 47c35 0 71 -21 71 -61c0 -22 -10 -45 -26 -62h-51c21 18 32 35 32 57c0 17 -14 28 -30 28c-15 0 -28 -8 -39 -27zM865 743c0 -71 -64 -133 -143 -163l-70 -316c-36 -163 -116 -276 -305 -276c-180 0 -277 91 -277 228c0 16 3 37 5 47
l89 404h118l-88 -401c-2 -7 -4 -21 -4 -37c0 -77 55 -138 157 -138c111 0 164 69 187 175l89 401h118l-9 -39c38 20 65 45 74 72c-1 -1 -5 -1 -7 -1c-21 0 -39 16 -39 42c0 31 27 55 56 55c26 0 49 -18 49 -53z" />
    <glyph glyph-name="uni1EEE" unicode="&#x1eee;" horiz-adv-x="719" 
d="M865 743c0 -71 -64 -133 -143 -163l-70 -316c-36 -163 -116 -276 -305 -276c-180 0 -277 91 -277 228c0 16 3 37 5 47l89 404h118l-88 -401c-2 -7 -4 -21 -4 -37c0 -77 55 -138 157 -138c111 0 164 69 187 175l89 401h118l-9 -39c38 20 65 45 74 72c-1 -1 -5 -1 -7 -1
c-21 0 -39 16 -39 42c0 31 27 55 56 55c26 0 49 -18 49 -53zM535 721c-72 0 -70 78 -120 78c-23 0 -41 -22 -52 -72h-58c16 82 51 134 118 134c72 0 70 -78 120 -78c23 0 40 22 52 72h59c-18 -82 -52 -134 -119 -134z" />
    <glyph glyph-name="uni1EF0" unicode="&#x1ef0;" horiz-adv-x="719" 
d="M334 -126c0 -35 -32 -65 -67 -65c-30 0 -52 22 -52 52c0 35 31 66 66 66c30 0 53 -23 53 -53zM865 743c0 -71 -64 -133 -143 -163l-70 -316c-36 -163 -116 -276 -305 -276c-180 0 -277 91 -277 228c0 16 3 37 5 47l89 404h118l-88 -401c-2 -7 -4 -21 -4 -37
c0 -77 55 -138 157 -138c111 0 164 69 187 175l89 401h118l-9 -39c38 20 65 45 74 72c-1 -1 -5 -1 -7 -1c-21 0 -39 16 -39 42c0 31 27 55 56 55c26 0 49 -18 49 -53z" />
    <glyph glyph-name="Wacute" unicode="&#x1e82;" horiz-adv-x="903" 
d="M763 867l-197 -144h-77l172 144h102zM652 0h-125l-21 492l-238 -492h-125l-44 667h128l16 -514l252 514h93l24 -514l243 514h134z" />
    <glyph glyph-name="Wcircumflex" unicode="&#x174;" horiz-adv-x="903" 
d="M698 723h-65l-56 96l-96 -96h-68l125 144h96zM652 0h-125l-21 492l-238 -492h-125l-44 667h128l16 -514l252 514h93l24 -514l243 514h134z" />
    <glyph glyph-name="Wdieresis" unicode="&#x1e84;" horiz-adv-x="903" 
d="M728 781c0 -34 -31 -65 -66 -65c-29 0 -52 23 -52 52c0 35 32 65 66 65c30 0 52 -22 52 -52zM519 781c0 -34 -31 -65 -66 -65c-29 0 -52 23 -52 52c0 35 32 65 66 65c30 0 52 -22 52 -52zM652 0h-125l-21 492l-238 -492h-125l-44 667h128l16 -514l252 514h93l24 -514
l243 514h134z" />
    <glyph glyph-name="Wgrave" unicode="&#x1e80;" horiz-adv-x="903" 
d="M652 0h-125l-21 492l-238 -492h-125l-44 667h128l16 -514l252 514h93l24 -514l243 514h134zM615 723h-75l-133 144h100z" />
    <glyph glyph-name="Yacute" unicode="&#xdd;" horiz-adv-x="637" 
d="M323 0h-117l61 277l-173 390h127l121 -286l245 286h141l-344 -390zM635 867l-197 -144h-77l172 144h102z" />
    <glyph glyph-name="Ycircumflex" unicode="&#x176;" horiz-adv-x="637" 
d="M568 723h-65l-56 96l-96 -96h-68l125 144h96zM323 0h-117l61 277l-173 390h127l121 -286l245 286h141l-344 -390z" />
    <glyph glyph-name="Ydieresis" unicode="&#x178;" horiz-adv-x="637" 
d="M600 781c0 -34 -31 -65 -66 -65c-29 0 -52 23 -52 52c0 35 32 65 66 65c30 0 52 -22 52 -52zM391 781c0 -34 -31 -65 -66 -65c-29 0 -52 23 -52 52c0 35 32 65 66 65c30 0 52 -22 52 -52zM323 0h-117l61 277l-173 390h127l121 -286l245 286h141l-344 -390z" />
    <glyph glyph-name="Ygrave" unicode="&#x1ef2;" horiz-adv-x="637" 
d="M323 0h-117l61 277l-173 390h127l121 -286l245 286h141l-344 -390zM486 723h-75l-133 144h100z" />
    <glyph glyph-name="Zacute" unicode="&#x179;" horiz-adv-x="589" 
d="M606 867l-197 -144h-77l172 144h102zM490 0h-500l21 95l437 469h-333l22 103h493l-20 -95l-439 -469h342z" />
    <glyph glyph-name="Zcaron" unicode="&#x17d;" horiz-adv-x="589" 
d="M447 723h-96l-64 144h64l56 -97l96 97h69zM490 0h-500l21 95l437 469h-333l22 103h493l-20 -95l-439 -469h342z" />
    <glyph glyph-name="Zdotaccent" unicode="&#x17b;" horiz-adv-x="589" 
d="M490 0h-500l21 95l437 469h-333l22 103h493l-20 -95l-439 -469h342zM466 780c0 -35 -32 -65 -67 -65c-30 0 -52 22 -52 52c0 35 31 66 66 66c30 0 53 -23 53 -53z" />
    <glyph glyph-name="Eth" unicode="&#xd0;" horiz-adv-x="736" 
d="M290 0h-247l63 286h-88l21 95h88l63 286h243c148 0 284 -116 284 -286c0 -178 -124 -381 -427 -381zM313 103c175 1 282 125 282 271c0 108 -77 190 -184 190h-127l-41 -183h158l-21 -95h-158l-40 -183h131z" />
    <glyph glyph-name="Thorn" unicode="&#xde;" horiz-adv-x="608" 
d="M134 0h-117l147 667h117l-25 -113h168c104 0 181 -82 181 -179c0 -108 -74 -238 -266 -238h-175zM346 240c90 0 137 59 137 123c0 51 -42 88 -95 88h-155l-46 -211h159z" />
    <glyph glyph-name="aacute" unicode="&#xe1;" horiz-adv-x="581" 
d="M286 495c69 0 128 -31 160 -81l15 69h105l-107 -483h-105l14 64c-40 -49 -90 -76 -151 -76c-110 0 -185 72 -185 199c0 151 93 308 254 308zM302 402c-95 0 -160 -93 -160 -194c0 -78 49 -127 119 -127c51 0 98 30 126 68l42 187c-22 37 -68 66 -127 66zM565 700
l-197 -144h-77l172 144h102z" />
    <glyph glyph-name="abreve" unicode="&#x103;" horiz-adv-x="581" 
d="M286 495c69 0 128 -31 160 -81l15 69h105l-107 -483h-105l14 64c-40 -49 -90 -76 -151 -76c-110 0 -185 72 -185 199c0 151 93 308 254 308zM302 402c-95 0 -160 -93 -160 -194c0 -78 49 -127 119 -127c51 0 98 30 126 68l42 187c-22 37 -68 66 -127 66zM541 622
c-52 -54 -122 -88 -194 -88c-71 0 -128 34 -157 88l55 40c20 -40 58 -66 113 -66c53 0 103 25 142 66z" />
    <glyph glyph-name="acircumflex" unicode="&#xe2;" horiz-adv-x="581" 
d="M286 495c69 0 128 -31 160 -81l15 69h105l-107 -483h-105l14 64c-40 -49 -90 -76 -151 -76c-110 0 -185 72 -185 199c0 151 93 308 254 308zM302 402c-95 0 -160 -93 -160 -194c0 -78 49 -127 119 -127c51 0 98 30 126 68l42 187c-22 37 -68 66 -127 66zM498 556h-65
l-56 96l-96 -96h-68l125 144h96z" />
    <glyph glyph-name="adieresis" unicode="&#xe4;" horiz-adv-x="581" 
d="M286 495c69 0 128 -31 160 -81l15 69h105l-107 -483h-105l14 64c-40 -49 -90 -76 -151 -76c-110 0 -185 72 -185 199c0 151 93 308 254 308zM302 402c-95 0 -160 -93 -160 -194c0 -78 49 -127 119 -127c51 0 98 30 126 68l42 187c-22 37 -68 66 -127 66zM530 614
c0 -34 -31 -65 -66 -65c-29 0 -52 23 -52 52c0 35 32 65 66 65c30 0 52 -22 52 -52zM321 614c0 -34 -31 -65 -66 -65c-29 0 -52 23 -52 52c0 35 32 65 66 65c30 0 52 -22 52 -52z" />
    <glyph glyph-name="agrave" unicode="&#xe0;" horiz-adv-x="581" 
d="M286 495c69 0 128 -31 160 -81l15 69h105l-107 -483h-105l14 64c-40 -49 -90 -76 -151 -76c-110 0 -185 72 -185 199c0 151 93 308 254 308zM302 402c-95 0 -160 -93 -160 -194c0 -78 49 -127 119 -127c51 0 98 30 126 68l42 187c-22 37 -68 66 -127 66zM416 556h-75
l-133 144h100z" />
    <glyph glyph-name="amacron" unicode="&#x101;" horiz-adv-x="581" 
d="M286 495c69 0 128 -31 160 -81l15 69h105l-107 -483h-105l14 64c-40 -49 -90 -76 -151 -76c-110 0 -185 72 -185 199c0 151 93 308 254 308zM302 402c-95 0 -160 -93 -160 -194c0 -78 49 -127 119 -127c51 0 98 30 126 68l42 187c-22 37 -68 66 -127 66zM539 566h-362
l14 62h362z" />
    <glyph glyph-name="aogonek" unicode="&#x105;" horiz-adv-x="581" 
d="M451 -102l38 -31c-21 -30 -50 -53 -93 -53c-48 0 -88 25 -88 74c0 43 23 82 65 112h-19l14 64c-40 -49 -90 -76 -151 -76c-110 0 -185 72 -185 199c0 151 93 308 254 308c69 0 128 -31 160 -81l15 69h105l-107 -483c-60 -27 -97 -61 -97 -103c0 -23 16 -36 39 -36
c21 0 38 14 50 37zM302 402c-95 0 -160 -93 -160 -194c0 -78 49 -127 119 -127c51 0 98 30 126 68l42 187c-22 37 -68 66 -127 66z" />
    <glyph glyph-name="aring" unicode="&#xe5;" horiz-adv-x="581" 
d="M286 495c69 0 128 -31 160 -81l15 69h105l-107 -483h-105l14 64c-40 -49 -90 -76 -151 -76c-110 0 -185 72 -185 199c0 151 93 308 254 308zM302 402c-95 0 -160 -93 -160 -194c0 -78 49 -127 119 -127c51 0 98 30 126 68l42 187c-22 37 -68 66 -127 66zM364 536
c-55 0 -93 38 -93 93c0 60 52 112 112 112c55 0 93 -38 93 -93c0 -61 -51 -112 -112 -112zM368 587c31 0 57 25 57 56c0 28 -18 47 -46 47c-30 0 -57 -26 -57 -56c0 -28 19 -47 46 -47z" />
    <glyph glyph-name="atilde" unicode="&#xe3;" horiz-adv-x="581" 
d="M286 495c69 0 128 -31 160 -81l15 69h105l-107 -483h-105l14 64c-40 -49 -90 -76 -151 -76c-110 0 -185 72 -185 199c0 151 93 308 254 308zM302 402c-95 0 -160 -93 -160 -194c0 -78 49 -127 119 -127c51 0 98 30 126 68l42 187c-22 37 -68 66 -127 66zM426 554
c-72 0 -70 78 -120 78c-23 0 -41 -22 -52 -72h-58c16 82 51 134 118 134c72 0 70 -78 120 -78c23 0 40 22 52 72h59c-18 -82 -52 -134 -119 -134z" />
    <glyph glyph-name="uni1EA1" unicode="&#x1ea1;" horiz-adv-x="581" 
d="M286 495c69 0 128 -31 160 -81l15 69h105l-107 -483h-105l14 64c-40 -49 -90 -76 -151 -76c-110 0 -185 72 -185 199c0 151 93 308 254 308zM302 402c-95 0 -160 -93 -160 -194c0 -78 49 -127 119 -127c51 0 98 30 126 68l42 187c-22 37 -68 66 -127 66zM262 -126
c0 -35 -32 -65 -67 -65c-30 0 -52 22 -52 52c0 35 31 66 66 66c30 0 53 -23 53 -53z" />
    <glyph glyph-name="uni1EA3" unicode="&#x1ea3;" horiz-adv-x="581" 
d="M286 495c69 0 128 -31 160 -81l15 69h105l-107 -483h-105l14 64c-40 -49 -90 -76 -151 -76c-110 0 -185 72 -185 199c0 151 93 308 254 308zM302 402c-95 0 -160 -93 -160 -194c0 -78 49 -127 119 -127c51 0 98 30 126 68l42 187c-22 37 -68 66 -127 66zM324 585l-35 18
c16 29 44 47 78 47c35 0 71 -21 71 -61c0 -22 -10 -45 -26 -62h-51c21 18 32 35 32 57c0 17 -14 28 -30 28c-15 0 -28 -8 -39 -27z" />
    <glyph glyph-name="uni1EA5" unicode="&#x1ea5;" horiz-adv-x="581" 
d="M286 495c69 0 128 -31 160 -81l15 69h105l-107 -483h-105l14 64c-40 -49 -90 -76 -151 -76c-110 0 -185 72 -185 199c0 151 93 308 254 308zM302 402c-95 0 -160 -93 -160 -194c0 -78 49 -127 119 -127c51 0 98 30 126 68l42 187c-22 37 -68 66 -127 66zM498 556h-65
l-56 96l-96 -96h-68l125 144h96zM747 770l-197 -144h-77l172 144h102z" />
    <glyph glyph-name="uni1EAD" unicode="&#x1ead;" horiz-adv-x="581" 
d="M286 495c69 0 128 -31 160 -81l15 69h105l-107 -483h-105l14 64c-40 -49 -90 -76 -151 -76c-110 0 -185 72 -185 199c0 151 93 308 254 308zM302 402c-95 0 -160 -93 -160 -194c0 -78 49 -127 119 -127c51 0 98 30 126 68l42 187c-22 37 -68 66 -127 66zM498 556h-65
l-56 96l-96 -96h-68l125 144h96zM262 -126c0 -35 -32 -65 -67 -65c-30 0 -52 22 -52 52c0 35 31 66 66 66c30 0 53 -23 53 -53z" />
    <glyph glyph-name="uni1EA7" unicode="&#x1ea7;" horiz-adv-x="581" 
d="M286 495c69 0 128 -31 160 -81l15 69h105l-107 -483h-105l14 64c-40 -49 -90 -76 -151 -76c-110 0 -185 72 -185 199c0 151 93 308 254 308zM302 402c-95 0 -160 -93 -160 -194c0 -78 49 -127 119 -127c51 0 98 30 126 68l42 187c-22 37 -68 66 -127 66zM498 556h-65
l-56 96l-96 -96h-68l125 144h96zM267 626h-75l-133 144h100z" />
    <glyph glyph-name="uni1EA9" unicode="&#x1ea9;" horiz-adv-x="581" 
d="M286 495c69 0 128 -31 160 -81l15 69h105l-107 -483h-105l14 64c-40 -49 -90 -76 -151 -76c-110 0 -185 72 -185 199c0 151 93 308 254 308zM302 402c-95 0 -160 -93 -160 -194c0 -78 49 -127 119 -127c51 0 98 30 126 68l42 187c-22 37 -68 66 -127 66zM498 556h-65
l-56 96l-96 -96h-68l125 144h96zM431 725l-35 18c16 29 44 47 78 47c35 0 71 -21 71 -61c0 -22 -10 -45 -26 -62h-51c21 18 32 35 32 57c0 17 -14 28 -30 28c-15 0 -28 -8 -39 -27z" />
    <glyph glyph-name="uni1EAF" unicode="&#x1eaf;" horiz-adv-x="581" 
d="M286 495c69 0 128 -31 160 -81l15 69h105l-107 -483h-105l14 64c-40 -49 -90 -76 -151 -76c-110 0 -185 72 -185 199c0 151 93 308 254 308zM302 402c-95 0 -160 -93 -160 -194c0 -78 49 -127 119 -127c51 0 98 30 126 68l42 187c-22 37 -68 66 -127 66zM562 773
l-197 -144h-77l172 144h102zM536 604c-52 -54 -122 -88 -194 -88c-71 0 -128 34 -157 88l55 40c20 -40 58 -66 113 -66c53 0 103 25 142 66z" />
    <glyph glyph-name="uni1EAB" unicode="&#x1eab;" horiz-adv-x="581" 
d="M286 495c69 0 128 -31 160 -81l15 69h105l-107 -483h-105l14 64c-40 -49 -90 -76 -151 -76c-110 0 -185 72 -185 199c0 151 93 308 254 308zM302 402c-95 0 -160 -93 -160 -194c0 -78 49 -127 119 -127c51 0 98 30 126 68l42 187c-22 37 -68 66 -127 66zM490 523h-65
l-56 96l-96 -96h-68l125 144h96zM455 682c-72 0 -70 78 -120 78c-23 0 -41 -22 -52 -72h-58c16 82 51 134 118 134c72 0 70 -78 120 -78c23 0 40 22 52 72h59c-18 -82 -52 -134 -119 -134z" />
    <glyph glyph-name="uni1EB1" unicode="&#x1eb1;" horiz-adv-x="581" 
d="M286 495c69 0 128 -31 160 -81l15 69h105l-107 -483h-105l14 64c-40 -49 -90 -76 -151 -76c-110 0 -185 72 -185 199c0 151 93 308 254 308zM302 402c-95 0 -160 -93 -160 -194c0 -78 49 -127 119 -127c51 0 98 30 126 68l42 187c-22 37 -68 66 -127 66zM448 629h-75
l-133 144h100zM538 609c-52 -54 -122 -88 -194 -88c-71 0 -128 34 -157 88l55 40c20 -40 58 -66 113 -66c53 0 103 25 142 66z" />
    <glyph glyph-name="uni1EB3" unicode="&#x1eb3;" horiz-adv-x="581" 
d="M286 495c69 0 128 -31 160 -81l15 69h105l-107 -483h-105l14 64c-40 -49 -90 -76 -151 -76c-110 0 -185 72 -185 199c0 151 93 308 254 308zM302 402c-95 0 -160 -93 -160 -194c0 -78 49 -127 119 -127c51 0 98 30 126 68l42 187c-22 37 -68 66 -127 66zM341 695l-35 18
c16 29 44 47 78 47c35 0 71 -21 71 -61c0 -22 -10 -45 -26 -62h-51c21 18 32 35 32 57c0 17 -14 28 -30 28c-15 0 -28 -8 -39 -27zM538 609c-52 -54 -122 -88 -194 -88c-71 0 -128 34 -157 88l55 40c20 -40 58 -66 113 -66c53 0 103 25 142 66z" />
    <glyph glyph-name="uni1EB5" unicode="&#x1eb5;" horiz-adv-x="581" 
d="M286 495c69 0 128 -31 160 -81l15 69h105l-107 -483h-105l14 64c-40 -49 -90 -76 -151 -76c-110 0 -185 72 -185 199c0 151 93 308 254 308zM302 402c-95 0 -160 -93 -160 -194c0 -78 49 -127 119 -127c51 0 98 30 126 68l42 187c-22 37 -68 66 -127 66zM538 609
c-52 -54 -122 -88 -194 -88c-71 0 -128 34 -157 88l55 40c20 -40 58 -66 113 -66c53 0 103 25 142 66zM454 677c-72 0 -70 78 -120 78c-23 0 -41 -22 -52 -72h-58c16 82 51 134 118 134c72 0 70 -78 120 -78c23 0 40 22 52 72h59c-18 -82 -52 -134 -119 -134z" />
    <glyph glyph-name="uni1EB7" unicode="&#x1eb7;" horiz-adv-x="581" 
d="M286 495c69 0 128 -31 160 -81l15 69h105l-107 -483h-105l14 64c-40 -49 -90 -76 -151 -76c-110 0 -185 72 -185 199c0 151 93 308 254 308zM302 402c-95 0 -160 -93 -160 -194c0 -78 49 -127 119 -127c51 0 98 30 126 68l42 187c-22 37 -68 66 -127 66zM262 -126
c0 -35 -32 -65 -67 -65c-30 0 -52 22 -52 52c0 35 31 66 66 66c30 0 53 -23 53 -53zM541 622c-52 -54 -122 -88 -194 -88c-71 0 -128 34 -157 88l55 40c20 -40 58 -66 113 -66c53 0 103 25 142 66z" />
    <glyph glyph-name="ae" unicode="&#xe6;" horiz-adv-x="924" 
d="M302 402c-95 0 -160 -93 -160 -194c0 -78 49 -127 119 -127c51 0 98 30 126 68l42 187c-22 37 -68 66 -127 66zM480 95l-21 -95h-105l14 64c-40 -49 -90 -76 -151 -76c-110 0 -185 72 -185 199c0 151 93 308 254 308c69 0 128 -31 160 -81l15 69h105l-15 -70
c34 42 91 82 160 82c117 0 181 -77 181 -207c0 -28 -6 -66 -10 -81h-372c-1 -3 -1 -12 -1 -17c0 -55 48 -114 146 -114c45 0 93 14 126 41l34 -76c-46 -32 -107 -53 -156 -53c-101 0 -155 47 -179 107zM520 281h274c1 3 1 10 1 14c0 62 -39 114 -123 114
c-77 0 -139 -61 -152 -128z" />
    <glyph glyph-name="aeacute" unicode="&#x1fd;" horiz-adv-x="924" 
d="M741 700l-197 -144h-77l172 144h102zM302 402c-95 0 -160 -93 -160 -194c0 -78 49 -127 119 -127c51 0 98 30 126 68l42 187c-22 37 -68 66 -127 66zM480 95l-21 -95h-105l14 64c-40 -49 -90 -76 -151 -76c-110 0 -185 72 -185 199c0 151 93 308 254 308
c69 0 128 -31 160 -81l15 69h105l-15 -70c34 42 91 82 160 82c117 0 181 -77 181 -207c0 -28 -6 -66 -10 -81h-372c-1 -3 -1 -12 -1 -17c0 -55 48 -114 146 -114c45 0 93 14 126 41l34 -76c-46 -32 -107 -53 -156 -53c-101 0 -155 47 -179 107zM520 281h274c1 3 1 10 1 14
c0 62 -39 114 -123 114c-77 0 -139 -61 -152 -128z" />
    <glyph glyph-name="aacute.alt1" horiz-adv-x="536" 
d="M547 700l-197 -144h-77l172 144h102zM421 0h-105l11 50c-38 -39 -84 -62 -146 -62c-83 0 -161 45 -161 140c0 111 83 177 180 177c73 0 126 -22 168 -68l15 66c1 4 3 18 3 26c0 47 -48 79 -119 79c-53 0 -100 -20 -138 -51l-28 76c56 42 119 62 187 62
c109 0 205 -42 205 -147c0 -11 -3 -36 -6 -49zM226 60c49 0 86 18 114 48l16 72c-21 34 -68 53 -122 53c-64 0 -106 -41 -106 -97c0 -50 40 -76 98 -76z" />
    <glyph glyph-name="abreve.alt1" horiz-adv-x="536" 
d="M421 0h-105l11 50c-38 -39 -84 -62 -146 -62c-83 0 -161 45 -161 140c0 111 83 177 180 177c73 0 126 -22 168 -68l15 66c1 4 3 18 3 26c0 47 -48 79 -119 79c-53 0 -100 -20 -138 -51l-28 76c56 42 119 62 187 62c109 0 205 -42 205 -147c0 -11 -3 -36 -6 -49zM226 60
c49 0 86 18 114 48l16 72c-21 34 -68 53 -122 53c-64 0 -106 -41 -106 -97c0 -50 40 -76 98 -76zM522 622c-52 -54 -122 -88 -194 -88c-71 0 -128 34 -157 88l55 40c20 -40 58 -66 113 -66c53 0 103 25 142 66z" />
    <glyph glyph-name="acircumflex.alt1" horiz-adv-x="536" 
d="M479 556h-65l-56 96l-96 -96h-68l125 144h96zM421 0h-105l11 50c-38 -39 -84 -62 -146 -62c-83 0 -161 45 -161 140c0 111 83 177 180 177c73 0 126 -22 168 -68l15 66c1 4 3 18 3 26c0 47 -48 79 -119 79c-53 0 -100 -20 -138 -51l-28 76c56 42 119 62 187 62
c109 0 205 -42 205 -147c0 -11 -3 -36 -6 -49zM226 60c49 0 86 18 114 48l16 72c-21 34 -68 53 -122 53c-64 0 -106 -41 -106 -97c0 -50 40 -76 98 -76z" />
    <glyph glyph-name="adieresis.alt1" horiz-adv-x="536" 
d="M511 614c0 -34 -31 -65 -66 -65c-29 0 -52 23 -52 52c0 35 32 65 66 65c30 0 52 -22 52 -52zM302 614c0 -34 -31 -65 -66 -65c-29 0 -52 23 -52 52c0 35 32 65 66 65c30 0 52 -22 52 -52zM421 0h-105l11 50c-38 -39 -84 -62 -146 -62c-83 0 -161 45 -161 140
c0 111 83 177 180 177c73 0 126 -22 168 -68l15 66c1 4 3 18 3 26c0 47 -48 79 -119 79c-53 0 -100 -20 -138 -51l-28 76c56 42 119 62 187 62c109 0 205 -42 205 -147c0 -11 -3 -36 -6 -49zM226 60c49 0 86 18 114 48l16 72c-21 34 -68 53 -122 53c-64 0 -106 -41 -106 -97
c0 -50 40 -76 98 -76z" />
    <glyph glyph-name="agrave.alt1" horiz-adv-x="536" 
d="M421 0h-105l11 50c-38 -39 -84 -62 -146 -62c-83 0 -161 45 -161 140c0 111 83 177 180 177c73 0 126 -22 168 -68l15 66c1 4 3 18 3 26c0 47 -48 79 -119 79c-53 0 -100 -20 -138 -51l-28 76c56 42 119 62 187 62c109 0 205 -42 205 -147c0 -11 -3 -36 -6 -49zM226 60
c49 0 86 18 114 48l16 72c-21 34 -68 53 -122 53c-64 0 -106 -41 -106 -97c0 -50 40 -76 98 -76zM399 556h-75l-133 144h100z" />
    <glyph glyph-name="amacron.alt1" horiz-adv-x="536" 
d="M520 566h-362l14 62h362zM421 0h-105l11 50c-38 -39 -84 -62 -146 -62c-83 0 -161 45 -161 140c0 111 83 177 180 177c73 0 126 -22 168 -68l15 66c1 4 3 18 3 26c0 47 -48 79 -119 79c-53 0 -100 -20 -138 -51l-28 76c56 42 119 62 187 62c109 0 205 -42 205 -147
c0 -11 -3 -36 -6 -49zM226 60c49 0 86 18 114 48l16 72c-21 34 -68 53 -122 53c-64 0 -106 -41 -106 -97c0 -50 40 -76 98 -76z" />
    <glyph glyph-name="aogonek.alt1" horiz-adv-x="536" 
d="M421 0c-60 -27 -97 -61 -97 -103c0 -23 16 -36 39 -36c21 0 38 14 50 37l38 -31c-21 -30 -50 -53 -93 -53c-48 0 -88 25 -88 74c0 43 23 82 65 112h-19l11 50c-38 -39 -84 -62 -146 -62c-83 0 -161 45 -161 140c0 111 83 177 180 177c73 0 126 -22 168 -68l15 66
c1 4 3 18 3 26c0 47 -48 79 -119 79c-53 0 -100 -20 -138 -51l-28 76c56 42 119 62 187 62c109 0 205 -42 205 -147c0 -11 -3 -36 -6 -49zM226 60c49 0 86 18 114 48l16 72c-21 34 -68 53 -122 53c-64 0 -106 -41 -106 -97c0 -50 40 -76 98 -76z" />
    <glyph glyph-name="aring.alt1" horiz-adv-x="536" 
d="M346 536c-55 0 -93 38 -93 93c0 60 52 112 112 112c55 0 93 -38 93 -93c0 -61 -51 -112 -112 -112zM350 587c31 0 57 25 57 56c0 28 -18 47 -46 47c-30 0 -57 -26 -57 -56c0 -28 19 -47 46 -47zM421 0h-105l11 50c-38 -39 -84 -62 -146 -62c-83 0 -161 45 -161 140
c0 111 83 177 180 177c73 0 126 -22 168 -68l15 66c1 4 3 18 3 26c0 47 -48 79 -119 79c-53 0 -100 -20 -138 -51l-28 76c56 42 119 62 187 62c109 0 205 -42 205 -147c0 -11 -3 -36 -6 -49zM226 60c49 0 86 18 114 48l16 72c-21 34 -68 53 -122 53c-64 0 -106 -41 -106 -97
c0 -50 40 -76 98 -76z" />
    <glyph glyph-name="atilde.alt1" horiz-adv-x="536" 
d="M421 0h-105l11 50c-38 -39 -84 -62 -146 -62c-83 0 -161 45 -161 140c0 111 83 177 180 177c73 0 126 -22 168 -68l15 66c1 4 3 18 3 26c0 47 -48 79 -119 79c-53 0 -100 -20 -138 -51l-28 76c56 42 119 62 187 62c109 0 205 -42 205 -147c0 -11 -3 -36 -6 -49zM226 60
c49 0 86 18 114 48l16 72c-21 34 -68 53 -122 53c-64 0 -106 -41 -106 -97c0 -50 40 -76 98 -76zM408 554c-72 0 -70 78 -120 78c-23 0 -41 -22 -52 -72h-58c16 82 51 134 118 134c72 0 70 -78 120 -78c23 0 40 22 52 72h59c-18 -82 -52 -134 -119 -134z" />
    <glyph glyph-name="uni1EA1.alt1" horiz-adv-x="536" 
d="M421 0h-105l11 50c-38 -39 -84 -62 -146 -62c-83 0 -161 45 -161 140c0 111 83 177 180 177c73 0 126 -22 168 -68l15 66c1 4 3 18 3 26c0 47 -48 79 -119 79c-53 0 -100 -20 -138 -51l-28 76c56 42 119 62 187 62c109 0 205 -42 205 -147c0 -11 -3 -36 -6 -49zM226 60
c49 0 86 18 114 48l16 72c-21 34 -68 53 -122 53c-64 0 -106 -41 -106 -97c0 -50 40 -76 98 -76zM242 -126c0 -35 -32 -65 -67 -65c-30 0 -52 22 -52 52c0 35 31 66 66 66c30 0 53 -23 53 -53z" />
    <glyph glyph-name="uni1EA3.alt1" horiz-adv-x="536" 
d="M421 0h-105l11 50c-38 -39 -84 -62 -146 -62c-83 0 -161 45 -161 140c0 111 83 177 180 177c73 0 126 -22 168 -68l15 66c1 4 3 18 3 26c0 47 -48 79 -119 79c-53 0 -100 -20 -138 -51l-28 76c56 42 119 62 187 62c109 0 205 -42 205 -147c0 -11 -3 -36 -6 -49zM226 60
c49 0 86 18 114 48l16 72c-21 34 -68 53 -122 53c-64 0 -106 -41 -106 -97c0 -50 40 -76 98 -76zM304 585l-35 18c16 29 44 47 78 47c35 0 71 -21 71 -61c0 -22 -10 -45 -26 -62h-51c21 18 32 35 32 57c0 17 -14 28 -30 28c-15 0 -28 -8 -39 -27z" />
    <glyph glyph-name="uni1EA5.alt1" horiz-adv-x="536" 
d="M477 556h-65l-56 96l-96 -96h-68l125 144h96zM726 770l-197 -144h-77l172 144h102zM421 0h-105l11 50c-38 -39 -84 -62 -146 -62c-83 0 -161 45 -161 140c0 111 83 177 180 177c73 0 126 -22 168 -68l15 66c1 4 3 18 3 26c0 47 -48 79 -119 79c-53 0 -100 -20 -138 -51
l-28 76c56 42 119 62 187 62c109 0 205 -42 205 -147c0 -11 -3 -36 -6 -49zM226 60c49 0 86 18 114 48l16 72c-21 34 -68 53 -122 53c-64 0 -106 -41 -106 -97c0 -50 40 -76 98 -76z" />
    <glyph glyph-name="uni1EAD.alt1" horiz-adv-x="536" 
d="M478 556h-65l-56 96l-96 -96h-68l125 144h96zM421 0h-105l11 50c-38 -39 -84 -62 -146 -62c-83 0 -161 45 -161 140c0 111 83 177 180 177c73 0 126 -22 168 -68l15 66c1 4 3 18 3 26c0 47 -48 79 -119 79c-53 0 -100 -20 -138 -51l-28 76c56 42 119 62 187 62
c109 0 205 -42 205 -147c0 -11 -3 -36 -6 -49zM226 60c49 0 86 18 114 48l16 72c-21 34 -68 53 -122 53c-64 0 -106 -41 -106 -97c0 -50 40 -76 98 -76zM242 -126c0 -35 -32 -65 -67 -65c-30 0 -52 22 -52 52c0 35 31 66 66 66c30 0 53 -23 53 -53z" />
    <glyph glyph-name="uni1EA7.alt1" horiz-adv-x="536" 
d="M480 556h-65l-56 96l-96 -96h-68l125 144h96zM421 0h-105l11 50c-38 -39 -84 -62 -146 -62c-83 0 -161 45 -161 140c0 111 83 177 180 177c73 0 126 -22 168 -68l15 66c1 4 3 18 3 26c0 47 -48 79 -119 79c-53 0 -100 -20 -138 -51l-28 76c56 42 119 62 187 62
c109 0 205 -42 205 -147c0 -11 -3 -36 -6 -49zM226 60c49 0 86 18 114 48l16 72c-21 34 -68 53 -122 53c-64 0 -106 -41 -106 -97c0 -50 40 -76 98 -76zM249 626h-75l-133 144h100z" />
    <glyph glyph-name="uni1EA9.alt1" horiz-adv-x="536" 
d="M478 556h-65l-56 96l-96 -96h-68l125 144h96zM421 0h-105l11 50c-38 -39 -84 -62 -146 -62c-83 0 -161 45 -161 140c0 111 83 177 180 177c73 0 126 -22 168 -68l15 66c1 4 3 18 3 26c0 47 -48 79 -119 79c-53 0 -100 -20 -138 -51l-28 76c56 42 119 62 187 62
c109 0 205 -42 205 -147c0 -11 -3 -36 -6 -49zM226 60c49 0 86 18 114 48l16 72c-21 34 -68 53 -122 53c-64 0 -106 -41 -106 -97c0 -50 40 -76 98 -76zM411 725l-35 18c16 29 44 47 78 47c35 0 71 -21 71 -61c0 -22 -10 -45 -26 -62h-51c21 18 32 35 32 57
c0 17 -14 28 -30 28c-15 0 -28 -8 -39 -27z" />
    <glyph glyph-name="uni1EAF.alt1" horiz-adv-x="536" 
d="M549 773l-197 -144h-77l172 144h102zM421 0h-105l11 50c-38 -39 -84 -62 -146 -62c-83 0 -161 45 -161 140c0 111 83 177 180 177c73 0 126 -22 168 -68l15 66c1 4 3 18 3 26c0 47 -48 79 -119 79c-53 0 -100 -20 -138 -51l-28 76c56 42 119 62 187 62
c109 0 205 -42 205 -147c0 -11 -3 -36 -6 -49zM226 60c49 0 86 18 114 48l16 72c-21 34 -68 53 -122 53c-64 0 -106 -41 -106 -97c0 -50 40 -76 98 -76zM518 604c-52 -54 -122 -88 -194 -88c-71 0 -128 34 -157 88l55 40c20 -40 58 -66 113 -66c53 0 103 25 142 66z" />
    <glyph glyph-name="uni1EAB.alt1" horiz-adv-x="536" 
d="M471 523h-65l-56 96l-96 -96h-68l125 144h96zM421 0h-105l11 50c-38 -39 -84 -62 -146 -62c-83 0 -161 45 -161 140c0 111 83 177 180 177c73 0 126 -22 168 -68l15 66c1 4 3 18 3 26c0 47 -48 79 -119 79c-53 0 -100 -20 -138 -51l-28 76c56 42 119 62 187 62
c109 0 205 -42 205 -147c0 -11 -3 -36 -6 -49zM226 60c49 0 86 18 114 48l16 72c-21 34 -68 53 -122 53c-64 0 -106 -41 -106 -97c0 -50 40 -76 98 -76zM436 682c-72 0 -70 78 -120 78c-23 0 -41 -22 -52 -72h-58c16 82 51 134 118 134c72 0 70 -78 120 -78
c23 0 40 22 52 72h59c-18 -82 -52 -134 -119 -134z" />
    <glyph glyph-name="uni1EB1.alt1" horiz-adv-x="536" 
d="M421 0h-105l11 50c-38 -39 -84 -62 -146 -62c-83 0 -161 45 -161 140c0 111 83 177 180 177c73 0 126 -22 168 -68l15 66c1 4 3 18 3 26c0 47 -48 79 -119 79c-53 0 -100 -20 -138 -51l-28 76c56 42 119 62 187 62c109 0 205 -42 205 -147c0 -11 -3 -36 -6 -49zM226 60
c49 0 86 18 114 48l16 72c-21 34 -68 53 -122 53c-64 0 -106 -41 -106 -97c0 -50 40 -76 98 -76zM429 629h-75l-133 144h100zM519 609c-52 -54 -122 -88 -194 -88c-71 0 -128 34 -157 88l55 40c20 -40 58 -66 113 -66c53 0 103 25 142 66z" />
    <glyph glyph-name="uni1EB3.alt1" horiz-adv-x="536" 
d="M421 0h-105l11 50c-38 -39 -84 -62 -146 -62c-83 0 -161 45 -161 140c0 111 83 177 180 177c73 0 126 -22 168 -68l15 66c1 4 3 18 3 26c0 47 -48 79 -119 79c-53 0 -100 -20 -138 -51l-28 76c56 42 119 62 187 62c109 0 205 -42 205 -147c0 -11 -3 -36 -6 -49zM226 60
c49 0 86 18 114 48l16 72c-21 34 -68 53 -122 53c-64 0 -106 -41 -106 -97c0 -50 40 -76 98 -76zM328 695l-35 18c16 29 44 47 78 47c35 0 71 -21 71 -61c0 -22 -10 -45 -26 -62h-51c21 18 32 35 32 57c0 17 -14 28 -30 28c-15 0 -28 -8 -39 -27zM519 609
c-52 -54 -122 -88 -194 -88c-71 0 -128 34 -157 88l55 40c20 -40 58 -66 113 -66c53 0 103 25 142 66z" />
    <glyph glyph-name="uni1EB5.alt1" horiz-adv-x="536" 
d="M519 609c-52 -54 -122 -88 -194 -88c-71 0 -128 34 -157 88l55 40c20 -40 58 -66 113 -66c53 0 103 25 142 66zM421 0h-105l11 50c-38 -39 -84 -62 -146 -62c-83 0 -161 45 -161 140c0 111 83 177 180 177c73 0 126 -22 168 -68l15 66c1 4 3 18 3 26c0 47 -48 79 -119 79
c-53 0 -100 -20 -138 -51l-28 76c56 42 119 62 187 62c109 0 205 -42 205 -147c0 -11 -3 -36 -6 -49zM226 60c49 0 86 18 114 48l16 72c-21 34 -68 53 -122 53c-64 0 -106 -41 -106 -97c0 -50 40 -76 98 -76zM435 677c-72 0 -70 78 -120 78c-23 0 -41 -22 -52 -72h-58
c16 82 51 134 118 134c72 0 70 -78 120 -78c23 0 40 22 52 72h59c-18 -82 -52 -134 -119 -134z" />
    <glyph glyph-name="uni1EB7.alt1" horiz-adv-x="536" 
d="M421 0h-105l11 50c-38 -39 -84 -62 -146 -62c-83 0 -161 45 -161 140c0 111 83 177 180 177c73 0 126 -22 168 -68l15 66c1 4 3 18 3 26c0 47 -48 79 -119 79c-53 0 -100 -20 -138 -51l-28 76c56 42 119 62 187 62c109 0 205 -42 205 -147c0 -11 -3 -36 -6 -49zM226 60
c49 0 86 18 114 48l16 72c-21 34 -68 53 -122 53c-64 0 -106 -41 -106 -97c0 -50 40 -76 98 -76zM243 -126c0 -35 -32 -65 -67 -65c-30 0 -52 22 -52 52c0 35 31 66 66 66c30 0 53 -23 53 -53zM522 622c-52 -54 -122 -88 -194 -88c-71 0 -128 34 -157 88l55 40
c20 -40 58 -66 113 -66c53 0 103 25 142 66z" />
    <glyph glyph-name="ae.alt1" horiz-adv-x="886" 
d="M842 207h-355c-1 -1 -1 -11 -1 -17c0 -56 46 -116 141 -116c39 0 82 13 116 40l34 -73c-42 -33 -92 -53 -149 -53c-100 0 -169 37 -208 100c-44 -63 -123 -100 -200 -100c-105 0 -200 44 -200 140c0 115 101 177 193 177c73 0 130 -22 172 -68l10 43c7 32 5 40 5 49
c0 49 -53 79 -120 79c-54 0 -110 -19 -151 -51l-28 76c56 43 132 62 200 62c86 0 152 -30 166 -105c37 59 103 105 193 105c113 0 192 -75 192 -214c0 -26 -8 -66 -10 -74zM500 281h257c1 5 1 9 1 14c0 65 -37 114 -113 114c-83 0 -129 -68 -145 -128zM370 166l3 14
c-21 34 -72 53 -126 53c-60 0 -119 -38 -119 -90c0 -46 46 -69 100 -69c65 0 130 38 142 92z" />
    <glyph glyph-name="aeacute.alt1" horiz-adv-x="886" 
d="M842 207h-355c-1 -1 -1 -11 -1 -17c0 -56 46 -116 141 -116c39 0 82 13 116 40l34 -73c-42 -33 -92 -53 -149 -53c-100 0 -169 37 -208 100c-44 -63 -123 -100 -200 -100c-105 0 -200 44 -200 140c0 115 101 177 193 177c73 0 130 -22 172 -68l10 43c7 32 5 40 5 49
c0 49 -53 79 -120 79c-54 0 -110 -19 -151 -51l-28 76c56 43 132 62 200 62c86 0 152 -30 166 -105c37 59 103 105 193 105c113 0 192 -75 192 -214c0 -26 -8 -66 -10 -74zM500 281h257c1 5 1 9 1 14c0 65 -37 114 -113 114c-83 0 -129 -68 -145 -128zM370 166l3 14
c-21 34 -72 53 -126 53c-60 0 -119 -38 -119 -90c0 -46 46 -69 100 -69c65 0 130 38 142 92zM707 700l-197 -144h-77l172 144h102z" />
    <glyph glyph-name="uni1E03" unicode="&#x1e03;" horiz-adv-x="581" 
d="M294 -12c-70 0 -128 31 -160 81l-15 -69h-105l147 667h105l-55 -248c41 49 91 76 152 76c109 0 185 -73 185 -200c0 -150 -94 -307 -254 -307zM278 81c95 0 160 93 160 193c0 78 -50 128 -119 128c-52 0 -98 -31 -127 -69l-41 -187c22 -37 68 -65 127 -65zM477 780
c0 -35 -32 -65 -67 -65c-30 0 -52 22 -52 52c0 35 31 66 66 66c30 0 53 -23 53 -53z" />
    <glyph glyph-name="cacute" unicode="&#x107;" horiz-adv-x="497" 
d="M570 700l-197 -144h-77l172 144h102zM264 -12c-138 0 -231 85 -231 218c0 159 121 289 277 289c95 0 157 -38 190 -93l-79 -60c-22 38 -63 60 -110 60c-104 0 -171 -90 -171 -192c0 -84 59 -129 134 -129c45 0 84 22 110 52l58 -70c-38 -40 -97 -75 -178 -75z" />
    <glyph glyph-name="ccedilla" unicode="&#xe7;" horiz-adv-x="497" 
d="M209 -194c-50 0 -92 18 -114 40l31 43c23 -23 54 -35 84 -35c35 0 55 16 55 40c0 15 -12 26 -33 26c-12 0 -23 -5 -32 -15l-35 23l39 66c-105 21 -171 99 -171 212c0 159 121 289 277 289c95 0 157 -38 190 -93l-79 -60c-22 38 -63 60 -110 60c-104 0 -171 -90 -171 -192
c0 -84 59 -129 134 -129c45 0 84 22 110 52l58 -70c-38 -40 -97 -75 -178 -75h-10l-25 -41c11 8 20 11 32 11c34 0 59 -23 59 -61c0 -55 -47 -91 -111 -91z" />
    <glyph glyph-name="ccircumflex" unicode="&#x109;" horiz-adv-x="497" 
d="M500 556h-65l-56 96l-96 -96h-68l125 144h96zM264 -12c-138 0 -231 85 -231 218c0 159 121 289 277 289c95 0 157 -38 190 -93l-79 -60c-22 38 -63 60 -110 60c-104 0 -171 -90 -171 -192c0 -84 59 -129 134 -129c45 0 84 22 110 52l58 -70c-38 -40 -97 -75 -178 -75z
" />
    <glyph glyph-name="cdotaccent" unicode="&#x10b;" horiz-adv-x="497" 
d="M264 -12c-138 0 -231 85 -231 218c0 159 121 289 277 289c95 0 157 -38 190 -93l-79 -60c-22 38 -63 60 -110 60c-104 0 -171 -90 -171 -192c0 -84 59 -129 134 -129c45 0 84 22 110 52l58 -70c-38 -40 -97 -75 -178 -75zM429 613c0 -35 -32 -65 -67 -65
c-30 0 -52 22 -52 52c0 35 31 66 66 66c30 0 53 -23 53 -53z" />
    <glyph glyph-name="ccaron" unicode="&#x10d;" horiz-adv-x="497" 
d="M409 556h-96l-64 144h64l56 -97l96 97h69zM264 -12c-138 0 -231 85 -231 218c0 159 121 289 277 289c95 0 157 -38 190 -93l-79 -60c-22 38 -63 60 -110 60c-104 0 -171 -90 -171 -192c0 -84 59 -129 134 -129c45 0 84 22 110 52l58 -70c-38 -40 -97 -75 -178 -75z" />
    <glyph glyph-name="dcaron" unicode="&#x10f;" horiz-adv-x="670" 
d="M754 621c0 -59 -50 -124 -111 -154l-32 33c32 15 67 44 78 73h-8c-23 0 -43 17 -43 46c0 33 30 60 62 60c29 0 54 -20 54 -58zM286 495c69 0 128 -31 160 -81l56 253h105l-148 -667h-105l14 64c-40 -49 -90 -76 -151 -76c-110 0 -185 72 -185 199c0 151 93 308 254 308z
M302 402c-95 0 -160 -93 -160 -194c0 -78 49 -127 119 -127c51 0 98 30 126 68l42 187c-22 37 -68 66 -127 66z" />
    <glyph glyph-name="dcroat" unicode="&#x111;" horiz-adv-x="585" 
d="M286 495c69 0 128 -31 160 -81l26 117h-159l12 62h160l17 74h105l-17 -74h52l-12 -62h-53l-118 -531h-105l14 64c-40 -49 -90 -76 -151 -76c-110 0 -185 72 -185 199c0 151 93 308 254 308zM302 402c-95 0 -160 -93 -160 -194c0 -78 49 -127 119 -127c51 0 98 30 126 68
l42 187c-22 37 -68 66 -127 66z" />
    <glyph glyph-name="uni1E0B" unicode="&#x1e0b;" horiz-adv-x="581" 
d="M286 495c69 0 128 -31 160 -81l56 253h105l-148 -667h-105l14 64c-40 -49 -90 -76 -151 -76c-110 0 -185 72 -185 199c0 151 93 308 254 308zM302 402c-95 0 -160 -93 -160 -194c0 -78 49 -127 119 -127c51 0 98 30 126 68l42 187c-22 37 -68 66 -127 66zM461 780
c0 -35 -32 -65 -67 -65c-30 0 -52 22 -52 52c0 35 31 66 66 66c30 0 53 -23 53 -53z" />
    <glyph glyph-name="eacute" unicode="&#xe9;" horiz-adv-x="557" 
d="M565 700l-197 -144h-77l172 144h102zM277 -12c-150 0 -244 83 -244 216c0 158 118 291 276 291c125 0 213 -84 213 -214c0 -26 -5 -59 -9 -74h-374c0 -3 -1 -12 -1 -17c0 -55 49 -116 147 -116c44 0 95 14 129 40l33 -73c-45 -33 -109 -53 -170 -53zM150 281h277
c1 3 1 10 1 14c0 62 -42 114 -127 114c-77 0 -138 -61 -151 -128z" />
    <glyph glyph-name="ebreve" unicode="&#x115;" horiz-adv-x="557" 
d="M277 -12c-150 0 -244 83 -244 216c0 158 118 291 276 291c125 0 213 -84 213 -214c0 -26 -5 -59 -9 -74h-374c0 -3 -1 -12 -1 -17c0 -55 49 -116 147 -116c44 0 95 14 129 40l33 -73c-45 -33 -109 -53 -170 -53zM150 281h277c1 3 1 10 1 14c0 62 -42 114 -127 114
c-77 0 -138 -61 -151 -128zM539 622c-52 -54 -122 -88 -194 -88c-71 0 -128 34 -157 88l55 40c20 -40 58 -66 113 -66c53 0 103 25 142 66z" />
    <glyph glyph-name="ecircumflex" unicode="&#xea;" horiz-adv-x="557" 
d="M494 556h-65l-56 96l-96 -96h-68l125 144h96zM277 -12c-150 0 -244 83 -244 216c0 158 118 291 276 291c125 0 213 -84 213 -214c0 -26 -5 -59 -9 -74h-374c0 -3 -1 -12 -1 -17c0 -55 49 -116 147 -116c44 0 95 14 129 40l33 -73c-45 -33 -109 -53 -170 -53zM150 281h277
c1 3 1 10 1 14c0 62 -42 114 -127 114c-77 0 -138 -61 -151 -128z" />
    <glyph glyph-name="edieresis" unicode="&#xeb;" horiz-adv-x="557" 
d="M529 614c0 -34 -31 -65 -66 -65c-29 0 -52 23 -52 52c0 35 32 65 66 65c30 0 52 -22 52 -52zM320 614c0 -34 -31 -65 -66 -65c-29 0 -52 23 -52 52c0 35 32 65 66 65c30 0 52 -22 52 -52zM277 -12c-150 0 -244 83 -244 216c0 158 118 291 276 291c125 0 213 -84 213 -214
c0 -26 -5 -59 -9 -74h-374c0 -3 -1 -12 -1 -17c0 -55 49 -116 147 -116c44 0 95 14 129 40l33 -73c-45 -33 -109 -53 -170 -53zM150 281h277c1 3 1 10 1 14c0 62 -42 114 -127 114c-77 0 -138 -61 -151 -128z" />
    <glyph glyph-name="edotaccent" unicode="&#x117;" horiz-adv-x="557" 
d="M277 -12c-150 0 -244 83 -244 216c0 158 118 291 276 291c125 0 213 -84 213 -214c0 -26 -5 -59 -9 -74h-374c0 -3 -1 -12 -1 -17c0 -55 49 -116 147 -116c44 0 95 14 129 40l33 -73c-45 -33 -109 -53 -170 -53zM150 281h277c1 3 1 10 1 14c0 62 -42 114 -127 114
c-77 0 -138 -61 -151 -128zM425 613c0 -35 -32 -65 -67 -65c-30 0 -52 22 -52 52c0 35 31 66 66 66c30 0 53 -23 53 -53z" />
    <glyph glyph-name="egrave" unicode="&#xe8;" horiz-adv-x="557" 
d="M277 -12c-150 0 -244 83 -244 216c0 158 118 291 276 291c125 0 213 -84 213 -214c0 -26 -5 -59 -9 -74h-374c0 -3 -1 -12 -1 -17c0 -55 49 -116 147 -116c44 0 95 14 129 40l33 -73c-45 -33 -109 -53 -170 -53zM150 281h277c1 3 1 10 1 14c0 62 -42 114 -127 114
c-77 0 -138 -61 -151 -128zM414 556h-75l-133 144h100z" />
    <glyph glyph-name="emacron" unicode="&#x113;" horiz-adv-x="557" 
d="M277 -12c-150 0 -244 83 -244 216c0 158 118 291 276 291c125 0 213 -84 213 -214c0 -26 -5 -59 -9 -74h-374c0 -3 -1 -12 -1 -17c0 -55 49 -116 147 -116c44 0 95 14 129 40l33 -73c-45 -33 -109 -53 -170 -53zM150 281h277c1 3 1 10 1 14c0 62 -42 114 -127 114
c-77 0 -138 -61 -151 -128zM537 566h-362l14 62h362z" />
    <glyph glyph-name="eogonek" unicode="&#x119;" horiz-adv-x="557" 
d="M353 -102l38 -31c-21 -30 -50 -53 -93 -53c-48 0 -88 25 -88 74c0 38 17 72 50 101c-140 6 -227 87 -227 215c0 158 118 291 276 291c125 0 213 -84 213 -214c0 -26 -5 -59 -9 -74h-374c0 -3 -1 -12 -1 -17c0 -55 49 -116 147 -116c44 0 95 14 129 40l33 -73
c-25 -18 -54 -32 -86 -41c-60 -27 -97 -61 -97 -103c0 -23 16 -36 39 -36c21 0 38 14 50 37zM150 281h277c1 3 1 10 1 14c0 62 -42 114 -127 114c-77 0 -138 -61 -151 -128z" />
    <glyph glyph-name="ecaron" unicode="&#x11b;" horiz-adv-x="557" 
d="M404 556h-96l-64 144h64l56 -97l96 97h69zM277 -12c-150 0 -244 83 -244 216c0 158 118 291 276 291c125 0 213 -84 213 -214c0 -26 -5 -59 -9 -74h-374c0 -3 -1 -12 -1 -17c0 -55 49 -116 147 -116c44 0 95 14 129 40l33 -73c-45 -33 -109 -53 -170 -53zM150 281h277
c1 3 1 10 1 14c0 62 -42 114 -127 114c-77 0 -138 -61 -151 -128z" />
    <glyph glyph-name="uni1EB9" unicode="&#x1eb9;" horiz-adv-x="557" 
d="M277 -12c-150 0 -244 83 -244 216c0 158 118 291 276 291c125 0 213 -84 213 -214c0 -26 -5 -59 -9 -74h-374c0 -3 -1 -12 -1 -17c0 -55 49 -116 147 -116c44 0 95 14 129 40l33 -73c-45 -33 -109 -53 -170 -53zM150 281h277c1 3 1 10 1 14c0 62 -42 114 -127 114
c-77 0 -138 -61 -151 -128zM261 -126c0 -35 -32 -65 -67 -65c-30 0 -52 22 -52 52c0 35 31 66 66 66c30 0 53 -23 53 -53z" />
    <glyph glyph-name="uni1EBB" unicode="&#x1ebb;" horiz-adv-x="557" 
d="M277 -12c-150 0 -244 83 -244 216c0 158 118 291 276 291c125 0 213 -84 213 -214c0 -26 -5 -59 -9 -74h-374c0 -3 -1 -12 -1 -17c0 -55 49 -116 147 -116c44 0 95 14 129 40l33 -73c-45 -33 -109 -53 -170 -53zM150 281h277c1 3 1 10 1 14c0 62 -42 114 -127 114
c-77 0 -138 -61 -151 -128zM322 585l-35 18c16 29 44 47 78 47c35 0 71 -21 71 -61c0 -22 -10 -45 -26 -62h-51c21 18 32 35 32 57c0 17 -14 28 -30 28c-15 0 -28 -8 -39 -27z" />
    <glyph glyph-name="uni1EBD" unicode="&#x1ebd;" horiz-adv-x="557" 
d="M277 -12c-150 0 -244 83 -244 216c0 158 118 291 276 291c125 0 213 -84 213 -214c0 -26 -5 -59 -9 -74h-374c0 -3 -1 -12 -1 -17c0 -55 49 -116 147 -116c44 0 95 14 129 40l33 -73c-45 -33 -109 -53 -170 -53zM150 281h277c1 3 1 10 1 14c0 62 -42 114 -127 114
c-77 0 -138 -61 -151 -128zM424 554c-72 0 -70 78 -120 78c-23 0 -41 -22 -52 -72h-58c16 82 51 134 118 134c72 0 70 -78 120 -78c23 0 40 22 52 72h59c-18 -82 -52 -134 -119 -134z" />
    <glyph glyph-name="uni1EBF" unicode="&#x1ebf;" horiz-adv-x="557" 
d="M495 556h-65l-56 96l-96 -96h-68l125 144h96zM744 770l-197 -144h-77l172 144h102zM277 -12c-150 0 -244 83 -244 216c0 158 118 291 276 291c125 0 213 -84 213 -214c0 -26 -5 -59 -9 -74h-374c0 -3 -1 -12 -1 -17c0 -55 49 -116 147 -116c44 0 95 14 129 40l33 -73
c-45 -33 -109 -53 -170 -53zM150 281h277c1 3 1 10 1 14c0 62 -42 114 -127 114c-77 0 -138 -61 -151 -128z" />
    <glyph glyph-name="uni1EC1" unicode="&#x1ec1;" horiz-adv-x="557" 
d="M497 556h-65l-56 96l-96 -96h-68l125 144h96zM277 -12c-150 0 -244 83 -244 216c0 158 118 291 276 291c125 0 213 -84 213 -214c0 -26 -5 -59 -9 -74h-374c0 -3 -1 -12 -1 -17c0 -55 49 -116 147 -116c44 0 95 14 129 40l33 -73c-45 -33 -109 -53 -170 -53zM150 281h277
c1 3 1 10 1 14c0 62 -42 114 -127 114c-77 0 -138 -61 -151 -128zM266 626h-75l-133 144h100z" />
    <glyph glyph-name="uni1EC3" unicode="&#x1ec3;" horiz-adv-x="557" 
d="M496 556h-65l-56 96l-96 -96h-68l125 144h96zM277 -12c-150 0 -244 83 -244 216c0 158 118 291 276 291c125 0 213 -84 213 -214c0 -26 -5 -59 -9 -74h-374c0 -3 -1 -12 -1 -17c0 -55 49 -116 147 -116c44 0 95 14 129 40l33 -73c-45 -33 -109 -53 -170 -53zM150 281h277
c1 3 1 10 1 14c0 62 -42 114 -127 114c-77 0 -138 -61 -151 -128zM429 725l-35 18c16 29 44 47 78 47c35 0 71 -21 71 -61c0 -22 -10 -45 -26 -62h-51c21 18 32 35 32 57c0 17 -14 28 -30 28c-15 0 -28 -8 -39 -27z" />
    <glyph glyph-name="uni1EC5" unicode="&#x1ec5;" horiz-adv-x="557" 
d="M490 523h-65l-56 96l-96 -96h-68l125 144h96zM277 -12c-150 0 -244 83 -244 216c0 158 118 291 276 291c125 0 213 -84 213 -214c0 -26 -5 -59 -9 -74h-374c0 -3 -1 -12 -1 -17c0 -55 49 -116 147 -116c44 0 95 14 129 40l33 -73c-45 -33 -109 -53 -170 -53zM150 281h277
c1 3 1 10 1 14c0 62 -42 114 -127 114c-77 0 -138 -61 -151 -128zM453 682c-72 0 -70 78 -120 78c-23 0 -41 -22 -52 -72h-58c16 82 51 134 118 134c72 0 70 -78 120 -78c23 0 40 22 52 72h59c-18 -82 -52 -134 -119 -134z" />
    <glyph glyph-name="uni1EC7" unicode="&#x1ec7;" horiz-adv-x="557" 
d="M497 556h-65l-56 96l-96 -96h-68l125 144h96zM277 -12c-150 0 -244 83 -244 216c0 158 118 291 276 291c125 0 213 -84 213 -214c0 -26 -5 -59 -9 -74h-374c0 -3 -1 -12 -1 -17c0 -55 49 -116 147 -116c44 0 95 14 129 40l33 -73c-45 -33 -109 -53 -170 -53zM150 281h277
c1 3 1 10 1 14c0 62 -42 114 -127 114c-77 0 -138 -61 -151 -128zM261 -126c0 -35 -32 -65 -67 -65c-30 0 -52 22 -52 52c0 35 31 66 66 66c30 0 53 -23 53 -53z" />
    <glyph glyph-name="fl.alt1" horiz-adv-x="594" 
d="M144 0h-105l87 391h-80l20 92h80l6 27c23 106 80 167 171 167c36 0 70 -7 99 -26l-38 -74c-13 10 -31 14 -49 14c-42 0 -66 -26 -78 -81l-6 -27h98l-20 -92h-98zM474 -12c-81 0 -130 34 -130 94c0 11 1 22 3 34l122 551h105l-116 -525c-2 -9 -3 -16 -3 -22
c0 -24 20 -39 49 -39c15 0 32 6 40 13l6 -84c-15 -12 -42 -22 -76 -22z" />
    <glyph glyph-name="f_f_l.alt1" horiz-adv-x="902" 
d="M452 0h-105l87 391h-80l20 92h80l6 27c23 106 80 167 171 167c36 0 70 -7 99 -26l-38 -74c-13 10 -31 14 -49 14c-42 0 -66 -26 -78 -81l-6 -27h98l-20 -92h-98zM783 -12c-81 0 -130 34 -130 94c0 11 1 22 3 34l122 551h105l-116 -525c-2 -9 -3 -16 -3 -22
c0 -24 20 -39 49 -39c15 0 32 6 40 13l6 -84c-15 -12 -42 -22 -76 -22zM145 0h-105l86 392h-80l21 91h79l6 27c21 92 73 167 176 167c50 0 87 -14 118 -45l-54 -63c-14 14 -31 22 -57 22c-44 0 -66 -27 -78 -81l-6 -27h99l-21 -91h-98z" />
    <glyph glyph-name="uni1E1F" unicode="&#x1e1f;" horiz-adv-x="308" 
d="M407 780c0 -35 -32 -65 -67 -65c-30 0 -52 22 -52 52c0 35 31 66 66 66c30 0 53 -23 53 -53zM145 0h-105l86 392h-80l21 91h79l6 27c21 92 73 167 176 167c50 0 87 -14 118 -45l-54 -63c-14 14 -31 22 -57 22c-44 0 -66 -27 -78 -81l-6 -27h99l-21 -91h-98z" />
    <glyph glyph-name="gcircumflex" unicode="&#x11d;" horiz-adv-x="580" 
d="M490 548h-65l-56 96l-96 -96h-68l125 144h96zM212 -196c-94 0 -171 21 -226 83l63 70c32 -45 94 -67 161 -67c65 0 125 31 148 135l12 52c-38 -47 -92 -77 -155 -77c-99 0 -183 59 -183 198c0 149 94 297 251 297c61 0 126 -33 161 -81l16 69h105l-102 -458
c-37 -173 -147 -221 -251 -221zM262 93c48 0 96 29 126 65l39 175c-25 43 -75 69 -132 69c-92 0 -154 -88 -154 -185c0 -76 48 -124 121 -124z" />
    <glyph glyph-name="gbreve" unicode="&#x11f;" horiz-adv-x="580" 
d="M212 -196c-94 0 -171 21 -226 83l63 70c32 -45 94 -67 161 -67c65 0 125 31 148 135l12 52c-38 -47 -92 -77 -155 -77c-99 0 -183 59 -183 198c0 149 94 297 251 297c61 0 126 -33 161 -81l16 69h105l-102 -458c-37 -173 -147 -221 -251 -221zM262 93c48 0 96 29 126 65
l39 175c-25 43 -75 69 -132 69c-92 0 -154 -88 -154 -185c0 -76 48 -124 121 -124zM534 622c-52 -54 -122 -88 -194 -88c-71 0 -128 34 -157 88l55 40c20 -40 58 -66 113 -66c53 0 103 25 142 66z" />
    <glyph glyph-name="gdotaccent" unicode="&#x121;" horiz-adv-x="580" 
d="M212 -196c-94 0 -171 21 -226 83l63 70c32 -45 94 -67 161 -67c65 0 125 31 148 135l12 52c-38 -47 -92 -77 -155 -77c-99 0 -183 59 -183 198c0 149 94 297 251 297c61 0 126 -33 161 -81l16 69h105l-102 -458c-37 -173 -147 -221 -251 -221zM262 93c48 0 96 29 126 65
l39 175c-25 43 -75 69 -132 69c-92 0 -154 -88 -154 -185c0 -76 48 -124 121 -124zM420 613c0 -35 -32 -65 -67 -65c-30 0 -52 22 -52 52c0 35 31 66 66 66c30 0 53 -23 53 -53z" />
    <glyph glyph-name="gcommaaccent" unicode="&#x123;" horiz-adv-x="580" 
d="M306 607c0 60 51 125 112 156l32 -34c-32 -15 -67 -44 -79 -74h8c24 0 44 -17 44 -46c0 -34 -30 -61 -62 -61c-30 0 -55 20 -55 59zM212 -196c-94 0 -171 21 -226 83l63 70c32 -45 94 -67 161 -67c65 0 125 31 148 135l12 52c-38 -47 -92 -77 -155 -77
c-99 0 -183 59 -183 198c0 149 94 297 251 297c61 0 126 -33 161 -81l16 69h105l-102 -458c-37 -173 -147 -221 -251 -221zM262 93c48 0 96 29 126 65l39 175c-25 43 -75 69 -132 69c-92 0 -154 -88 -154 -185c0 -76 48 -124 121 -124z" />
    <glyph glyph-name="hbar" unicode="&#x127;" horiz-adv-x="568" 
d="M446 0h-105l66 303c2 8 5 23 5 30c0 49 -39 69 -90 69c-49 0 -97 -33 -129 -66l-74 -336h-105l117 531h-61l14 62h60l17 74h105l-17 -74h152l-14 -62h-151l-25 -114c40 38 95 78 165 78c90 0 148 -46 148 -122c0 -9 -3 -30 -5 -40z" />
    <glyph glyph-name="hcircumflex" unicode="&#x125;" horiz-adv-x="568" 
d="M534 723h-65l-56 96l-96 -96h-68l125 144h96zM446 0h-105l66 303c2 8 5 23 5 30c0 49 -39 69 -90 69c-49 0 -97 -33 -129 -66l-74 -336h-105l147 667h105l-55 -250c40 38 95 78 165 78c90 0 148 -46 148 -122c0 -9 -3 -30 -5 -40z" />
    <glyph glyph-name="uni1E23" unicode="&#x1e23;" horiz-adv-x="568" 
d="M446 0h-105l66 303c2 8 5 23 5 30c0 49 -39 69 -90 69c-49 0 -97 -33 -129 -66l-74 -336h-105l147 667h105l-55 -250c40 38 95 78 165 78c90 0 148 -46 148 -122c0 -9 -3 -30 -5 -40zM463 780c0 -35 -32 -65 -67 -65c-30 0 -52 22 -52 52c0 35 31 66 66 66
c30 0 53 -23 53 -53z" />
    <glyph glyph-name="dotlessi" unicode="&#x131;" horiz-adv-x="241" 
d="M119 0h-105l107 483h105z" />
    <glyph glyph-name="iacute" unicode="&#xed;" horiz-adv-x="241" 
d="M401 700l-197 -144h-77l172 144h102zM119 0h-105l107 483h105z" />
    <glyph glyph-name="ibreve" unicode="&#x12d;" horiz-adv-x="241" 
d="M119 0h-105l107 483h105zM376 622c-52 -54 -122 -88 -194 -88c-71 0 -128 34 -157 88l55 40c20 -40 58 -66 113 -66c53 0 103 25 142 66z" />
    <glyph glyph-name="icircumflex" unicode="&#xee;" horiz-adv-x="241" 
d="M332 556h-65l-56 96l-96 -96h-68l125 144h96zM119 0h-105l107 483h105z" />
    <glyph glyph-name="idieresis" unicode="&#xef;" horiz-adv-x="241" 
d="M365 614c0 -34 -31 -65 -66 -65c-29 0 -52 23 -52 52c0 35 32 65 66 65c30 0 52 -22 52 -52zM156 614c0 -34 -31 -65 -66 -65c-29 0 -52 23 -52 52c0 35 32 65 66 65c30 0 52 -22 52 -52zM119 0h-105l107 483h105z" />
    <glyph glyph-name="igrave" unicode="&#xec;" horiz-adv-x="241" 
d="M119 0h-105l107 483h105zM250 556h-75l-133 144h100z" />
    <glyph glyph-name="imacron" unicode="&#x12b;" horiz-adv-x="241" 
d="M119 0h-105l107 483h105zM373 566h-362l14 62h362z" />
    <glyph glyph-name="iogonek" unicode="&#x12f;" horiz-adv-x="241" 
d="M111 -102l38 -31c-21 -30 -50 -53 -93 -53c-48 0 -88 25 -88 74c0 43 23 82 65 112h-19l107 483h105l-107 -483c-60 -27 -97 -61 -97 -103c0 -23 16 -36 39 -36c21 0 38 14 50 37zM193 542c-34 0 -59 25 -59 56c0 47 40 74 73 74c34 0 59 -26 59 -56
c0 -47 -40 -74 -73 -74z" />
    <glyph glyph-name="itilde" unicode="&#x129;" horiz-adv-x="241" 
d="M119 0h-105l107 483h105zM261 554c-72 0 -70 78 -120 78c-23 0 -41 -22 -52 -72h-58c16 82 51 134 118 134c72 0 70 -78 120 -78c23 0 40 22 52 72h59c-18 -82 -52 -134 -119 -134z" />
    <glyph glyph-name="uni1EC9" unicode="&#x1ec9;" horiz-adv-x="241" 
d="M119 0h-105l107 483h105zM158 585l-35 18c16 29 44 47 78 47c35 0 71 -21 71 -61c0 -22 -10 -45 -26 -62h-51c21 18 32 35 32 57c0 17 -14 28 -30 28c-15 0 -28 -8 -39 -27z" />
    <glyph glyph-name="uni1ECB" unicode="&#x1ecb;" horiz-adv-x="241" 
d="M193 542c-34 0 -59 25 -59 56c0 47 40 74 73 74c34 0 59 -26 59 -56c0 -47 -40 -74 -73 -74zM119 0h-105l107 483h105zM98 -126c0 -35 -32 -65 -67 -65c-30 0 -52 22 -52 52c0 35 31 66 66 66c30 0 53 -23 53 -53z" />
    <glyph glyph-name="ij" unicode="&#x133;" horiz-adv-x="482" 
d="M193 542c-34 0 -59 25 -59 56c0 47 40 74 73 74c34 0 59 -26 59 -56c0 -47 -40 -74 -73 -74zM119 0h-105l107 483h105zM181 -196c-56 0 -98 13 -126 41l46 75c15 -19 39 -30 65 -30c40 0 69 25 82 82l114 511h105l-114 -511c-23 -103 -72 -168 -172 -168zM434 542
c-34 0 -59 25 -59 56c0 47 40 74 73 74c34 0 59 -26 59 -56c0 -47 -40 -74 -73 -74z" />
    <glyph glyph-name="uni0237" unicode="&#x237;" horiz-adv-x="241" 
d="M-60 -196c-56 0 -98 13 -126 41l46 75c15 -19 39 -30 65 -30c40 0 69 25 82 82l114 511h105l-114 -511c-23 -103 -72 -168 -172 -168z" />
    <glyph glyph-name="jcircumflex" unicode="&#x135;" horiz-adv-x="241" 
d="M334 556h-65l-56 96l-96 -96h-68l125 144h96zM-60 -196c-56 0 -98 13 -126 41l46 75c15 -19 39 -30 65 -30c40 0 69 25 82 82l114 511h105l-114 -511c-23 -103 -72 -168 -172 -168z" />
    <glyph glyph-name="kcommaaccent" unicode="&#x137;" horiz-adv-x="526" 
d="M247 -121c0 -59 -50 -124 -111 -154l-32 33c32 15 67 44 78 73h-8c-23 0 -43 17 -43 46c0 33 30 60 62 60c29 0 54 -20 54 -58zM466 0h-127l-106 202l-86 -72l-28 -130h-105l147 667h105l-91 -411l259 227h135l-250 -219z" />
    <glyph glyph-name="kgreenlandic" unicode="&#x138;" horiz-adv-x="526" 
d="M466 0h-127l-106 202l-86 -72l-28 -130h-105l107 483h105l-51 -227l259 227h135l-250 -219z" />
    <glyph glyph-name="lacute" unicode="&#x13a;" horiz-adv-x="241" 
d="M439 867l-197 -144h-77l172 144h102zM119 0h-105l147 667h105z" />
    <glyph glyph-name="lcommaaccent" unicode="&#x13c;" horiz-adv-x="241" 
d="M97 -121c0 -59 -50 -124 -111 -154l-32 33c32 15 67 44 78 73h-8c-23 0 -43 17 -43 46c0 33 30 60 62 60c29 0 54 -20 54 -58zM119 0h-105l147 667h105z" />
    <glyph glyph-name="lcaron" unicode="&#x13e;" horiz-adv-x="327" 
d="M426 622c0 -59 -50 -124 -111 -154l-32 33c32 15 67 44 78 73h-8c-23 0 -43 17 -43 46c0 33 30 60 62 60c29 0 54 -20 54 -58zM119 0h-105l147 667h105z" />
    <glyph glyph-name="ldot" unicode="&#x140;" horiz-adv-x="351" 
d="M119 0h-105l147 667h105zM289 175c-36 0 -64 29 -64 64c0 42 35 76 77 76c35 0 63 -29 63 -65c0 -41 -35 -75 -76 -75z" />
    <glyph glyph-name="lslash" unicode="&#x142;" horiz-adv-x="299" 
d="M2 214l18 79l99 50l71 324h105l-58 -264l99 51l-18 -79l-99 -50l-71 -325h-105l58 264z" />
    <glyph glyph-name="lacute.alt1" horiz-adv-x="285" 
d="M435 867l-197 -144h-77l172 144h102zM166 -12c-81 0 -130 34 -130 94c0 11 1 22 3 34l122 551h105l-116 -525c-2 -9 -3 -16 -3 -22c0 -24 20 -39 49 -39c15 0 32 6 40 13l6 -84c-15 -12 -42 -22 -76 -22z" />
    <glyph glyph-name="lcommaaccent.alt1" horiz-adv-x="285" 
d="M106 -121c0 -59 -50 -124 -111 -154l-32 33c32 15 67 44 78 73h-8c-23 0 -43 17 -43 46c0 33 30 60 62 60c29 0 54 -20 54 -58zM166 -12c-81 0 -130 34 -130 94c0 11 1 22 3 34l122 551h105l-116 -525c-2 -9 -3 -16 -3 -22c0 -24 20 -39 49 -39c15 0 32 6 40 13l6 -84
c-15 -12 -42 -22 -76 -22z" />
    <glyph glyph-name="lcaron.alt1" horiz-adv-x="330" 
d="M426 622c0 -59 -50 -124 -111 -154l-32 33c32 15 67 44 78 73h-8c-23 0 -43 17 -43 46c0 33 30 60 62 60c29 0 54 -20 54 -58zM166 -12c-81 0 -130 34 -130 94c0 11 1 22 3 34l122 551h105l-116 -525c-2 -9 -3 -16 -3 -22c0 -24 20 -39 49 -39c15 0 32 6 40 13l6 -84
c-15 -12 -42 -22 -76 -22z" />
    <glyph glyph-name="ldot.alt1" horiz-adv-x="351" 
d="M166 -12c-81 0 -130 34 -130 94c0 11 1 22 3 34l122 551h105l-116 -525c-2 -9 -3 -16 -3 -22c0 -24 20 -39 49 -39c15 0 32 6 40 13l6 -84c-15 -12 -42 -22 -76 -22zM289 175c-36 0 -64 29 -64 64c0 42 35 76 77 76c35 0 63 -29 63 -65c0 -41 -35 -75 -76 -75z" />
    <glyph glyph-name="lslash.alt1" horiz-adv-x="314" 
d="M2 214l18 79l98 50l72 324h105l-58 -264l99 51l-18 -79l-99 -50l-40 -183c-2 -9 -3 -16 -3 -22c0 -24 20 -39 49 -39c15 0 32 6 40 13l6 -84c-15 -12 -42 -22 -76 -22c-81 0 -130 34 -130 94c0 11 1 22 3 34l33 148z" />
    <glyph glyph-name="nacute" unicode="&#x144;" 
d="M560 700l-197 -144h-77l172 144h102zM445 0h-105l67 303c2 9 5 20 5 30c0 49 -39 69 -81 69c-58 0 -106 -33 -138 -65l-74 -337h-105l107 483h105l-15 -66c40 38 95 78 165 78c90 0 148 -46 148 -122c0 -9 -3 -30 -5 -40z" />
    <glyph glyph-name="napostrophe" unicode="&#x149;" 
d="M265 697c0 -59 -50 -124 -111 -154l-32 33c32 15 67 44 78 73h-8c-23 0 -43 17 -43 46c0 33 30 60 62 60c29 0 54 -20 54 -58zM445 0h-105l67 303c2 9 5 20 5 30c0 49 -39 69 -81 69c-58 0 -106 -33 -138 -65l-74 -337h-105l107 483h105l-15 -66c40 38 95 78 165 78
c90 0 148 -46 148 -122c0 -9 -3 -30 -5 -40z" />
    <glyph glyph-name="ncaron" unicode="&#x148;" 
d="M400 556h-96l-64 144h64l56 -97l96 97h69zM445 0h-105l67 303c2 9 5 20 5 30c0 49 -39 69 -81 69c-58 0 -106 -33 -138 -65l-74 -337h-105l107 483h105l-15 -66c40 38 95 78 165 78c90 0 148 -46 148 -122c0 -9 -3 -30 -5 -40z" />
    <glyph glyph-name="ncommaaccent" unicode="&#x146;" 
d="M257 -121c0 -59 -50 -124 -111 -154l-32 33c32 15 67 44 78 73h-8c-23 0 -43 17 -43 46c0 33 30 60 62 60c29 0 54 -20 54 -58zM445 0h-105l67 303c2 9 5 20 5 30c0 49 -39 69 -81 69c-58 0 -106 -33 -138 -65l-74 -337h-105l107 483h105l-15 -66c40 38 95 78 165 78
c90 0 148 -46 148 -122c0 -9 -3 -30 -5 -40z" />
    <glyph glyph-name="ntilde" unicode="&#xf1;" 
d="M445 0h-105l67 303c2 9 5 20 5 30c0 49 -39 69 -81 69c-58 0 -106 -33 -138 -65l-74 -337h-105l107 483h105l-15 -66c40 38 95 78 165 78c90 0 148 -46 148 -122c0 -9 -3 -30 -5 -40zM421 554c-72 0 -70 78 -120 78c-23 0 -41 -22 -52 -72h-58c16 82 51 134 118 134
c72 0 70 -78 120 -78c23 0 40 22 52 72h59c-18 -82 -52 -134 -119 -134z" />
    <glyph glyph-name="eng" unicode="&#x14b;" 
d="M519 333l-80 -361c-23 -101 -71 -168 -172 -168c-56 0 -98 12 -126 41l48 82c15 -18 36 -30 64 -30c42 0 69 25 81 75l73 331c3 11 5 21 5 30c0 50 -39 69 -81 69c-58 0 -106 -33 -138 -65l-74 -337h-105l107 483h105l-15 -66c40 38 95 78 165 78c84 0 148 -41 148 -122
c0 -13 -2 -26 -5 -40z" />
    <glyph glyph-name="oacute" unicode="&#xf3;" horiz-adv-x="573" 
d="M565 700l-197 -144h-77l172 144h102zM264 -12c-147 0 -232 90 -232 217c0 151 115 290 275 290c147 0 232 -91 232 -218c0 -151 -115 -289 -275 -289zM267 81c96 0 163 93 163 192c0 79 -47 129 -126 129c-96 0 -163 -94 -163 -192c0 -79 47 -129 126 -129z" />
    <glyph glyph-name="obreve" unicode="&#x14f;" horiz-adv-x="573" 
d="M264 -12c-147 0 -232 90 -232 217c0 151 115 290 275 290c147 0 232 -91 232 -218c0 -151 -115 -289 -275 -289zM267 81c96 0 163 93 163 192c0 79 -47 129 -126 129c-96 0 -163 -94 -163 -192c0 -79 47 -129 126 -129zM540 622c-52 -54 -122 -88 -194 -88
c-71 0 -128 34 -157 88l55 40c20 -40 58 -66 113 -66c53 0 103 25 142 66z" />
    <glyph glyph-name="ocircumflex" unicode="&#xf4;" horiz-adv-x="573" 
d="M497 556h-65l-56 96l-96 -96h-68l125 144h96zM264 -12c-147 0 -232 90 -232 217c0 151 115 290 275 290c147 0 232 -91 232 -218c0 -151 -115 -289 -275 -289zM267 81c96 0 163 93 163 192c0 79 -47 129 -126 129c-96 0 -163 -94 -163 -192c0 -79 47 -129 126 -129z" />
    <glyph glyph-name="odieresis" unicode="&#xf6;" horiz-adv-x="573" 
d="M530 614c0 -34 -31 -65 -66 -65c-29 0 -52 23 -52 52c0 35 32 65 66 65c30 0 52 -22 52 -52zM321 614c0 -34 -31 -65 -66 -65c-29 0 -52 23 -52 52c0 35 32 65 66 65c30 0 52 -22 52 -52zM264 -12c-147 0 -232 90 -232 217c0 151 115 290 275 290c147 0 232 -91 232 -218
c0 -151 -115 -289 -275 -289zM267 81c96 0 163 93 163 192c0 79 -47 129 -126 129c-96 0 -163 -94 -163 -192c0 -79 47 -129 126 -129z" />
    <glyph glyph-name="ograve" unicode="&#xf2;" horiz-adv-x="573" 
d="M264 -12c-147 0 -232 90 -232 217c0 151 115 290 275 290c147 0 232 -91 232 -218c0 -151 -115 -289 -275 -289zM267 81c96 0 163 93 163 192c0 79 -47 129 -126 129c-96 0 -163 -94 -163 -192c0 -79 47 -129 126 -129zM417 556h-75l-133 144h100z" />
    <glyph glyph-name="ohungarumlaut" unicode="&#x151;" horiz-adv-x="573" 
d="M448 700l-147 -144h-65l122 144h90zM594 700l-147 -144h-65l122 144h90zM264 -12c-147 0 -232 90 -232 217c0 151 115 290 275 290c147 0 232 -91 232 -218c0 -151 -115 -289 -275 -289zM267 81c96 0 163 93 163 192c0 79 -47 129 -126 129c-96 0 -163 -94 -163 -192
c0 -79 47 -129 126 -129z" />
    <glyph glyph-name="omacron" unicode="&#x14d;" horiz-adv-x="573" 
d="M538 566h-362l14 62h362zM264 -12c-147 0 -232 90 -232 217c0 151 115 290 275 290c147 0 232 -91 232 -218c0 -151 -115 -289 -275 -289zM267 81c96 0 163 93 163 192c0 79 -47 129 -126 129c-96 0 -163 -94 -163 -192c0 -79 47 -129 126 -129z" />
    <glyph glyph-name="oslash" unicode="&#xf8;" horiz-adv-x="573" 
d="M66 0h-72l77 74c-25 35 -39 80 -39 131c0 151 115 290 275 290c64 0 116 -18 155 -48l37 36h73l-75 -72c27 -36 42 -82 42 -134c0 -151 -115 -289 -275 -289c-66 0 -120 18 -159 49zM267 81c96 0 163 93 163 192c0 23 -5 44 -13 62l-236 -226c21 -18 50 -28 86 -28z
M141 210c0 -22 4 -42 11 -59l235 225c-21 17 -49 26 -83 26c-96 0 -163 -94 -163 -192z" />
    <glyph glyph-name="oslashacute" unicode="&#x1ff;" horiz-adv-x="573" 
d="M566 700l-197 -144h-77l172 144h102zM66 0h-72l77 74c-25 35 -39 80 -39 131c0 151 115 290 275 290c64 0 116 -18 155 -48l37 36h73l-75 -72c27 -36 42 -82 42 -134c0 -151 -115 -289 -275 -289c-66 0 -120 18 -159 49zM267 81c96 0 163 93 163 192c0 23 -5 44 -13 62
l-236 -226c21 -18 50 -28 86 -28zM141 210c0 -22 4 -42 11 -59l235 225c-21 17 -49 26 -83 26c-96 0 -163 -94 -163 -192z" />
    <glyph glyph-name="otilde" unicode="&#xf5;" horiz-adv-x="573" 
d="M264 -12c-147 0 -232 90 -232 217c0 151 115 290 275 290c147 0 232 -91 232 -218c0 -151 -115 -289 -275 -289zM267 81c96 0 163 93 163 192c0 79 -47 129 -126 129c-96 0 -163 -94 -163 -192c0 -79 47 -129 126 -129zM427 554c-72 0 -70 78 -120 78
c-23 0 -41 -22 -52 -72h-58c16 82 51 134 118 134c72 0 70 -78 120 -78c23 0 40 22 52 72h59c-18 -82 -52 -134 -119 -134z" />
    <glyph glyph-name="uni1ECD" unicode="&#x1ecd;" horiz-adv-x="573" 
d="M264 -12c-147 0 -232 90 -232 217c0 151 115 290 275 290c147 0 232 -91 232 -218c0 -151 -115 -289 -275 -289zM267 81c96 0 163 93 163 192c0 79 -47 129 -126 129c-96 0 -163 -94 -163 -192c0 -79 47 -129 126 -129zM262 -126c0 -35 -32 -65 -67 -65
c-30 0 -52 22 -52 52c0 35 31 66 66 66c30 0 53 -23 53 -53z" />
    <glyph glyph-name="uni1ECF" unicode="&#x1ecf;" horiz-adv-x="573" 
d="M264 -12c-147 0 -232 90 -232 217c0 151 115 290 275 290c147 0 232 -91 232 -218c0 -151 -115 -289 -275 -289zM267 81c96 0 163 93 163 192c0 79 -47 129 -126 129c-96 0 -163 -94 -163 -192c0 -79 47 -129 126 -129zM322 585l-35 18c16 29 44 47 78 47
c35 0 71 -21 71 -61c0 -22 -10 -45 -26 -62h-51c21 18 32 35 32 57c0 17 -14 28 -30 28c-15 0 -28 -8 -39 -27z" />
    <glyph glyph-name="uni1ED1" unicode="&#x1ed1;" horiz-adv-x="573" 
d="M497 556h-65l-56 96l-96 -96h-68l125 144h96zM746 770l-197 -144h-77l172 144h102zM264 -12c-147 0 -232 90 -232 217c0 151 115 290 275 290c147 0 232 -91 232 -218c0 -151 -115 -289 -275 -289zM267 81c96 0 163 93 163 192c0 79 -47 129 -126 129
c-96 0 -163 -94 -163 -192c0 -79 47 -129 126 -129z" />
    <glyph glyph-name="uni1ED3" unicode="&#x1ed3;" horiz-adv-x="573" 
d="M498 556h-65l-56 96l-96 -96h-68l125 144h96zM264 -12c-147 0 -232 90 -232 217c0 151 115 290 275 290c147 0 232 -91 232 -218c0 -151 -115 -289 -275 -289zM267 81c96 0 163 93 163 192c0 79 -47 129 -126 129c-96 0 -163 -94 -163 -192c0 -79 47 -129 126 -129z
M267 626h-75l-133 144h100z" />
    <glyph glyph-name="uni1ED5" unicode="&#x1ed5;" horiz-adv-x="573" 
d="M497 556h-65l-56 96l-96 -96h-68l125 144h96zM264 -12c-147 0 -232 90 -232 217c0 151 115 290 275 290c147 0 232 -91 232 -218c0 -151 -115 -289 -275 -289zM267 81c96 0 163 93 163 192c0 79 -47 129 -126 129c-96 0 -163 -94 -163 -192c0 -79 47 -129 126 -129z
M430 725l-35 18c16 29 44 47 78 47c35 0 71 -21 71 -61c0 -22 -10 -45 -26 -62h-51c21 18 32 35 32 57c0 17 -14 28 -30 28c-15 0 -28 -8 -39 -27z" />
    <glyph glyph-name="uni1ED7" unicode="&#x1ed7;" horiz-adv-x="573" 
d="M490 523h-65l-56 96l-96 -96h-68l125 144h96zM264 -12c-147 0 -232 90 -232 217c0 151 115 290 275 290c147 0 232 -91 232 -218c0 -151 -115 -289 -275 -289zM267 81c96 0 163 93 163 192c0 79 -47 129 -126 129c-96 0 -163 -94 -163 -192c0 -79 47 -129 126 -129z
M455 682c-72 0 -70 78 -120 78c-23 0 -41 -22 -52 -72h-58c16 82 51 134 118 134c72 0 70 -78 120 -78c23 0 40 22 52 72h59c-18 -82 -52 -134 -119 -134z" />
    <glyph glyph-name="uni1ED9" unicode="&#x1ed9;" horiz-adv-x="573" 
d="M496 556h-65l-56 96l-96 -96h-68l125 144h96zM264 -12c-147 0 -232 90 -232 217c0 151 115 290 275 290c147 0 232 -91 232 -218c0 -151 -115 -289 -275 -289zM267 81c96 0 163 93 163 192c0 79 -47 129 -126 129c-96 0 -163 -94 -163 -192c0 -79 47 -129 126 -129z
M262 -126c0 -35 -32 -65 -67 -65c-30 0 -52 22 -52 52c0 35 31 66 66 66c30 0 53 -23 53 -53z" />
    <glyph glyph-name="ohorn" unicode="&#x1a1;" horiz-adv-x="573" 
d="M589 547c0 -51 -40 -107 -91 -137c26 -36 41 -81 41 -133c0 -151 -115 -289 -275 -289c-147 0 -232 90 -232 217c0 151 115 290 275 290c69 0 124 -20 163 -55c26 16 51 40 60 64c-1 -1 -5 -1 -7 -1c-21 0 -39 16 -39 42c0 31 27 55 56 55c26 0 49 -18 49 -53zM267 81
c96 0 163 93 163 192c0 79 -47 129 -126 129c-96 0 -163 -94 -163 -192c0 -79 47 -129 126 -129z" />
    <glyph glyph-name="uni1EDB" unicode="&#x1edb;" horiz-adv-x="573" 
d="M565 700l-197 -144h-77l172 144h102zM589 547c0 -51 -40 -107 -91 -137c26 -36 41 -81 41 -133c0 -151 -115 -289 -275 -289c-147 0 -232 90 -232 217c0 151 115 290 275 290c69 0 124 -20 163 -55c26 16 51 40 60 64c-1 -1 -5 -1 -7 -1c-21 0 -39 16 -39 42
c0 31 27 55 56 55c26 0 49 -18 49 -53zM267 81c96 0 163 93 163 192c0 79 -47 129 -126 129c-96 0 -163 -94 -163 -192c0 -79 47 -129 126 -129z" />
    <glyph glyph-name="uni1EDD" unicode="&#x1edd;" horiz-adv-x="573" 
d="M589 547c0 -51 -40 -107 -91 -137c26 -36 41 -81 41 -133c0 -151 -115 -289 -275 -289c-147 0 -232 90 -232 217c0 151 115 290 275 290c69 0 124 -20 163 -55c26 16 51 40 60 64c-1 -1 -5 -1 -7 -1c-21 0 -39 16 -39 42c0 31 27 55 56 55c26 0 49 -18 49 -53zM267 81
c96 0 163 93 163 192c0 79 -47 129 -126 129c-96 0 -163 -94 -163 -192c0 -79 47 -129 126 -129zM417 556h-75l-133 144h100z" />
    <glyph glyph-name="uni1EDF" unicode="&#x1edf;" horiz-adv-x="573" 
d="M589 547c0 -51 -40 -107 -91 -137c26 -36 41 -81 41 -133c0 -151 -115 -289 -275 -289c-147 0 -232 90 -232 217c0 151 115 290 275 290c69 0 124 -20 163 -55c26 16 51 40 60 64c-1 -1 -5 -1 -7 -1c-21 0 -39 16 -39 42c0 31 27 55 56 55c26 0 49 -18 49 -53zM267 81
c96 0 163 93 163 192c0 79 -47 129 -126 129c-96 0 -163 -94 -163 -192c0 -79 47 -129 126 -129zM323 585l-35 18c16 29 44 47 78 47c35 0 71 -21 71 -61c0 -22 -10 -45 -26 -62h-51c21 18 32 35 32 57c0 17 -14 28 -30 28c-15 0 -28 -8 -39 -27z" />
    <glyph glyph-name="uni1EE1" unicode="&#x1ee1;" horiz-adv-x="573" 
d="M589 547c0 -51 -40 -107 -91 -137c26 -36 41 -81 41 -133c0 -151 -115 -289 -275 -289c-147 0 -232 90 -232 217c0 151 115 290 275 290c69 0 124 -20 163 -55c26 16 51 40 60 64c-1 -1 -5 -1 -7 -1c-21 0 -39 16 -39 42c0 31 27 55 56 55c26 0 49 -18 49 -53zM267 81
c96 0 163 93 163 192c0 79 -47 129 -126 129c-96 0 -163 -94 -163 -192c0 -79 47 -129 126 -129zM404 554c-72 0 -70 78 -120 78c-23 0 -41 -22 -52 -72h-58c16 82 51 134 118 134c72 0 70 -78 120 -78c23 0 40 22 52 72h59c-18 -82 -52 -134 -119 -134z" />
    <glyph glyph-name="uni1EE3" unicode="&#x1ee3;" horiz-adv-x="573" 
d="M589 547c0 -51 -40 -107 -91 -137c26 -36 41 -81 41 -133c0 -151 -115 -289 -275 -289c-147 0 -232 90 -232 217c0 151 115 290 275 290c69 0 124 -20 163 -55c26 16 51 40 60 64c-1 -1 -5 -1 -7 -1c-21 0 -39 16 -39 42c0 31 27 55 56 55c26 0 49 -18 49 -53zM267 81
c96 0 163 93 163 192c0 79 -47 129 -126 129c-96 0 -163 -94 -163 -192c0 -79 47 -129 126 -129zM262 -126c0 -35 -32 -65 -67 -65c-30 0 -52 22 -52 52c0 35 31 66 66 66c30 0 53 -23 53 -53z" />
    <glyph glyph-name="oe" unicode="&#x153;" horiz-adv-x="944" 
d="M902 207h-370c0 -3 -1 -10 -1 -17c0 -58 50 -116 145 -116c45 0 95 15 127 40l33 -73c-41 -31 -102 -53 -168 -53c-114 0 -184 69 -202 120c-39 -49 -95 -120 -204 -120c-136 0 -230 80 -230 217c0 147 110 290 273 290c110 0 172 -73 189 -121c38 49 100 121 206 121
c117 0 211 -76 211 -214c0 -26 -5 -56 -9 -74zM543 281h273c1 4 1 8 1 14c0 61 -40 114 -124 114c-82 0 -141 -70 -150 -128zM426 273c0 90 -58 129 -124 129c-90 0 -161 -87 -161 -192c0 -79 46 -129 124 -129c93 0 161 89 161 192z" />
    <glyph glyph-name="uni1E57" unicode="&#x1e57;" horiz-adv-x="578" 
d="M294 -12c-70 0 -128 31 -160 81l-56 -253h-105l148 667h105l-15 -64c41 49 91 76 152 76c109 0 185 -73 185 -200c0 -150 -94 -307 -254 -307zM278 81c95 0 160 93 160 193c0 78 -50 128 -119 128c-52 0 -98 -31 -127 -69l-41 -187c22 -37 68 -65 127 -65zM440 613
c0 -35 -32 -65 -67 -65c-30 0 -52 22 -52 52c0 35 31 66 66 66c30 0 53 -23 53 -53z" />
    <glyph glyph-name="racute" unicode="&#x155;" horiz-adv-x="347" 
d="M483 700l-197 -144h-77l172 144h102zM119 0h-105l107 483h105l-16 -68c45 50 96 79 175 79l-23 -105c-7 2 -24 5 -43 5c-50 0 -99 -31 -128 -67z" />
    <glyph glyph-name="rcaron" unicode="&#x159;" horiz-adv-x="347" 
d="M322 556h-96l-64 144h64l56 -97l96 97h69zM119 0h-105l107 483h105l-16 -68c45 50 96 79 175 79l-23 -105c-7 2 -24 5 -43 5c-50 0 -99 -31 -128 -67z" />
    <glyph glyph-name="rcommaaccent" unicode="&#x157;" horiz-adv-x="347" 
d="M181 -121c0 -59 -50 -124 -111 -154l-32 33c32 15 67 44 78 73h-8c-23 0 -43 17 -43 46c0 33 30 60 62 60c29 0 54 -20 54 -58zM119 0h-105l107 483h105l-16 -68c45 50 96 79 175 79l-23 -105c-7 2 -24 5 -43 5c-50 0 -99 -31 -128 -67z" />
    <glyph glyph-name="sacute" unicode="&#x15b;" horiz-adv-x="472" 
d="M518 700l-197 -144h-77l172 144h102zM214 -12c-88 0 -168 30 -218 86l62 73c27 -36 94 -76 165 -76c54 0 87 31 87 65c0 77 -249 61 -249 202c0 82 68 157 192 157c82 0 156 -33 196 -79l-56 -69c-23 32 -83 64 -143 64c-54 0 -85 -25 -85 -57c0 -71 250 -57 250 -201
c0 -89 -74 -165 -201 -165z" />
    <glyph glyph-name="scaron" unicode="&#x161;" horiz-adv-x="472" 
d="M357 556h-96l-64 144h64l56 -97l96 97h69zM214 -12c-88 0 -168 30 -218 86l62 73c27 -36 94 -76 165 -76c54 0 87 31 87 65c0 77 -249 61 -249 202c0 82 68 157 192 157c82 0 156 -33 196 -79l-56 -69c-23 32 -83 64 -143 64c-54 0 -85 -25 -85 -57
c0 -71 250 -57 250 -201c0 -89 -74 -165 -201 -165z" />
    <glyph glyph-name="scircumflex" unicode="&#x15d;" horiz-adv-x="472" 
d="M449 556h-65l-56 96l-96 -96h-68l125 144h96zM214 -12c-88 0 -168 30 -218 86l62 73c27 -36 94 -76 165 -76c54 0 87 31 87 65c0 77 -249 61 -249 202c0 82 68 157 192 157c82 0 156 -33 196 -79l-56 -69c-23 32 -83 64 -143 64c-54 0 -85 -25 -85 -57
c0 -71 250 -57 250 -201c0 -89 -74 -165 -201 -165z" />
    <glyph glyph-name="scedilla" unicode="&#x15f;" horiz-adv-x="472" 
d="M151 -194c-50 0 -92 18 -114 40l31 43c23 -23 54 -35 84 -35c35 0 55 16 55 40c0 15 -12 26 -33 26c-12 0 -23 -5 -32 -15l-35 23l39 66c-61 11 -113 39 -150 80l62 73c27 -36 94 -76 165 -76c54 0 87 31 87 65c0 77 -249 61 -249 202c0 82 68 157 192 157
c82 0 156 -33 196 -79l-56 -69c-23 32 -83 64 -143 64c-54 0 -85 -25 -85 -57c0 -71 250 -57 250 -201c0 -89 -74 -165 -201 -165c-6 0 -12 0 -17 1l-26 -42c11 8 20 11 32 11c34 0 59 -23 59 -61c0 -55 -47 -91 -111 -91z" />
    <glyph glyph-name="scommaaccent" unicode="&#x219;" horiz-adv-x="472" 
d="M214 -121c0 -59 -50 -124 -111 -154l-32 33c32 15 67 44 78 73h-8c-23 0 -43 17 -43 46c0 33 30 60 62 60c29 0 54 -20 54 -58zM214 -12c-88 0 -168 30 -218 86l62 73c27 -36 94 -76 165 -76c54 0 87 31 87 65c0 77 -249 61 -249 202c0 82 68 157 192 157
c82 0 156 -33 196 -79l-56 -69c-23 32 -83 64 -143 64c-54 0 -85 -25 -85 -57c0 -71 250 -57 250 -201c0 -89 -74 -165 -201 -165z" />
    <glyph glyph-name="uni1E61" unicode="&#x1e61;" horiz-adv-x="472" 
d="M214 -12c-88 0 -168 30 -218 86l62 73c27 -36 94 -76 165 -76c54 0 87 31 87 65c0 77 -249 61 -249 202c0 82 68 157 192 157c82 0 156 -33 196 -79l-56 -69c-23 32 -83 64 -143 64c-54 0 -85 -25 -85 -57c0 -71 250 -57 250 -201c0 -89 -74 -165 -201 -165zM378 613
c0 -35 -32 -65 -67 -65c-30 0 -52 22 -52 52c0 35 31 66 66 66c30 0 53 -23 53 -53z" />
    <glyph glyph-name="germandbls" unicode="&#xdf;" horiz-adv-x="623" 
d="M588 151c0 -84 -75 -163 -197 -163c-94 0 -155 27 -210 89l61 67c34 -42 83 -72 152 -72c57 0 89 33 89 67c0 74 -228 52 -228 187c0 137 176 136 176 201c0 35 -41 57 -89 57c-59 0 -102 -37 -116 -99l-107 -485h-105l107 485c24 105 97 192 225 192
c96 0 196 -51 196 -132c0 -132 -183 -127 -183 -203c0 -69 229 -50 229 -191z" />
    <glyph glyph-name="longs" unicode="&#x17f;" horiz-adv-x="308" 
d="M145 0h-105l86 392h-80l21 91h79l6 27c20 92 73 167 176 167c50 0 87 -14 118 -45l-54 -63c-14 14 -31 22 -57 22c-44 0 -66 -29 -78 -81z" />
    <glyph glyph-name="tbar" unicode="&#x167;" horiz-adv-x="319" 
d="M187 -12c-78 0 -129 31 -129 98c0 6 1 20 3 31l22 100h-79l13 62h80l25 113h-80l21 91h80l29 132h105l-29 -132h98l-21 -91h-98l-25 -113h69l-14 -62h-69l-16 -74c-1 -5 -2 -12 -2 -19c0 -27 16 -43 48 -43c15 0 32 6 40 13l6 -84c-18 -14 -47 -22 -77 -22z" />
    <glyph glyph-name="tcaron" unicode="&#x165;" horiz-adv-x="351" 
d="M465 697c0 -59 -50 -124 -111 -154l-32 33c32 15 67 44 78 73h-8c-23 0 -43 17 -43 46c0 33 30 60 62 60c29 0 54 -20 54 -58zM187 -12c-78 0 -129 31 -129 98c0 6 1 20 3 31l61 275h-80l21 91h80l29 132h105l-29 -132h98l-21 -91h-98l-55 -249c-1 -5 -2 -12 -2 -19
c0 -27 16 -43 48 -43c15 0 32 6 40 13l6 -84c-18 -14 -47 -22 -77 -22z" />
    <glyph glyph-name="tcommaaccent" unicode="&#x163;" horiz-adv-x="319" 
d="M130 -121c0 -59 -50 -124 -111 -154l-32 33c32 15 67 44 78 73h-8c-23 0 -43 17 -43 46c0 33 30 60 62 60c29 0 54 -20 54 -58zM187 -12c-78 0 -129 31 -129 98c0 6 1 20 3 31l61 275h-80l21 91h80l29 132h105l-29 -132h98l-21 -91h-98l-55 -249c-1 -5 -2 -12 -2 -19
c0 -27 16 -43 48 -43c15 0 32 6 40 13l6 -84c-18 -14 -47 -22 -77 -22z" />
    <glyph glyph-name="uni021B" unicode="&#x21b;" horiz-adv-x="319" 
d="M125 -121c0 -59 -50 -124 -111 -154l-32 33c32 15 67 44 78 73h-8c-23 0 -43 17 -43 46c0 33 30 60 62 60c29 0 54 -20 54 -58zM187 -12c-78 0 -129 31 -129 98c0 6 1 20 3 31l61 275h-80l21 91h80l29 132h105l-29 -132h98l-21 -91h-98l-55 -249c-1 -5 -2 -12 -2 -19
c0 -27 16 -43 48 -43c15 0 32 6 40 13l6 -84c-18 -14 -47 -22 -77 -22z" />
    <glyph glyph-name="uni1E6B" unicode="&#x1e6b;" horiz-adv-x="319" 
d="M187 -12c-78 0 -129 31 -129 98c0 6 1 20 3 31l61 275h-80l21 91h80l29 132h105l-29 -132h98l-21 -91h-98l-55 -249c-1 -5 -2 -12 -2 -19c0 -27 16 -43 48 -43c15 0 32 6 40 13l6 -84c-18 -14 -47 -22 -77 -22zM321 780c0 -35 -32 -65 -67 -65c-30 0 -52 22 -52 52
c0 35 31 66 66 66c30 0 53 -23 53 -53z" />
    <glyph glyph-name="uacute" unicode="&#xfa;" 
d="M563 700l-197 -144h-77l172 144h102zM121 483h105l-67 -302c-2 -9 -5 -21 -5 -31c0 -49 39 -69 90 -69c49 0 97 34 129 66l74 336h105l-107 -483h-105l15 66c-40 -38 -95 -78 -165 -78c-90 0 -148 46 -148 122c0 9 3 30 5 40z" />
    <glyph glyph-name="ubreve" unicode="&#x16d;" 
d="M121 483h105l-67 -302c-2 -9 -5 -21 -5 -31c0 -49 39 -69 90 -69c49 0 97 34 129 66l74 336h105l-107 -483h-105l15 66c-40 -38 -95 -78 -165 -78c-90 0 -148 46 -148 122c0 9 3 30 5 40zM538 622c-52 -54 -122 -88 -194 -88c-71 0 -128 34 -157 88l55 40
c20 -40 58 -66 113 -66c53 0 103 25 142 66z" />
    <glyph glyph-name="ucircumflex" unicode="&#xfb;" 
d="M495 556h-65l-56 96l-96 -96h-68l125 144h96zM121 483h105l-67 -302c-2 -9 -5 -21 -5 -31c0 -49 39 -69 90 -69c49 0 97 34 129 66l74 336h105l-107 -483h-105l15 66c-40 -38 -95 -78 -165 -78c-90 0 -148 46 -148 122c0 9 3 30 5 40z" />
    <glyph glyph-name="udieresis" unicode="&#xfc;" 
d="M529 614c0 -34 -31 -65 -66 -65c-29 0 -52 23 -52 52c0 35 32 65 66 65c30 0 52 -22 52 -52zM320 614c0 -34 -31 -65 -66 -65c-29 0 -52 23 -52 52c0 35 32 65 66 65c30 0 52 -22 52 -52zM121 483h105l-67 -302c-2 -9 -5 -21 -5 -31c0 -49 39 -69 90 -69
c49 0 97 34 129 66l74 336h105l-107 -483h-105l15 66c-40 -38 -95 -78 -165 -78c-90 0 -148 46 -148 122c0 9 3 30 5 40z" />
    <glyph glyph-name="ugrave" unicode="&#xf9;" 
d="M121 483h105l-67 -302c-2 -9 -5 -21 -5 -31c0 -49 39 -69 90 -69c49 0 97 34 129 66l74 336h105l-107 -483h-105l15 66c-40 -38 -95 -78 -165 -78c-90 0 -148 46 -148 122c0 9 3 30 5 40zM414 556h-75l-133 144h100z" />
    <glyph glyph-name="uhungarumlaut" unicode="&#x171;" 
d="M121 483h105l-67 -302c-2 -9 -5 -21 -5 -31c0 -49 39 -69 90 -69c49 0 97 34 129 66l74 336h105l-107 -483h-105l15 66c-40 -38 -95 -78 -165 -78c-90 0 -148 46 -148 122c0 9 3 30 5 40zM445 700l-147 -144h-65l122 144h90zM591 700l-147 -144h-65l122 144h90z" />
    <glyph glyph-name="umacron" unicode="&#x16b;" 
d="M121 483h105l-67 -302c-2 -9 -5 -21 -5 -31c0 -49 39 -69 90 -69c49 0 97 34 129 66l74 336h105l-107 -483h-105l15 66c-40 -38 -95 -78 -165 -78c-90 0 -148 46 -148 122c0 9 3 30 5 40zM536 566h-362l14 62h362z" />
    <glyph glyph-name="uogonek" unicode="&#x173;" 
d="M121 483h105l-67 -302c-2 -9 -5 -21 -5 -31c0 -49 39 -69 90 -69c49 0 97 34 129 66l74 336h105l-107 -483c-60 -27 -97 -61 -97 -103c0 -23 16 -36 39 -36c21 0 38 14 50 37l38 -31c-21 -30 -50 -53 -93 -53c-48 0 -88 25 -88 74c0 43 23 82 65 112h-19l15 66
c-40 -38 -95 -78 -165 -78c-90 0 -148 46 -148 122c0 9 3 30 5 40z" />
    <glyph glyph-name="uring" unicode="&#x16f;" 
d="M361 536c-55 0 -93 38 -93 93c0 60 52 112 112 112c55 0 93 -38 93 -93c0 -61 -51 -112 -112 -112zM365 587c31 0 57 25 57 56c0 28 -18 47 -46 47c-30 0 -57 -26 -57 -56c0 -28 19 -47 46 -47zM121 483h105l-67 -302c-2 -9 -5 -21 -5 -31c0 -49 39 -69 90 -69
c49 0 97 34 129 66l74 336h105l-107 -483h-105l15 66c-40 -38 -95 -78 -165 -78c-90 0 -148 46 -148 122c0 9 3 30 5 40z" />
    <glyph glyph-name="utilde" unicode="&#x169;" 
d="M121 483h105l-67 -302c-2 -9 -5 -21 -5 -31c0 -49 39 -69 90 -69c49 0 97 34 129 66l74 336h105l-107 -483h-105l15 66c-40 -38 -95 -78 -165 -78c-90 0 -148 46 -148 122c0 9 3 30 5 40zM423 554c-72 0 -70 78 -120 78c-23 0 -41 -22 -52 -72h-58c16 82 51 134 118 134
c72 0 70 -78 120 -78c23 0 40 22 52 72h59c-18 -82 -52 -134 -119 -134z" />
    <glyph glyph-name="uni1EE5" unicode="&#x1ee5;" 
d="M121 483h105l-67 -302c-2 -9 -5 -21 -5 -31c0 -49 39 -69 90 -69c49 0 97 34 129 66l74 336h105l-107 -483h-105l15 66c-40 -38 -95 -78 -165 -78c-90 0 -148 46 -148 122c0 9 3 30 5 40zM259 -126c0 -35 -32 -65 -67 -65c-30 0 -52 22 -52 52c0 35 31 66 66 66
c30 0 53 -23 53 -53z" />
    <glyph glyph-name="uhorn" unicode="&#x1b0;" 
d="M656 556c0 -63 -52 -120 -122 -153l-89 -403h-105l15 65c-40 -38 -95 -77 -165 -77c-90 0 -149 45 -149 121c0 9 3 30 6 41l73 333h105l-67 -303c-2 -9 -4 -20 -4 -30c0 -49 39 -69 90 -69c49 0 96 33 128 65l75 337h105l-6 -28c25 17 44 37 51 58h-7
c-21 0 -40 16 -40 42c0 30 27 55 56 55c27 0 50 -19 50 -54z" />
    <glyph glyph-name="uni1EE7" unicode="&#x1ee7;" 
d="M121 483h105l-67 -302c-2 -9 -5 -21 -5 -31c0 -49 39 -69 90 -69c49 0 97 34 129 66l74 336h105l-107 -483h-105l15 66c-40 -38 -95 -78 -165 -78c-90 0 -148 46 -148 122c0 9 3 30 5 40zM321 585l-35 18c16 29 44 47 78 47c35 0 71 -21 71 -61c0 -22 -10 -45 -26 -62
h-51c21 18 32 35 32 57c0 17 -14 28 -30 28c-15 0 -28 -8 -39 -27z" />
    <glyph glyph-name="uni1EE9" unicode="&#x1ee9;" 
d="M563 700l-197 -144h-77l172 144h102zM656 556c0 -63 -52 -120 -122 -153l-89 -403h-105l15 65c-40 -38 -95 -77 -165 -77c-90 0 -149 45 -149 121c0 9 3 30 6 41l73 333h105l-67 -303c-2 -9 -4 -20 -4 -30c0 -49 39 -69 90 -69c49 0 96 33 128 65l75 337h105l-6 -28
c25 17 44 37 51 58h-7c-21 0 -40 16 -40 42c0 30 27 55 56 55c27 0 50 -19 50 -54z" />
    <glyph glyph-name="uni1EEB" unicode="&#x1eeb;" 
d="M414 556h-75l-133 144h100zM656 556c0 -63 -52 -120 -122 -153l-89 -403h-105l15 65c-40 -38 -95 -77 -165 -77c-90 0 -149 45 -149 121c0 9 3 30 6 41l73 333h105l-67 -303c-2 -9 -4 -20 -4 -30c0 -49 39 -69 90 -69c49 0 96 33 128 65l75 337h105l-6 -28
c25 17 44 37 51 58h-7c-21 0 -40 16 -40 42c0 30 27 55 56 55c27 0 50 -19 50 -54z" />
    <glyph glyph-name="uni1EED" unicode="&#x1eed;" 
d="M321 585l-35 18c16 29 44 47 78 47c35 0 71 -21 71 -61c0 -22 -10 -45 -26 -62h-51c21 18 32 35 32 57c0 17 -14 28 -30 28c-15 0 -28 -8 -39 -27zM656 556c0 -63 -52 -120 -122 -153l-89 -403h-105l15 65c-40 -38 -95 -77 -165 -77c-90 0 -149 45 -149 121
c0 9 3 30 6 41l73 333h105l-67 -303c-2 -9 -4 -20 -4 -30c0 -49 39 -69 90 -69c49 0 96 33 128 65l75 337h105l-6 -28c25 17 44 37 51 58h-7c-21 0 -40 16 -40 42c0 30 27 55 56 55c27 0 50 -19 50 -54z" />
    <glyph glyph-name="uni1EEF" unicode="&#x1eef;" 
d="M656 556c0 -63 -52 -120 -122 -153l-89 -403h-105l15 65c-40 -38 -95 -77 -165 -77c-90 0 -149 45 -149 121c0 9 3 30 6 41l73 333h105l-67 -303c-2 -9 -4 -20 -4 -30c0 -49 39 -69 90 -69c49 0 96 33 128 65l75 337h105l-6 -28c25 17 44 37 51 58h-7
c-21 0 -40 16 -40 42c0 30 27 55 56 55c27 0 50 -19 50 -54zM423 554c-72 0 -70 78 -120 78c-23 0 -41 -22 -52 -72h-58c16 82 51 134 118 134c72 0 70 -78 120 -78c23 0 40 22 52 72h59c-18 -82 -52 -134 -119 -134z" />
    <glyph glyph-name="uni1EF1" unicode="&#x1ef1;" 
d="M259 -126c0 -35 -32 -65 -67 -65c-30 0 -52 22 -52 52c0 35 31 66 66 66c30 0 53 -23 53 -53zM656 556c0 -63 -52 -120 -122 -153l-89 -403h-105l15 65c-40 -38 -95 -77 -165 -77c-90 0 -149 45 -149 121c0 9 3 30 6 41l73 333h105l-67 -303c-2 -9 -4 -20 -4 -30
c0 -49 39 -69 90 -69c49 0 96 33 128 65l75 337h105l-6 -28c25 17 44 37 51 58h-7c-21 0 -40 16 -40 42c0 30 27 55 56 55c27 0 50 -19 50 -54z" />
    <glyph glyph-name="wacute" unicode="&#x1e83;" horiz-adv-x="754" 
d="M655 700l-197 -144h-77l172 144h102zM545 0h-110l-34 354l-190 -354h-110l-43 483h105l24 -351l193 351h93l36 -351l180 351h113z" />
    <glyph glyph-name="wcircumflex" unicode="&#x175;" horiz-adv-x="754" 
d="M586 556h-65l-56 96l-96 -96h-68l125 144h96zM545 0h-110l-34 354l-190 -354h-110l-43 483h105l24 -351l193 351h93l36 -351l180 351h113z" />
    <glyph glyph-name="wdieresis" unicode="&#x1e85;" horiz-adv-x="754" 
d="M619 614c0 -34 -31 -65 -66 -65c-29 0 -52 23 -52 52c0 35 32 65 66 65c30 0 52 -22 52 -52zM410 614c0 -34 -31 -65 -66 -65c-29 0 -52 23 -52 52c0 35 32 65 66 65c30 0 52 -22 52 -52zM545 0h-110l-34 354l-190 -354h-110l-43 483h105l24 -351l193 351h93l36 -351
l180 351h113z" />
    <glyph glyph-name="wgrave" unicode="&#x1e81;" horiz-adv-x="754" 
d="M545 0h-110l-34 354l-190 -354h-110l-43 483h105l24 -351l193 351h93l36 -351l180 351h113zM504 556h-75l-133 144h100z" />
    <glyph glyph-name="yacute" unicode="&#xfd;" horiz-adv-x="503" 
d="M-47 -185l35 92c11 -5 30 -8 48 -8c26 0 45 10 65 40l38 58l-88 486h109l60 -362l222 362h116l-360 -570c-49 -78 -99 -109 -172 -109c-25 0 -53 4 -73 11zM529 700l-197 -144h-77l172 144h102z" />
    <glyph glyph-name="ycircumflex" unicode="&#x177;" horiz-adv-x="503" 
d="M-47 -185l35 92c11 -5 30 -8 48 -8c26 0 45 10 65 40l38 58l-88 486h109l60 -362l222 362h116l-360 -570c-49 -78 -99 -109 -172 -109c-25 0 -53 4 -73 11zM461 556h-65l-56 96l-96 -96h-68l125 144h96z" />
    <glyph glyph-name="ydieresis" unicode="&#xff;" horiz-adv-x="503" 
d="M-47 -185l35 92c11 -5 30 -8 48 -8c26 0 45 10 65 40l38 58l-88 486h109l60 -362l222 362h116l-360 -570c-49 -78 -99 -109 -172 -109c-25 0 -53 4 -73 11zM494 614c0 -34 -31 -65 -66 -65c-29 0 -52 23 -52 52c0 35 32 65 66 65c30 0 52 -22 52 -52zM285 614
c0 -34 -31 -65 -66 -65c-29 0 -52 23 -52 52c0 35 32 65 66 65c30 0 52 -22 52 -52z" />
    <glyph glyph-name="ygrave" unicode="&#x1ef3;" horiz-adv-x="503" 
d="M-47 -185l35 92c11 -5 30 -8 48 -8c26 0 45 10 65 40l38 58l-88 486h109l60 -362l222 362h116l-360 -570c-49 -78 -99 -109 -172 -109c-25 0 -53 4 -73 11zM380 556h-75l-133 144h100z" />
    <glyph glyph-name="yacute.alt1" 
d="M563 700l-197 -144h-77l172 144h102zM198 -196c-100 0 -173 25 -226 83l64 70c31 -46 97 -67 161 -67c87 0 129 50 148 135l12 55c-43 -39 -93 -76 -164 -76c-82 0 -148 38 -148 121c0 9 1 20 5 41l71 317h105l-64 -287c-3 -13 -4 -25 -4 -31c0 -54 44 -68 89 -68
c50 0 97 32 129 65l71 321h105l-100 -450c-33 -145 -115 -229 -254 -229z" />
    <glyph glyph-name="ycircumflex.alt1" 
d="M494 556h-65l-56 96l-96 -96h-68l125 144h96zM198 -196c-100 0 -173 25 -226 83l64 70c31 -46 97 -67 161 -67c87 0 129 50 148 135l12 55c-43 -39 -93 -76 -164 -76c-82 0 -148 38 -148 121c0 9 1 20 5 41l71 317h105l-64 -287c-3 -13 -4 -25 -4 -31
c0 -54 44 -68 89 -68c50 0 97 32 129 65l71 321h105l-100 -450c-33 -145 -115 -229 -254 -229z" />
    <glyph glyph-name="ydieresis.alt1" 
d="M527 614c0 -34 -31 -65 -66 -65c-29 0 -52 23 -52 52c0 35 32 65 66 65c30 0 52 -22 52 -52zM318 614c0 -34 -31 -65 -66 -65c-29 0 -52 23 -52 52c0 35 32 65 66 65c30 0 52 -22 52 -52zM198 -196c-100 0 -173 25 -226 83l64 70c31 -46 97 -67 161 -67
c87 0 129 50 148 135l12 55c-43 -39 -93 -76 -164 -76c-82 0 -148 38 -148 121c0 9 1 20 5 41l71 317h105l-64 -287c-3 -13 -4 -25 -4 -31c0 -54 44 -68 89 -68c50 0 97 32 129 65l71 321h105l-100 -450c-33 -145 -115 -229 -254 -229z" />
    <glyph glyph-name="ygrave.alt1" 
d="M198 -196c-100 0 -173 25 -226 83l64 70c31 -46 97 -67 161 -67c87 0 129 50 148 135l12 55c-43 -39 -93 -76 -164 -76c-82 0 -148 38 -148 121c0 9 1 20 5 41l71 317h105l-64 -287c-3 -13 -4 -25 -4 -31c0 -54 44 -68 89 -68c50 0 97 32 129 65l71 321h105l-100 -450
c-33 -145 -115 -229 -254 -229zM413 556h-75l-133 144h100z" />
    <glyph glyph-name="zacute" unicode="&#x17a;" horiz-adv-x="476" 
d="M513 700l-197 -144h-77l172 144h102zM375 0h-383l17 79l304 312h-234l20 92h379l-17 -77l-307 -315h241z" />
    <glyph glyph-name="zcaron" unicode="&#x17e;" horiz-adv-x="476" 
d="M353 556h-96l-64 144h64l56 -97l96 97h69zM375 0h-383l17 79l304 312h-234l20 92h379l-17 -77l-307 -315h241z" />
    <glyph glyph-name="zdotaccent" unicode="&#x17c;" horiz-adv-x="476" 
d="M375 0h-383l17 79l304 312h-234l20 92h379l-17 -77l-307 -315h241zM374 613c0 -35 -32 -65 -67 -65c-30 0 -52 22 -52 52c0 35 31 66 66 66c30 0 53 -23 53 -53z" />
    <glyph glyph-name="eth" unicode="&#xf0;" horiz-adv-x="573" 
d="M164 496l-15 50l130 38c-20 17 -39 33 -59 48l74 77c38 -29 72 -59 102 -90l110 33l15 -50l-87 -26c71 -86 109 -177 109 -272c0 -172 -108 -316 -276 -316c-142 0 -236 85 -236 208c0 152 109 272 246 272c71 0 134 -34 165 -108c-17 63 -63 127 -119 183zM268 81
c89 0 157 78 157 175c0 59 -41 119 -131 119c-86 0 -154 -76 -154 -172c0 -73 46 -122 128 -122z" />
    <glyph glyph-name="thorn" unicode="&#xfe;" horiz-adv-x="578" 
d="M294 -12c-70 0 -128 31 -160 81l-56 -253h-105l188 851h105l-55 -248c41 49 91 76 152 76c109 0 185 -73 185 -200c0 -150 -94 -307 -254 -307zM278 81c95 0 160 93 160 193c0 78 -50 128 -119 128c-52 0 -98 -31 -127 -69l-41 -187c22 -37 68 -65 127 -65z" />
    <glyph glyph-name="Aacute.smcp" unicode="&#xf7e1;" horiz-adv-x="586" 
d="M584 750l-197 -144h-77l172 144h102zM294 550h132l106 -550h-120l-20 103h-257l-64 -103h-125zM381 198l-43 240l-150 -240h193z" />
    <glyph glyph-name="Abreve.smcp" unicode="&#xf66d;" horiz-adv-x="586" 
d="M294 550h132l106 -550h-120l-20 103h-257l-64 -103h-125zM381 198l-43 240l-150 -240h193zM559 672c-52 -54 -122 -88 -194 -88c-71 0 -128 34 -157 88l55 40c20 -40 58 -66 113 -66c53 0 103 25 142 66z" />
    <glyph glyph-name="Acircumflex.smcp" unicode="&#xf7e2;" horiz-adv-x="586" 
d="M515 606h-65l-56 96l-96 -96h-68l125 144h96zM294 550h132l106 -550h-120l-20 103h-257l-64 -103h-125zM381 198l-43 240l-150 -240h193z" />
    <glyph glyph-name="Adieresis.smcp" unicode="&#xf7e4;" horiz-adv-x="586" 
d="M548 664c0 -34 -31 -65 -66 -65c-29 0 -52 23 -52 52c0 35 32 65 66 65c30 0 52 -22 52 -52zM339 664c0 -34 -31 -65 -66 -65c-29 0 -52 23 -52 52c0 35 32 65 66 65c30 0 52 -22 52 -52zM294 550h132l106 -550h-120l-20 103h-257l-64 -103h-125zM381 198l-43 240
l-150 -240h193z" />
    <glyph glyph-name="Agrave.smcp" unicode="&#xf7e0;" horiz-adv-x="586" 
d="M294 550h132l106 -550h-120l-20 103h-257l-64 -103h-125zM381 198l-43 240l-150 -240h193zM436 606h-75l-133 144h100z" />
    <glyph glyph-name="Amacron.smcp" unicode="&#xf66e;" horiz-adv-x="586" 
d="M555 616h-362l14 62h362zM294 550h132l106 -550h-120l-20 103h-257l-64 -103h-125zM381 198l-43 240l-150 -240h193z" />
    <glyph glyph-name="Aogonek.smcp" unicode="&#xf66f;" horiz-adv-x="586" 
d="M294 550h132l106 -550c-60 -27 -97 -61 -97 -103c0 -23 16 -36 39 -36c21 0 38 14 50 37l38 -31c-21 -30 -50 -53 -93 -53c-48 0 -88 25 -88 74c0 43 23 82 65 112h-34l-20 103h-257l-64 -103h-125zM381 198l-43 240l-150 -240h193z" />
    <glyph glyph-name="Aring.smcp" unicode="&#xf7e5;" horiz-adv-x="586" 
d="M379 572c-55 0 -93 38 -93 93c0 60 52 112 112 112c55 0 93 -38 93 -93c0 -61 -51 -112 -112 -112zM383 623c31 0 57 25 57 56c0 28 -18 47 -46 47c-30 0 -57 -26 -57 -56c0 -28 19 -47 46 -47zM294 550h132l106 -550h-120l-20 103h-257l-64 -103h-125zM381 198l-43 240
l-150 -240h193z" />
    <glyph glyph-name="Atilde.smcp" unicode="&#xf7e3;" horiz-adv-x="586" 
d="M294 550h132l106 -550h-120l-20 103h-257l-64 -103h-125zM381 198l-43 240l-150 -240h193zM445 604c-72 0 -70 78 -120 78c-23 0 -41 -22 -52 -72h-58c16 82 51 134 118 134c72 0 70 -78 120 -78c23 0 40 22 52 72h59c-18 -82 -52 -134 -119 -134z" />
    <glyph glyph-name="uni1EA0.smcp" horiz-adv-x="586" 
d="M294 550h132l106 -550h-120l-20 103h-257l-64 -103h-125zM381 198l-43 240l-150 -240h193zM270 -126c0 -35 -32 -65 -67 -65c-30 0 -52 22 -52 52c0 35 31 66 66 66c30 0 53 -23 53 -53z" />
    <glyph glyph-name="uni1EA2.smcp" horiz-adv-x="586" 
d="M294 550h132l106 -550h-120l-20 103h-257l-64 -103h-125zM381 198l-43 240l-150 -240h193zM342 638l-35 18c16 29 44 47 78 47c35 0 71 -21 71 -61c0 -22 -10 -45 -26 -62h-51c21 18 32 35 32 57c0 17 -14 28 -30 28c-15 0 -28 -8 -39 -27z" />
    <glyph glyph-name="uni1EA4.smcp" horiz-adv-x="586" 
d="M515 606h-65l-56 96l-96 -96h-68l125 144h96zM764 820l-197 -144h-77l172 144h102zM294 550h132l106 -550h-120l-20 103h-257l-64 -103h-125zM381 198l-43 240l-150 -240h193z" />
    <glyph glyph-name="uni1EAC.smcp" horiz-adv-x="586" 
d="M515 606h-65l-56 96l-96 -96h-68l125 144h96zM294 550h132l106 -550h-120l-20 103h-257l-64 -103h-125zM381 198l-43 240l-150 -240h193zM269 -126c0 -35 -32 -65 -67 -65c-30 0 -52 22 -52 52c0 35 31 66 66 66c30 0 53 -23 53 -53z" />
    <glyph glyph-name="uni1EA6.smcp" horiz-adv-x="586" 
d="M515 606h-65l-56 96l-96 -96h-68l125 144h96zM294 550h132l106 -550h-120l-20 103h-257l-64 -103h-125zM381 198l-43 240l-150 -240h193zM283 676h-75l-133 144h100z" />
    <glyph glyph-name="uni1EA8.smcp" horiz-adv-x="586" 
d="M516 606h-65l-56 96l-96 -96h-68l125 144h96zM294 550h132l106 -550h-120l-20 103h-257l-64 -103h-125zM381 198l-43 240l-150 -240h193zM448 775l-35 18c16 29 44 47 78 47c35 0 71 -21 71 -61c0 -22 -10 -45 -26 -62h-51c21 18 32 35 32 57c0 17 -14 28 -30 28
c-15 0 -28 -8 -39 -27z" />
    <glyph glyph-name="uni1EAE.smcp" horiz-adv-x="586" 
d="M584 823l-197 -144h-77l172 144h102zM294 550h132l106 -550h-120l-20 103h-257l-64 -103h-125zM381 198l-43 240l-150 -240h193zM554 659c-52 -54 -122 -88 -194 -88c-71 0 -128 34 -157 88l55 40c20 -40 58 -66 113 -66c53 0 103 25 142 66z" />
    <glyph glyph-name="uni1EAA.smcp" horiz-adv-x="586" 
d="M509 573h-65l-56 96l-96 -96h-68l125 144h96zM294 550h132l106 -550h-120l-20 103h-257l-64 -103h-125zM381 198l-43 240l-150 -240h193zM475 732c-72 0 -70 78 -120 78c-23 0 -41 -22 -52 -72h-58c16 82 51 134 118 134c72 0 70 -78 120 -78c23 0 40 22 52 72h59
c-18 -82 -52 -134 -119 -134z" />
    <glyph glyph-name="uni1EB0.smcp" horiz-adv-x="586" 
d="M294 550h132l106 -550h-120l-20 103h-257l-64 -103h-125zM381 198l-43 240l-150 -240h193zM452 679h-75l-133 144h100zM556 659c-52 -54 -122 -88 -194 -88c-71 0 -128 34 -157 88l55 40c20 -40 58 -66 113 -66c53 0 103 25 142 66z" />
    <glyph glyph-name="uni1EB2.smcp" horiz-adv-x="586" 
d="M294 550h132l106 -550h-120l-20 103h-257l-64 -103h-125zM381 198l-43 240l-150 -240h193zM364 745l-35 18c16 29 44 47 78 47c35 0 71 -21 71 -61c0 -22 -10 -45 -26 -62h-51c21 18 32 35 32 57c0 17 -14 28 -30 28c-15 0 -28 -8 -39 -27zM556 659
c-52 -54 -122 -88 -194 -88c-71 0 -128 34 -157 88l55 40c20 -40 58 -66 113 -66c53 0 103 25 142 66z" />
    <glyph glyph-name="uni1EB4.smcp" horiz-adv-x="586" 
d="M556 659c-52 -54 -122 -88 -194 -88c-71 0 -128 34 -157 88l55 40c20 -40 58 -66 113 -66c53 0 103 25 142 66zM294 550h132l106 -550h-120l-20 103h-257l-64 -103h-125zM381 198l-43 240l-150 -240h193zM469 717c-72 0 -70 78 -120 78c-23 0 -41 -22 -52 -72h-58
c16 82 51 134 118 134c72 0 70 -78 120 -78c23 0 40 22 52 72h59c-18 -82 -52 -134 -119 -134z" />
    <glyph glyph-name="uni1EB6.smcp" horiz-adv-x="586" 
d="M294 550h132l106 -550h-120l-20 103h-257l-64 -103h-125zM381 198l-43 240l-150 -240h193zM269 -126c0 -35 -32 -65 -67 -65c-30 0 -52 22 -52 52c0 35 31 66 66 66c30 0 53 -23 53 -53zM559 672c-52 -54 -122 -88 -194 -88c-71 0 -128 34 -157 88l55 40
c20 -40 58 -66 113 -66c53 0 103 25 142 66z" />
    <glyph glyph-name="AE.smcp" unicode="&#xf7e6;" horiz-adv-x="835" 
d="M735 0h-402l23 103h-200l-86 -103h-125l467 550h444l-21 -95h-293l-28 -127h286l-21 -95h-286l-30 -138h293zM377 198l53 240l-200 -240h147z" />
    <glyph glyph-name="AEacute.smcp" unicode="&#xf670;" horiz-adv-x="835" 
d="M732 750l-197 -144h-77l172 144h102zM735 0h-402l23 103h-200l-86 -103h-125l467 550h444l-21 -95h-293l-28 -127h286l-21 -95h-286l-30 -138h293zM377 198l53 240l-200 -240h147z" />
    <glyph glyph-name="uni1E02.smcp" horiz-adv-x="572" 
d="M324 0h-310l121 550h260c96 0 166 -46 166 -126c0 -66 -46 -134 -125 -146c49 -17 80 -63 80 -110c0 -95 -70 -168 -192 -168zM144 95h174c49 0 87 32 87 77c0 34 -25 61 -70 61h-161zM356 328h10c50 0 78 36 78 73s-32 54 -72 54h-148l-29 -127h161zM444 663
c0 -35 -32 -65 -67 -65c-30 0 -52 22 -52 52c0 35 31 66 66 66c30 0 53 -23 53 -53z" />
    <glyph glyph-name="Cacute.smcp" unicode="&#xf671;" horiz-adv-x="584" 
d="M625 750l-197 -144h-77l172 144h102zM314 -12c-165 0 -276 103 -276 250c0 176 147 324 329 324c110 0 195 -59 229 -142l-97 -37c-23 49 -77 83 -136 83c-111 0 -212 -98 -212 -220c0 -99 71 -162 168 -162c57 0 107 26 144 71l81 -52c-52 -66 -131 -115 -230 -115z" />
    <glyph glyph-name="Ccaron.smcp" unicode="&#xf672;" horiz-adv-x="584" 
d="M466 606h-96l-64 144h64l56 -97l96 97h69zM314 -12c-165 0 -276 103 -276 250c0 176 147 324 329 324c110 0 195 -59 229 -142l-97 -37c-23 49 -77 83 -136 83c-111 0 -212 -98 -212 -220c0 -99 71 -162 168 -162c57 0 107 26 144 71l81 -52c-52 -66 -131 -115 -230 -115
z" />
    <glyph glyph-name="Ccedilla.smcp" unicode="&#xf7e7;" horiz-adv-x="584" 
d="M253 -194c-50 0 -92 18 -114 40l31 43c23 -23 54 -35 84 -35c35 0 55 16 55 40c0 15 -12 26 -33 26c-12 0 -23 -5 -32 -15l-35 23l39 66c-128 24 -210 117 -210 244c0 176 147 324 329 324c110 0 195 -59 229 -142l-97 -37c-23 49 -77 83 -136 83
c-111 0 -212 -98 -212 -220c0 -99 71 -162 168 -162c57 0 107 26 144 71l81 -52c-52 -66 -131 -115 -230 -115h-16l-25 -41c11 8 20 11 32 11c34 0 59 -23 59 -61c0 -55 -47 -91 -111 -91z" />
    <glyph glyph-name="Ccircumflex.smcp" unicode="&#xf673;" horiz-adv-x="584" 
d="M559 606h-65l-56 96l-96 -96h-68l125 144h96zM314 -12c-165 0 -276 103 -276 250c0 176 147 324 329 324c110 0 195 -59 229 -142l-97 -37c-23 49 -77 83 -136 83c-111 0 -212 -98 -212 -220c0 -99 71 -162 168 -162c57 0 107 26 144 71l81 -52
c-52 -66 -131 -115 -230 -115z" />
    <glyph glyph-name="Cdotaccent.smcp" unicode="&#xf674;" horiz-adv-x="584" 
d="M314 -12c-165 0 -276 103 -276 250c0 176 147 324 329 324c110 0 195 -59 229 -142l-97 -37c-23 49 -77 83 -136 83c-111 0 -212 -98 -212 -220c0 -99 71 -162 168 -162c57 0 107 26 144 71l81 -52c-52 -66 -131 -115 -230 -115zM486 663c0 -35 -32 -65 -67 -65
c-30 0 -52 22 -52 52c0 35 31 66 66 66c30 0 53 -23 53 -53z" />
    <glyph glyph-name="Dcaron.smcp" unicode="&#xf675;" horiz-adv-x="621" 
d="M442 606h-96l-64 144h64l56 -97l96 97h69zM245 0h-231l121 550h190c154 0 271 -95 271 -236c0 -142 -97 -314 -351 -314zM253 95h12c148 0 219 111 219 211c0 89 -66 149 -172 149h-89l-79 -360h109z" />
    <glyph glyph-name="Dcroat.smcp" unicode="&#xf676;" horiz-adv-x="621" 
d="M245 0h-231l53 240h-59l17 76h58l52 234h190c154 0 271 -95 271 -236c0 -142 -97 -314 -351 -314zM265 95c148 0 219 111 219 211c0 89 -66 149 -172 149h-89l-31 -139h121l-17 -76h-120l-32 -145h121z" />
    <glyph glyph-name="uni1E0A.smcp" horiz-adv-x="621" 
d="M245 0h-231l121 550h190c154 0 271 -95 271 -236c0 -142 -97 -314 -351 -314zM253 95h12c148 0 219 111 219 211c0 89 -66 149 -172 149h-89l-79 -360h109zM463 663c0 -35 -32 -65 -67 -65c-30 0 -52 22 -52 52c0 35 31 66 66 66c30 0 53 -23 53 -53z" />
    <glyph glyph-name="Eacute.smcp" unicode="&#xf7e9;" horiz-adv-x="515" 
d="M560 750l-197 -144h-77l172 144h102zM415 0h-401l121 550h401l-21 -95h-291l-29 -127h286l-21 -95h-286l-30 -138h291z" />
    <glyph glyph-name="Ebreve.smcp" unicode="&#xf677;" horiz-adv-x="515" 
d="M415 0h-401l121 550h401l-21 -95h-291l-29 -127h286l-21 -95h-286l-30 -138h291zM534 672c-52 -54 -122 -88 -194 -88c-71 0 -128 34 -157 88l55 40c20 -40 58 -66 113 -66c53 0 103 25 142 66z" />
    <glyph glyph-name="Ecaron.smcp" unicode="&#xf678;" horiz-adv-x="515" 
d="M399 606h-96l-64 144h64l56 -97l96 97h69zM415 0h-401l121 550h401l-21 -95h-291l-29 -127h286l-21 -95h-286l-30 -138h291z" />
    <glyph glyph-name="Ecircumflex.smcp" unicode="&#xf7ea;" horiz-adv-x="515" 
d="M491 606h-65l-56 96l-96 -96h-68l125 144h96zM415 0h-401l121 550h401l-21 -95h-291l-29 -127h286l-21 -95h-286l-30 -138h291z" />
    <glyph glyph-name="Edieresis.smcp" unicode="&#xf7eb;" horiz-adv-x="515" 
d="M524 664c0 -34 -31 -65 -66 -65c-29 0 -52 23 -52 52c0 35 32 65 66 65c30 0 52 -22 52 -52zM315 664c0 -34 -31 -65 -66 -65c-29 0 -52 23 -52 52c0 35 32 65 66 65c30 0 52 -22 52 -52zM415 0h-401l121 550h401l-21 -95h-291l-29 -127h286l-21 -95h-286l-30 -138h291z
" />
    <glyph glyph-name="Edotaccent.smcp" unicode="&#xf679;" horiz-adv-x="515" 
d="M415 0h-401l121 550h401l-21 -95h-291l-29 -127h286l-21 -95h-286l-30 -138h291zM420 663c0 -35 -32 -65 -67 -65c-30 0 -52 22 -52 52c0 35 31 66 66 66c30 0 53 -23 53 -53z" />
    <glyph glyph-name="Egrave.smcp" unicode="&#xf7e8;" horiz-adv-x="515" 
d="M415 0h-401l121 550h401l-21 -95h-291l-29 -127h286l-21 -95h-286l-30 -138h291zM410 606h-75l-133 144h100z" />
    <glyph glyph-name="Emacron.smcp" unicode="&#xf67a;" horiz-adv-x="515" 
d="M415 0h-401l121 550h401l-21 -95h-291l-29 -127h286l-21 -95h-286l-30 -138h291zM531 616h-362l14 62h362z" />
    <glyph glyph-name="Eogonek.smcp" unicode="&#xf67c;" horiz-adv-x="515" 
d="M407 -102l38 -31c-21 -30 -50 -53 -93 -53c-48 0 -88 25 -88 74c0 43 23 82 65 112h-315l121 550h401l-21 -95h-291l-29 -127h286l-21 -95h-286l-30 -138h291l-20 -95c-60 -27 -97 -61 -97 -103c0 -23 16 -36 39 -36c21 0 38 14 50 37z" />
    <glyph glyph-name="uni1EB8.smcp" horiz-adv-x="515" 
d="M415 0h-401l121 550h401l-21 -95h-291l-29 -127h286l-21 -95h-286l-30 -138h291zM245 -126c0 -35 -32 -65 -67 -65c-30 0 -52 22 -52 52c0 35 31 66 66 66c30 0 53 -23 53 -53z" />
    <glyph glyph-name="uni1EBA.smcp" horiz-adv-x="515" 
d="M415 0h-401l121 550h401l-21 -95h-291l-29 -127h286l-21 -95h-286l-30 -138h291zM318 638l-35 18c16 29 44 47 78 47c35 0 71 -21 71 -61c0 -22 -10 -45 -26 -62h-51c21 18 32 35 32 57c0 17 -14 28 -30 28c-15 0 -28 -8 -39 -27z" />
    <glyph glyph-name="uni1EBC.smcp" horiz-adv-x="515" 
d="M415 0h-401l121 550h401l-21 -95h-291l-29 -127h286l-21 -95h-286l-30 -138h291zM421 604c-72 0 -70 78 -120 78c-23 0 -41 -22 -52 -72h-58c16 82 51 134 118 134c72 0 70 -78 120 -78c23 0 40 22 52 72h59c-18 -82 -52 -134 -119 -134z" />
    <glyph glyph-name="uni1EBE.smcp" horiz-adv-x="515" 
d="M491 606h-65l-56 96l-96 -96h-68l125 144h96zM740 820l-197 -144h-77l172 144h102zM415 0h-401l121 550h401l-21 -95h-291l-29 -127h286l-21 -95h-286l-30 -138h291z" />
    <glyph glyph-name="uni1EC0.smcp" horiz-adv-x="515" 
d="M490 606h-65l-56 96l-96 -96h-68l125 144h96zM415 0h-401l121 550h401l-21 -95h-291l-29 -127h286l-21 -95h-286l-30 -138h291zM259 676h-75l-133 144h100z" />
    <glyph glyph-name="uni1EC2.smcp" horiz-adv-x="515" 
d="M491 606h-65l-56 96l-96 -96h-68l125 144h96zM415 0h-401l121 550h401l-21 -95h-291l-29 -127h286l-21 -95h-286l-30 -138h291zM423 775l-35 18c16 29 44 47 78 47c35 0 71 -21 71 -61c0 -22 -10 -45 -26 -62h-51c21 18 32 35 32 57c0 17 -14 28 -30 28
c-15 0 -28 -8 -39 -27z" />
    <glyph glyph-name="uni1EC4.smcp" horiz-adv-x="515" 
d="M484 573h-65l-56 96l-96 -96h-68l125 144h96zM415 0h-401l121 550h401l-21 -95h-291l-29 -127h286l-21 -95h-286l-30 -138h291zM448 732c-72 0 -70 78 -120 78c-23 0 -41 -22 -52 -72h-58c16 82 51 134 118 134c72 0 70 -78 120 -78c23 0 40 22 52 72h59
c-18 -82 -52 -134 -119 -134z" />
    <glyph glyph-name="uni1EC6.smcp" horiz-adv-x="515" 
d="M491 606h-65l-56 96l-96 -96h-68l125 144h96zM415 0h-401l121 550h401l-21 -95h-291l-29 -127h286l-21 -95h-286l-30 -138h291zM245 -126c0 -35 -32 -65 -67 -65c-30 0 -52 22 -52 52c0 35 31 66 66 66c30 0 53 -23 53 -53z" />
    <glyph glyph-name="uni1E1E.smcp" horiz-adv-x="501" 
d="M420 663c0 -35 -32 -65 -67 -65c-30 0 -52 22 -52 52c0 35 31 66 66 66c30 0 53 -23 53 -53zM123 0h-109l121 550h401l-21 -95h-291l-29 -127h286l-21 -95h-286z" />
    <glyph glyph-name="Gbreve.smcp" unicode="&#xf67d;" horiz-adv-x="620" 
d="M318 -12c-156 0 -280 95 -280 247c0 171 138 327 330 327c103 0 189 -53 228 -125l-96 -45c-23 39 -75 74 -139 74c-121 0 -209 -106 -209 -222c0 -96 74 -160 171 -160c51 0 87 15 109 30l22 97h-148l20 89h256l-53 -240c-54 -41 -123 -72 -211 -72zM602 672
c-52 -54 -122 -88 -194 -88c-71 0 -128 34 -157 88l55 40c20 -40 58 -66 113 -66c53 0 103 25 142 66z" />
    <glyph glyph-name="Gcircumflex.smcp" unicode="&#xf67e;" horiz-adv-x="620" 
d="M318 -12c-156 0 -280 95 -280 247c0 171 138 327 330 327c103 0 189 -53 228 -125l-96 -45c-23 39 -75 74 -139 74c-121 0 -209 -106 -209 -222c0 -96 74 -160 171 -160c51 0 87 15 109 30l22 97h-148l20 89h256l-53 -240c-54 -41 -123 -72 -211 -72zM559 606h-65l-56 96
l-96 -96h-68l125 144h96z" />
    <glyph glyph-name="Gcommaaccent.smcp" unicode="&#xf67f;" horiz-adv-x="620" 
d="M318 -12c-156 0 -280 95 -280 247c0 171 138 327 330 327c103 0 189 -53 228 -125l-96 -45c-23 39 -75 74 -139 74c-121 0 -209 -106 -209 -222c0 -96 74 -160 171 -160c51 0 87 15 109 30l22 97h-148l20 89h256l-53 -240c-54 -41 -123 -72 -211 -72zM313 -121
c0 -59 -50 -124 -111 -154l-32 33c32 15 67 44 78 73h-8c-23 0 -43 17 -43 46c0 33 30 60 62 60c29 0 54 -20 54 -58z" />
    <glyph glyph-name="Gdotaccent.smcp" unicode="&#xf680;" horiz-adv-x="620" 
d="M318 -12c-156 0 -280 95 -280 247c0 171 138 327 330 327c103 0 189 -53 228 -125l-96 -45c-23 39 -75 74 -139 74c-121 0 -209 -106 -209 -222c0 -96 74 -160 171 -160c51 0 87 15 109 30l22 97h-148l20 89h256l-53 -240c-54 -41 -123 -72 -211 -72zM488 663
c0 -35 -32 -65 -67 -65c-30 0 -52 22 -52 52c0 35 31 66 66 66c30 0 53 -23 53 -53z" />
    <glyph glyph-name="Gbreve.smcp.alt1" horiz-adv-x="636" 
d="M315 -12c-161 0 -277 100 -277 248c0 188 156 326 329 326c103 0 187 -49 232 -127l-97 -46c-25 47 -81 76 -139 76c-111 0 -212 -94 -212 -218c0 -101 75 -164 172 -164c75 0 145 49 167 126h-184l19 90h295c-23 -189 -151 -311 -305 -311zM602 672
c-52 -54 -122 -88 -194 -88c-71 0 -128 34 -157 88l55 40c20 -40 58 -66 113 -66c53 0 103 25 142 66z" />
    <glyph glyph-name="Gcommaaccent.smcp.alt1" horiz-adv-x="636" 
d="M313 -121c0 -59 -50 -124 -111 -154l-32 33c32 15 67 44 78 73h-8c-23 0 -43 17 -43 46c0 33 30 60 62 60c29 0 54 -20 54 -58zM315 -12c-161 0 -277 100 -277 248c0 188 156 326 329 326c103 0 187 -49 232 -127l-97 -46c-25 47 -81 76 -139 76
c-111 0 -212 -94 -212 -218c0 -101 75 -164 172 -164c75 0 145 49 167 126h-184l19 90h295c-23 -189 -151 -311 -305 -311z" />
    <glyph glyph-name="Gcircumflex.smcp.alt1" horiz-adv-x="636" 
d="M558 606h-65l-56 96l-96 -96h-68l125 144h96zM315 -12c-161 0 -277 100 -277 248c0 188 156 326 329 326c103 0 187 -49 232 -127l-97 -46c-25 47 -81 76 -139 76c-111 0 -212 -94 -212 -218c0 -101 75 -164 172 -164c75 0 145 49 167 126h-184l19 90h295
c-23 -189 -151 -311 -305 -311z" />
    <glyph glyph-name="Gdotaccent.smcp.alt1" horiz-adv-x="636" 
d="M315 -12c-161 0 -277 100 -277 248c0 188 156 326 329 326c103 0 187 -49 232 -127l-97 -46c-25 47 -81 76 -139 76c-111 0 -212 -94 -212 -218c0 -101 75 -164 172 -164c75 0 145 49 167 126h-184l19 90h295c-23 -189 -151 -311 -305 -311zM488 663
c0 -35 -32 -65 -67 -65c-30 0 -52 22 -52 52c0 35 31 66 66 66c30 0 53 -23 53 -53z" />
    <glyph glyph-name="Hbar.smcp" unicode="&#xf682;" horiz-adv-x="661" 
d="M531 0h-109l52 234h-290l-52 -234h-109l90 411h-67l14 62h67l17 77h109l-17 -77h290l17 77h109l-17 -77h65l-13 -62h-66zM205 329h290l18 82h-290z" />
    <glyph glyph-name="Hcircumflex.smcp" unicode="&#xf681;" horiz-adv-x="644" 
d="M544 606h-65l-56 96l-96 -96h-68l125 144h96zM522 0h-109l52 234h-290l-52 -234h-109l121 550h109l-48 -221h290l48 221h109z" />
    <glyph glyph-name="uni1E22.smcp" horiz-adv-x="644" 
d="M522 0h-109l52 234h-290l-52 -234h-109l121 550h109l-48 -221h290l48 221h109zM473 663c0 -35 -32 -65 -67 -65c-30 0 -52 22 -52 52c0 35 31 66 66 66c30 0 53 -23 53 -53z" />
    <glyph glyph-name="Iacute.smcp" unicode="&#xf7ed;" horiz-adv-x="245" 
d="M413 750l-197 -144h-77l172 144h102zM123 0h-109l121 550h109z" />
    <glyph glyph-name="Ibreve.smcp" unicode="&#xf683;" horiz-adv-x="245" 
d="M123 0h-109l121 550h109zM387 672c-52 -54 -122 -88 -194 -88c-71 0 -128 34 -157 88l55 40c20 -40 58 -66 113 -66c53 0 103 25 142 66z" />
    <glyph glyph-name="Igrave.smcp" unicode="&#xf7ec;" horiz-adv-x="245" 
d="M123 0h-109l121 550h109zM262 606h-75l-133 144h100z" />
    <glyph glyph-name="Icircumflex.smcp" unicode="&#xf7ee;" horiz-adv-x="245" 
d="M344 606h-65l-56 96l-96 -96h-68l125 144h96zM123 0h-109l121 550h109z" />
    <glyph glyph-name="Idieresis.smcp" unicode="&#xf7ef;" horiz-adv-x="245" 
d="M377 664c0 -34 -31 -65 -66 -65c-29 0 -52 23 -52 52c0 35 32 65 66 65c30 0 52 -22 52 -52zM168 664c0 -34 -31 -65 -66 -65c-29 0 -52 23 -52 52c0 35 32 65 66 65c30 0 52 -22 52 -52zM123 0h-109l121 550h109z" />
    <glyph glyph-name="Idotaccent.smcp" unicode="&#xf6ad;" horiz-adv-x="245" 
d="M123 0h-109l121 550h109zM272 663c0 -35 -32 -65 -67 -65c-30 0 -52 22 -52 52c0 35 31 66 66 66c30 0 53 -23 53 -53z" />
    <glyph glyph-name="Imacron.smcp" unicode="&#xf685;" horiz-adv-x="245" 
d="M384 616h-362l14 62h362zM123 0h-109l121 550h109z" />
    <glyph glyph-name="Iogonek.smcp" unicode="&#xf686;" horiz-adv-x="245" 
d="M123 0c-60 -27 -97 -61 -97 -103c0 -23 16 -36 39 -36c21 0 38 14 50 37l38 -31c-21 -30 -50 -53 -93 -53c-48 0 -88 25 -88 74c0 43 23 82 65 112h-23l121 550h109z" />
    <glyph glyph-name="Itilde.smcp" unicode="&#xf687;" horiz-adv-x="245" 
d="M123 0h-109l121 550h109zM273 604c-72 0 -70 78 -120 78c-23 0 -41 -22 -52 -72h-58c16 82 51 134 118 134c72 0 70 -78 120 -78c23 0 40 22 52 72h59c-18 -82 -52 -134 -119 -134z" />
    <glyph glyph-name="uni1EC8.smcp" horiz-adv-x="245" 
d="M123 0h-109l121 550h109zM170 638l-35 18c16 29 44 47 78 47c35 0 71 -21 71 -61c0 -22 -10 -45 -26 -62h-51c21 18 32 35 32 57c0 17 -14 28 -30 28c-15 0 -28 -8 -39 -27z" />
    <glyph glyph-name="uni1ECA.smcp" horiz-adv-x="245" 
d="M123 0h-109l121 550h109zM98 -126c0 -35 -32 -65 -67 -65c-30 0 -52 22 -52 52c0 35 31 66 66 66c30 0 53 -23 53 -53z" />
    <glyph glyph-name="IJ.smcp" unicode="&#xf684;" horiz-adv-x="673" 
d="M379 -12c-75 0 -134 26 -168 73l65 75c19 -32 51 -52 94 -52c64 0 99 39 112 98l81 368h109l-83 -377c-29 -132 -98 -185 -210 -185zM123 0h-109l121 550h109z" />
    <glyph glyph-name="Jcircumflex.smcp" unicode="&#xf688;" horiz-adv-x="428" 
d="M527 606h-65l-56 96l-96 -96h-68l125 144h96zM134 -12c-75 0 -134 26 -168 73l65 75c19 -32 51 -52 94 -52c64 0 99 39 112 98l81 368h109l-83 -377c-29 -132 -98 -185 -210 -185z" />
    <glyph glyph-name="Kcommaaccent.smcp" unicode="&#xf689;" horiz-adv-x="552" 
d="M262 -121c0 -59 -50 -124 -111 -154l-32 33c32 15 67 44 78 73h-8c-23 0 -43 17 -43 46c0 33 30 60 62 60c29 0 54 -20 54 -58zM492 0h-131l-141 228l-58 -52l-39 -176h-109l121 550h109l-54 -248l270 248h135l-292 -260z" />
    <glyph glyph-name="Lacute.smcp" unicode="&#xf68a;" horiz-adv-x="464" 
d="M376 0h-362l121 550h109l-100 -455h252zM539 750l-197 -144h-77l172 144h102z" />
    <glyph glyph-name="Lcaron.smcp" unicode="&#xf68b;" horiz-adv-x="464" 
d="M419 501c0 -59 -50 -124 -111 -154l-32 33c32 15 67 44 78 73h-8c-23 0 -43 17 -43 46c0 33 30 60 62 60c29 0 54 -20 54 -58zM376 0h-362l121 550h109l-100 -455h252z" />
    <glyph glyph-name="Lcommaaccent.smcp" unicode="&#xf68c;" horiz-adv-x="464" 
d="M224 -121c0 -59 -50 -124 -111 -154l-32 33c32 15 67 44 78 73h-8c-23 0 -43 17 -43 46c0 33 30 60 62 60c29 0 54 -20 54 -58zM376 0h-362l121 550h109l-100 -455h252z" />
    <glyph glyph-name="Ldot.smcp" unicode="&#xf68d;" horiz-adv-x="487" 
d="M376 0h-362l121 550h109l-100 -455h252zM375 230c-36 0 -64 29 -64 64c0 42 35 76 77 76c35 0 63 -29 63 -65c0 -41 -35 -75 -76 -75z" />
    <glyph glyph-name="Lslash.smcp" unicode="&#xf6f9;" horiz-adv-x="480" 
d="M-11 153l21 97l84 43l57 257h109l-43 -194l99 51l-22 -98l-98 -50l-36 -164h252l-20 -95h-362l43 196z" />
    <glyph glyph-name="Nacute.smcp" unicode="&#xf68e;" horiz-adv-x="641" 
d="M610 750l-197 -144h-77l172 144h102zM519 0h-111l-197 403l-88 -403h-109l121 550h116l194 -392l86 392h109z" />
    <glyph glyph-name="Ncaron.smcp" unicode="&#xf68f;" horiz-adv-x="641" 
d="M449 606h-96l-64 144h64l56 -97l96 97h69zM519 0h-111l-197 403l-88 -403h-109l121 550h116l194 -392l86 392h109z" />
    <glyph glyph-name="Ncommaaccent.smcp" unicode="&#xf690;" horiz-adv-x="641" 
d="M295 -121c0 -59 -50 -124 -111 -154l-32 33c32 15 67 44 78 73h-8c-23 0 -43 17 -43 46c0 33 30 60 62 60c29 0 54 -20 54 -58zM519 0h-111l-197 403l-88 -403h-109l121 550h116l194 -392l86 392h109z" />
    <glyph glyph-name="Ntilde.smcp" unicode="&#xf7f1;" horiz-adv-x="641" 
d="M519 0h-111l-197 403l-88 -403h-109l121 550h116l194 -392l86 392h109zM472 604c-72 0 -70 78 -120 78c-23 0 -41 -22 -52 -72h-58c16 82 51 134 118 134c72 0 70 -78 120 -78c23 0 40 22 52 72h59c-18 -82 -52 -134 -119 -134z" />
    <glyph glyph-name="Eng.smcp" unicode="&#xf67b;" horiz-adv-x="641" 
d="M306 -196c-69 0 -131 21 -168 72l65 77c18 -32 51 -52 94 -52c66 0 100 40 112 98v1h-1l-199 393l-86 -393h-109l121 550h116l196 -382l84 382h109l-124 -563c-26 -123 -92 -183 -210 -183z" />
    <glyph glyph-name="Oacute.smcp" unicode="&#xf7f3;" horiz-adv-x="658" 
d="M311 -12c-166 0 -273 104 -273 252c0 171 137 322 320 322c166 0 273 -105 273 -252c0 -171 -137 -322 -320 -322zM314 84c122 0 205 106 205 219c0 91 -60 163 -163 163c-123 0 -206 -107 -206 -219c0 -92 61 -163 164 -163zM619 750l-197 -144h-77l172 144h102z" />
    <glyph glyph-name="Obreve.smcp" unicode="&#xf691;" horiz-adv-x="658" 
d="M311 -12c-166 0 -273 104 -273 252c0 171 137 322 320 322c166 0 273 -105 273 -252c0 -171 -137 -322 -320 -322zM314 84c122 0 205 106 205 219c0 91 -60 163 -163 163c-123 0 -206 -107 -206 -219c0 -92 61 -163 164 -163zM598 682c-52 -54 -122 -88 -194 -88
c-71 0 -128 34 -157 88l55 40c20 -40 58 -66 113 -66c53 0 103 25 142 66z" />
    <glyph glyph-name="Ocircumflex.smcp" unicode="&#xf7f4;" horiz-adv-x="658" 
d="M311 -12c-166 0 -273 104 -273 252c0 171 137 322 320 322c166 0 273 -105 273 -252c0 -171 -137 -322 -320 -322zM314 84c122 0 205 106 205 219c0 91 -60 163 -163 163c-123 0 -206 -107 -206 -219c0 -92 61 -163 164 -163zM552 606h-65l-56 96l-96 -96h-68l125 144h96
z" />
    <glyph glyph-name="Odieresis.smcp" unicode="&#xf7f6;" horiz-adv-x="658" 
d="M311 -12c-166 0 -273 104 -273 252c0 171 137 322 320 322c166 0 273 -105 273 -252c0 -171 -137 -322 -320 -322zM314 84c122 0 205 106 205 219c0 91 -60 163 -163 163c-123 0 -206 -107 -206 -219c0 -92 61 -163 164 -163zM584 664c0 -34 -31 -65 -66 -65
c-29 0 -52 23 -52 52c0 35 32 65 66 65c30 0 52 -22 52 -52zM375 664c0 -34 -31 -65 -66 -65c-29 0 -52 23 -52 52c0 35 32 65 66 65c30 0 52 -22 52 -52z" />
    <glyph glyph-name="Ograve.smcp" unicode="&#xf7f2;" horiz-adv-x="658" 
d="M311 -12c-166 0 -273 104 -273 252c0 171 137 322 320 322c166 0 273 -105 273 -252c0 -171 -137 -322 -320 -322zM314 84c122 0 205 106 205 219c0 91 -60 163 -163 163c-123 0 -206 -107 -206 -219c0 -92 61 -163 164 -163zM471 606h-75l-133 144h100z" />
    <glyph glyph-name="Ohungarumlaut.smcp" unicode="&#xf692;" horiz-adv-x="658" 
d="M311 -12c-166 0 -273 104 -273 252c0 171 137 322 320 322c166 0 273 -105 273 -252c0 -171 -137 -322 -320 -322zM314 84c122 0 205 106 205 219c0 91 -60 163 -163 163c-123 0 -206 -107 -206 -219c0 -92 61 -163 164 -163zM504 750l-147 -144h-65l122 144h90zM650 750
l-147 -144h-65l122 144h90z" />
    <glyph glyph-name="Omacron.smcp" unicode="&#xf693;" horiz-adv-x="658" 
d="M311 -12c-166 0 -273 104 -273 252c0 171 137 322 320 322c166 0 273 -105 273 -252c0 -171 -137 -322 -320 -322zM314 84c122 0 205 106 205 219c0 91 -60 163 -163 163c-123 0 -206 -107 -206 -219c0 -92 61 -163 164 -163zM592 616h-362l14 62h362z" />
    <glyph glyph-name="Otilde.smcp" unicode="&#xf7f5;" horiz-adv-x="658" 
d="M311 -12c-166 0 -273 104 -273 252c0 171 137 322 320 322c166 0 273 -105 273 -252c0 -171 -137 -322 -320 -322zM314 84c122 0 205 106 205 219c0 91 -60 163 -163 163c-123 0 -206 -107 -206 -219c0 -92 61 -163 164 -163zM480 604c-72 0 -70 78 -120 78
c-23 0 -41 -22 -52 -72h-58c16 82 51 134 118 134c72 0 70 -78 120 -78c23 0 40 22 52 72h59c-18 -82 -52 -134 -119 -134z" />
    <glyph glyph-name="Oslash.smcp" unicode="&#xf7f8;" horiz-adv-x="658" 
d="M311 -12c-67 0 -125 16 -169 46l-34 -34h-91l77 78c-36 42 -56 98 -56 162c0 171 137 322 320 322c66 0 123 -17 167 -46l34 34h91l-76 -77c36 -43 57 -99 57 -163c0 -171 -137 -322 -320 -322zM314 84c122 0 205 106 205 219c0 33 -8 64 -24 90l-278 -282
c26 -17 58 -27 97 -27zM150 247c0 -33 8 -64 23 -89l277 282c-25 16 -57 26 -94 26c-123 0 -206 -107 -206 -219z" />
    <glyph glyph-name="Oslashacute.smcp" unicode="&#xf694;" horiz-adv-x="658" 
d="M311 -12c-67 0 -125 16 -169 46l-34 -34h-91l77 78c-36 42 -56 98 -56 162c0 171 137 322 320 322c66 0 123 -17 167 -46l34 34h91l-76 -77c36 -43 57 -99 57 -163c0 -171 -137 -322 -320 -322zM314 84c122 0 205 106 205 219c0 33 -8 64 -24 90l-278 -282
c26 -17 58 -27 97 -27zM150 247c0 -33 8 -64 23 -89l277 282c-25 16 -57 26 -94 26c-123 0 -206 -107 -206 -219zM620 750l-197 -144h-77l172 144h102z" />
    <glyph glyph-name="uni1ECC.smcp" horiz-adv-x="658" 
d="M311 -12c-166 0 -273 104 -273 252c0 171 137 322 320 322c166 0 273 -105 273 -252c0 -171 -137 -322 -320 -322zM314 84c122 0 205 106 205 219c0 91 -60 163 -163 163c-123 0 -206 -107 -206 -219c0 -92 61 -163 164 -163zM306 -126c0 -35 -32 -65 -67 -65
c-30 0 -52 22 -52 52c0 35 31 66 66 66c30 0 53 -23 53 -53z" />
    <glyph glyph-name="uni1ECE.smcp" horiz-adv-x="658" 
d="M311 -12c-166 0 -273 104 -273 252c0 171 137 322 320 322c166 0 273 -105 273 -252c0 -171 -137 -322 -320 -322zM314 84c122 0 205 106 205 219c0 91 -60 163 -163 163c-123 0 -206 -107 -206 -219c0 -92 61 -163 164 -163zM378 638l-35 18c16 29 44 47 78 47
c35 0 71 -21 71 -61c0 -22 -10 -45 -26 -62h-51c21 18 32 35 32 57c0 17 -14 28 -30 28c-15 0 -28 -8 -39 -27z" />
    <glyph glyph-name="uni1ED0.smcp" horiz-adv-x="658" 
d="M311 -12c-166 0 -273 104 -273 252c0 171 137 322 320 322c166 0 273 -105 273 -252c0 -171 -137 -322 -320 -322zM314 84c122 0 205 106 205 219c0 91 -60 163 -163 163c-123 0 -206 -107 -206 -219c0 -92 61 -163 164 -163zM550 606h-65l-56 96l-96 -96h-68l125 144h96
zM799 820l-197 -144h-77l172 144h102z" />
    <glyph glyph-name="uni1ED2.smcp" horiz-adv-x="658" 
d="M311 -12c-166 0 -273 104 -273 252c0 171 137 322 320 322c166 0 273 -105 273 -252c0 -171 -137 -322 -320 -322zM314 84c122 0 205 106 205 219c0 91 -60 163 -163 163c-123 0 -206 -107 -206 -219c0 -92 61 -163 164 -163zM551 606h-65l-56 96l-96 -96h-68l125 144h96
zM319 676h-75l-133 144h100z" />
    <glyph glyph-name="uni1ED4.smcp" horiz-adv-x="658" 
d="M311 -12c-166 0 -273 104 -273 252c0 171 137 322 320 322c166 0 273 -105 273 -252c0 -171 -137 -322 -320 -322zM314 84c122 0 205 106 205 219c0 91 -60 163 -163 163c-123 0 -206 -107 -206 -219c0 -92 61 -163 164 -163zM551 606h-65l-56 96l-96 -96h-68l125 144h96
zM483 775l-35 18c16 29 44 47 78 47c35 0 71 -21 71 -61c0 -22 -10 -45 -26 -62h-51c21 18 32 35 32 57c0 17 -14 28 -30 28c-15 0 -28 -8 -39 -27z" />
    <glyph glyph-name="uni1ED6.smcp" horiz-adv-x="658" 
d="M311 -12c-166 0 -273 104 -273 252c0 171 137 322 320 322c166 0 273 -105 273 -252c0 -171 -137 -322 -320 -322zM314 84c122 0 205 106 205 219c0 91 -60 163 -163 163c-123 0 -206 -107 -206 -219c0 -92 61 -163 164 -163zM544 573h-65l-56 96l-96 -96h-68l125 144h96
zM508 732c-72 0 -70 78 -120 78c-23 0 -41 -22 -52 -72h-58c16 82 51 134 118 134c72 0 70 -78 120 -78c23 0 40 22 52 72h59c-18 -82 -52 -134 -119 -134z" />
    <glyph glyph-name="uni1ED8.smcp" horiz-adv-x="658" 
d="M311 -12c-166 0 -273 104 -273 252c0 171 137 322 320 322c166 0 273 -105 273 -252c0 -171 -137 -322 -320 -322zM314 84c122 0 205 106 205 219c0 91 -60 163 -163 163c-123 0 -206 -107 -206 -219c0 -92 61 -163 164 -163zM551 606h-65l-56 96l-96 -96h-68l125 144h96
zM305 -126c0 -35 -32 -65 -67 -65c-30 0 -52 22 -52 52c0 35 31 66 66 66c30 0 53 -23 53 -53z" />
    <glyph glyph-name="Ohorn.smcp" horiz-adv-x="658" 
d="M311 -12c-166 0 -273 104 -273 252c0 171 137 322 320 322c95 0 170 -35 218 -92c25 16 49 39 58 63c-1 -1 -5 -1 -7 -1c-21 0 -39 16 -39 42c0 31 27 55 56 55c26 0 49 -18 49 -53c0 -53 -42 -109 -95 -139c21 -36 33 -80 33 -127c0 -171 -137 -322 -320 -322zM314 84
c122 0 205 106 205 219c0 91 -60 163 -163 163c-123 0 -206 -107 -206 -219c0 -92 61 -163 164 -163z" />
    <glyph glyph-name="uni1EDA.smcp" horiz-adv-x="658" 
d="M311 -12c-166 0 -273 104 -273 252c0 171 137 322 320 322c95 0 170 -35 218 -92c25 16 49 39 58 63c-1 -1 -5 -1 -7 -1c-21 0 -39 16 -39 42c0 31 27 55 56 55c26 0 49 -18 49 -53c0 -53 -42 -109 -95 -139c21 -36 33 -80 33 -127c0 -171 -137 -322 -320 -322zM314 84
c122 0 205 106 205 219c0 91 -60 163 -163 163c-123 0 -206 -107 -206 -219c0 -92 61 -163 164 -163zM619 750l-197 -144h-77l172 144h102z" />
    <glyph glyph-name="uni1EDC.smcp" horiz-adv-x="658" 
d="M311 -12c-166 0 -273 104 -273 252c0 171 137 322 320 322c95 0 170 -35 218 -92c25 16 49 39 58 63c-1 -1 -5 -1 -7 -1c-21 0 -39 16 -39 42c0 31 27 55 56 55c26 0 49 -18 49 -53c0 -53 -42 -109 -95 -139c21 -36 33 -80 33 -127c0 -171 -137 -322 -320 -322zM314 84
c122 0 205 106 205 219c0 91 -60 163 -163 163c-123 0 -206 -107 -206 -219c0 -92 61 -163 164 -163zM471 606h-75l-133 144h100z" />
    <glyph glyph-name="uni1EDE.smcp" horiz-adv-x="658" 
d="M311 -12c-166 0 -273 104 -273 252c0 171 137 322 320 322c95 0 170 -35 218 -92c25 16 49 39 58 63c-1 -1 -5 -1 -7 -1c-21 0 -39 16 -39 42c0 31 27 55 56 55c26 0 49 -18 49 -53c0 -53 -42 -109 -95 -139c21 -36 33 -80 33 -127c0 -171 -137 -322 -320 -322zM314 84
c122 0 205 106 205 219c0 91 -60 163 -163 163c-123 0 -206 -107 -206 -219c0 -92 61 -163 164 -163zM378 638l-35 18c16 29 44 47 78 47c35 0 71 -21 71 -61c0 -22 -10 -45 -26 -62h-51c21 18 32 35 32 57c0 17 -14 28 -30 28c-15 0 -28 -8 -39 -27z" />
    <glyph glyph-name="uni1EE0.smcp" horiz-adv-x="658" 
d="M311 -12c-166 0 -273 104 -273 252c0 171 137 322 320 322c95 0 170 -35 218 -92c25 16 49 39 58 63c-1 -1 -5 -1 -7 -1c-21 0 -39 16 -39 42c0 31 27 55 56 55c26 0 49 -18 49 -53c0 -53 -42 -109 -95 -139c21 -36 33 -80 33 -127c0 -171 -137 -322 -320 -322zM314 84
c122 0 205 106 205 219c0 91 -60 163 -163 163c-123 0 -206 -107 -206 -219c0 -92 61 -163 164 -163zM480 604c-72 0 -70 78 -120 78c-23 0 -41 -22 -52 -72h-58c16 82 51 134 118 134c72 0 70 -78 120 -78c23 0 40 22 52 72h59c-18 -82 -52 -134 -119 -134z" />
    <glyph glyph-name="uni1EE2.smcp" horiz-adv-x="658" 
d="M311 -12c-166 0 -273 104 -273 252c0 171 137 322 320 322c95 0 170 -35 218 -92c25 16 49 39 58 63c-1 -1 -5 -1 -7 -1c-21 0 -39 16 -39 42c0 31 27 55 56 55c26 0 49 -18 49 -53c0 -53 -42 -109 -95 -139c21 -36 33 -80 33 -127c0 -171 -137 -322 -320 -322zM314 84
c122 0 205 106 205 219c0 91 -60 163 -163 163c-123 0 -206 -107 -206 -219c0 -92 61 -163 164 -163zM306 -126c0 -35 -32 -65 -67 -65c-30 0 -52 22 -52 52c0 35 31 66 66 66c30 0 53 -23 53 -53z" />
    <glyph glyph-name="OE.smcp" unicode="&#xf6fa;" horiz-adv-x="939" 
d="M839 0h-401l15 71c-39 -56 -104 -83 -170 -83c-147 0 -245 104 -245 252c0 169 135 322 321 322c75 0 148 -32 180 -103l20 91h401l-21 -95h-292l-28 -127h286l-21 -95h-286l-30 -138h292zM480 192l35 158c-21 82 -90 116 -158 116c-118 0 -207 -101 -207 -219
c0 -99 68 -163 164 -163c70 0 131 38 166 108z" />
    <glyph glyph-name="uni1E56.smcp" horiz-adv-x="540" 
d="M123 0h-109l121 550h230c113 0 184 -63 184 -153c0 -102 -79 -198 -208 -198h-174zM188 294h149c61 0 99 43 99 95c0 41 -31 66 -83 66h-129zM440 663c0 -35 -32 -65 -67 -65c-30 0 -52 22 -52 52c0 35 31 66 66 66c30 0 53 -23 53 -53z" />
    <glyph glyph-name="Racute.smcp" unicode="&#xf695;" horiz-adv-x="561" 
d="M578 750l-197 -144h-77l172 144h102zM468 0h-124l-80 199h-97l-44 -199h-109l121 550h231c115 0 184 -65 184 -152c0 -95 -63 -180 -177 -192zM327 294h7c65 0 102 43 102 94c0 40 -31 67 -80 67h-132l-36 -161h139z" />
    <glyph glyph-name="Rcaron.smcp" unicode="&#xf696;" horiz-adv-x="561" 
d="M417 606h-96l-64 144h64l56 -97l96 97h69zM468 0h-124l-80 199h-97l-44 -199h-109l121 550h231c115 0 184 -65 184 -152c0 -95 -63 -180 -177 -192zM327 294h7c65 0 102 43 102 94c0 40 -31 67 -80 67h-132l-36 -161h139z" />
    <glyph glyph-name="Rcommaaccent.smcp" unicode="&#xf697;" horiz-adv-x="561" 
d="M257 -121c0 -59 -50 -124 -111 -154l-32 33c32 15 67 44 78 73h-8c-23 0 -43 17 -43 46c0 33 30 60 62 60c29 0 54 -20 54 -58zM468 0h-124l-80 199h-97l-44 -199h-109l121 550h231c115 0 184 -65 184 -152c0 -95 -63 -180 -177 -192zM327 294h7c65 0 102 43 102 94
c0 40 -31 67 -80 67h-132l-36 -161h139z" />
    <glyph glyph-name="Sacute.smcp" unicode="&#xf698;" horiz-adv-x="511" 
d="M551 750l-197 -144h-77l172 144h102zM245 -12c-105 0 -198 32 -251 96l69 81c37 -49 108 -81 189 -81c75 0 99 38 99 75c0 90 -280 66 -280 234c0 86 91 169 216 169c96 0 180 -39 225 -92l-68 -76c-33 42 -103 72 -162 72c-56 0 -96 -30 -96 -69c0 -85 280 -59 280 -234
c0 -86 -69 -175 -221 -175z" />
    <glyph glyph-name="Scaron.smcp" unicode="&#xf6fd;" horiz-adv-x="511" 
d="M391 606h-96l-64 144h64l56 -97l96 97h69zM245 -12c-105 0 -198 32 -251 96l69 81c37 -49 108 -81 189 -81c75 0 99 38 99 75c0 90 -280 66 -280 234c0 86 91 169 216 169c96 0 180 -39 225 -92l-68 -76c-33 42 -103 72 -162 72c-56 0 -96 -30 -96 -69
c0 -85 280 -59 280 -234c0 -86 -69 -175 -221 -175z" />
    <glyph glyph-name="Scircumflex.smcp" unicode="&#xf69a;" horiz-adv-x="511" 
d="M482 606h-65l-56 96l-96 -96h-68l125 144h96zM245 -12c-105 0 -198 32 -251 96l69 81c37 -49 108 -81 189 -81c75 0 99 38 99 75c0 90 -280 66 -280 234c0 86 91 169 216 169c96 0 180 -39 225 -92l-68 -76c-33 42 -103 72 -162 72c-56 0 -96 -30 -96 -69
c0 -85 280 -59 280 -234c0 -86 -69 -175 -221 -175z" />
    <glyph glyph-name="Scedilla.smcp" unicode="&#xf699;" horiz-adv-x="511" 
d="M171 -194c-50 0 -92 18 -114 40l31 43c23 -23 54 -35 84 -35c35 0 55 16 55 40c0 15 -12 26 -33 26c-12 0 -23 -5 -32 -15l-35 23l39 67c-72 12 -133 41 -172 89l69 81c37 -49 108 -81 189 -81c75 0 99 38 99 75c0 90 -280 66 -280 234c0 86 91 169 216 169
c96 0 180 -39 225 -92l-68 -76c-33 42 -103 72 -162 72c-56 0 -96 -30 -96 -69c0 -85 280 -59 280 -234c0 -86 -69 -175 -221 -175c-10 0 -19 1 -28 1l-26 -42c11 8 20 11 32 11c34 0 59 -23 59 -61c0 -55 -47 -91 -111 -91z" />
    <glyph glyph-name="Scommaaccent.smcp" unicode="&#xf69b;" horiz-adv-x="511" 
d="M236 -121c0 -59 -50 -124 -111 -154l-32 33c32 15 67 44 78 73h-8c-23 0 -43 17 -43 46c0 33 30 60 62 60c29 0 54 -20 54 -58zM245 -12c-105 0 -198 32 -251 96l69 81c37 -49 108 -81 189 -81c75 0 99 38 99 75c0 90 -280 66 -280 234c0 86 91 169 216 169
c96 0 180 -39 225 -92l-68 -76c-33 42 -103 72 -162 72c-56 0 -96 -30 -96 -69c0 -85 280 -59 280 -234c0 -86 -69 -175 -221 -175z" />
    <glyph glyph-name="uni1E60.smcp" horiz-adv-x="511" 
d="M245 -12c-105 0 -198 32 -251 96l69 81c37 -49 108 -81 189 -81c75 0 99 38 99 75c0 90 -280 66 -280 234c0 86 91 169 216 169c96 0 180 -39 225 -92l-68 -76c-33 42 -103 72 -162 72c-56 0 -96 -30 -96 -69c0 -85 280 -59 280 -234c0 -86 -69 -175 -221 -175zM412 663
c0 -35 -32 -65 -67 -65c-30 0 -52 22 -52 52c0 35 31 66 66 66c30 0 53 -23 53 -53z" />
    <glyph glyph-name="Tbar.smcp" unicode="&#xf69c;" horiz-adv-x="480" 
d="M240 0h-109l48 221h-107l14 62h107l38 172h-162l21 95h434l-21 -95h-163l-38 -172h110l-14 -62h-110z" />
    <glyph glyph-name="Tcaron.smcp" unicode="&#xf69d;" horiz-adv-x="480" 
d="M367 606h-96l-64 144h64l56 -97l96 97h69zM240 0h-109l100 455h-162l21 95h434l-21 -95h-163z" />
    <glyph glyph-name="Tcommaaccent.smcp" unicode="&#xf69e;" horiz-adv-x="480" 
d="M216 -121c0 -59 -50 -124 -111 -154l-32 33c32 15 67 44 78 73h-8c-23 0 -43 17 -43 46c0 33 30 60 62 60c29 0 54 -20 54 -58zM240 0h-109l100 455h-162l21 95h434l-21 -95h-163z" />
    <glyph glyph-name="uni021A.smcp" horiz-adv-x="480" 
d="M216 -121c0 -59 -50 -124 -111 -154l-32 33c32 15 67 44 78 73h-8c-23 0 -43 17 -43 46c0 33 30 60 62 60c29 0 54 -20 54 -58zM240 0h-109l100 455h-162l21 95h434l-21 -95h-163z" />
    <glyph glyph-name="uni1E6A.smcp" horiz-adv-x="480" 
d="M240 0h-109l100 455h-162l21 95h434l-21 -95h-163zM391 663c0 -35 -32 -65 -67 -65c-30 0 -52 22 -52 52c0 35 31 66 66 66c30 0 53 -23 53 -53z" />
    <glyph glyph-name="Uacute.smcp" unicode="&#xf7fa;" horiz-adv-x="636" 
d="M608 750l-197 -144h-77l172 144h102zM306 -12c-163 0 -250 75 -250 184c0 12 2 29 5 43l74 335h110l-72 -326c-2 -11 -3 -22 -3 -31c0 -71 53 -109 133 -109c84 0 130 51 150 140l72 326h110l-74 -334c-32 -145 -102 -228 -255 -228z" />
    <glyph glyph-name="Ubreve.smcp" unicode="&#xf69f;" horiz-adv-x="636" 
d="M306 -12c-163 0 -250 75 -250 184c0 12 2 29 5 43l74 335h110l-72 -326c-2 -11 -3 -22 -3 -31c0 -71 53 -109 133 -109c84 0 130 51 150 140l72 326h110l-74 -334c-32 -145 -102 -228 -255 -228zM582 672c-52 -54 -122 -88 -194 -88c-71 0 -128 34 -157 88l55 40
c20 -40 58 -66 113 -66c53 0 103 25 142 66z" />
    <glyph glyph-name="Ucircumflex.smcp" unicode="&#xf7fb;" horiz-adv-x="636" 
d="M538 606h-65l-56 96l-96 -96h-68l125 144h96zM306 -12c-163 0 -250 75 -250 184c0 12 2 29 5 43l74 335h110l-72 -326c-2 -11 -3 -22 -3 -31c0 -71 53 -109 133 -109c84 0 130 51 150 140l72 326h110l-74 -334c-32 -145 -102 -228 -255 -228z" />
    <glyph glyph-name="Udieresis.smcp" unicode="&#xf7fc;" horiz-adv-x="636" 
d="M572 664c0 -34 -31 -65 -66 -65c-29 0 -52 23 -52 52c0 35 32 65 66 65c30 0 52 -22 52 -52zM363 664c0 -34 -31 -65 -66 -65c-29 0 -52 23 -52 52c0 35 32 65 66 65c30 0 52 -22 52 -52zM306 -12c-163 0 -250 75 -250 184c0 12 2 29 5 43l74 335h110l-72 -326
c-2 -11 -3 -22 -3 -31c0 -71 53 -109 133 -109c84 0 130 51 150 140l72 326h110l-74 -334c-32 -145 -102 -228 -255 -228z" />
    <glyph glyph-name="Ugrave.smcp" unicode="&#xf7f9;" horiz-adv-x="636" 
d="M306 -12c-163 0 -250 75 -250 184c0 12 2 29 5 43l74 335h110l-72 -326c-2 -11 -3 -22 -3 -31c0 -71 53 -109 133 -109c84 0 130 51 150 140l72 326h110l-74 -334c-32 -145 -102 -228 -255 -228zM457 606h-75l-133 144h100z" />
    <glyph glyph-name="Uhungarumlaut.smcp" unicode="&#xf6a0;" horiz-adv-x="636" 
d="M306 -12c-163 0 -250 75 -250 184c0 12 2 29 5 43l74 335h110l-72 -326c-2 -11 -3 -22 -3 -31c0 -71 53 -109 133 -109c84 0 130 51 150 140l72 326h110l-74 -334c-32 -145 -102 -228 -255 -228zM491 750l-147 -144h-65l122 144h90zM637 750l-147 -144h-65l122 144h90z
" />
    <glyph glyph-name="Umacron.smcp" unicode="&#xf6a1;" horiz-adv-x="636" 
d="M306 -12c-163 0 -250 75 -250 184c0 12 2 29 5 43l74 335h110l-72 -326c-2 -11 -3 -22 -3 -31c0 -71 53 -109 133 -109c84 0 130 51 150 140l72 326h110l-74 -334c-32 -145 -102 -228 -255 -228zM580 616h-362l14 62h362z" />
    <glyph glyph-name="Uogonek.smcp" unicode="&#xf6a2;" horiz-adv-x="636" 
d="M387 -102l38 -31c-21 -30 -50 -53 -93 -53c-48 0 -88 25 -88 74c0 37 17 72 49 100c-155 4 -237 78 -237 184c0 12 2 29 5 43l74 335h110l-72 -326c-2 -11 -3 -22 -3 -31c0 -71 53 -109 133 -109c84 0 130 51 150 140l72 326h110l-74 -334c-25 -113 -74 -189 -166 -216
c-60 -27 -97 -61 -97 -103c0 -23 16 -36 39 -36c21 0 38 14 50 37z" />
    <glyph glyph-name="Uring.smcp" unicode="&#xf6a3;" horiz-adv-x="636" 
d="M306 -12c-163 0 -250 75 -250 184c0 12 2 29 5 43l74 335h110l-72 -326c-2 -11 -3 -22 -3 -31c0 -71 53 -109 133 -109c84 0 130 51 150 140l72 326h110l-74 -334c-32 -145 -102 -228 -255 -228zM403 572c-55 0 -93 38 -93 93c0 60 52 112 112 112c55 0 93 -38 93 -93
c0 -61 -51 -112 -112 -112zM407 623c31 0 57 25 57 56c0 28 -18 47 -46 47c-30 0 -57 -26 -57 -56c0 -28 19 -47 46 -47z" />
    <glyph glyph-name="Utilde.smcp" unicode="&#xf6a4;" horiz-adv-x="636" 
d="M306 -12c-163 0 -250 75 -250 184c0 12 2 29 5 43l74 335h110l-72 -326c-2 -11 -3 -22 -3 -31c0 -71 53 -109 133 -109c84 0 130 51 150 140l72 326h110l-74 -334c-32 -145 -102 -228 -255 -228zM468 604c-72 0 -70 78 -120 78c-23 0 -41 -22 -52 -72h-58
c16 82 51 134 118 134c72 0 70 -78 120 -78c23 0 40 22 52 72h59c-18 -82 -52 -134 -119 -134z" />
    <glyph glyph-name="uni1EE4.smcp" horiz-adv-x="636" 
d="M306 -12c-163 0 -250 75 -250 184c0 12 2 29 5 43l74 335h110l-72 -326c-2 -11 -3 -22 -3 -31c0 -71 53 -109 133 -109c84 0 130 51 150 140l72 326h110l-74 -334c-32 -145 -102 -228 -255 -228zM293 -126c0 -35 -32 -65 -67 -65c-30 0 -52 22 -52 52c0 35 31 66 66 66
c30 0 53 -23 53 -53z" />
    </font>
</defs>
</svg>
